<svg width="288" height="190" viewBox="0 0 288 190" fill="none" xmlns="http://www.w3.org/2000/svg">
<mask id="mask0_1_518" style="mask-type:alpha" maskUnits="userSpaceOnUse" x="108" y="0" width="72" height="72">
<rect x="108" width="72" height="72" fill="#D9D9D9"/>
</mask>
<g mask="url(#mask0_1_518)">
<path d="M144 66C135.987 66 128.453 62.8795 122.787 57.2132C117.121 51.547 114 44.0133 114 36C114 27.9867 117.121 20.453 122.787 14.7868C128.453 9.12051 135.987 6 144 6C152.013 6 159.547 9.12051 165.213 14.7868C170.879 20.453 174 27.9867 174 36C174 44.0133 170.879 51.547 165.213 57.2132C159.547 62.8795 152.013 66 144 66ZM144 7.77215C128.435 7.77215 115.772 20.4352 115.772 36C115.772 51.5649 128.435 64.2278 144 64.2278C159.565 64.2278 172.228 51.5649 172.228 36C172.228 20.4352 159.565 7.77215 144 7.77215Z" fill="black"/>
<path d="M144 50.8102C135.834 50.8102 129.19 44.1664 129.19 36.0001C129.19 27.8337 135.834 21.1899 144 21.1899C152.166 21.1899 158.81 27.8337 158.81 36.0001C158.81 44.1664 152.166 50.8102 144 50.8102ZM144 22.9621C136.811 22.9621 130.962 28.811 130.962 36.0001C130.962 43.1892 136.811 49.038 144 49.038C151.189 49.038 157.038 43.1892 157.038 36.0001C157.038 28.811 151.189 22.9621 144 22.9621Z" fill="black"/>
<path d="M134.155 27.0402C133.928 27.0402 133.702 26.9536 133.529 26.7807L122.788 16.0398C122.442 15.6939 122.442 15.1328 122.788 14.7868C123.134 14.4409 123.695 14.4409 124.041 14.7868L134.782 25.5277C135.128 25.8736 135.128 26.4348 134.782 26.7807C134.609 26.9536 134.382 27.0402 134.155 27.0402Z" fill="black"/>
<path d="M164.587 57.4725C164.36 57.4725 164.133 57.3859 163.96 57.213L153.219 46.472C152.873 46.1259 152.873 45.5649 153.219 45.2188C153.565 44.873 154.126 44.873 154.472 45.2188L165.213 55.9599C165.559 56.3059 165.559 56.8669 165.213 57.213C165.04 57.3859 164.813 57.4725 164.587 57.4725Z" fill="black"/>
<path d="M153.846 27.0402C153.619 27.0402 153.392 26.9538 153.219 26.7807C152.873 26.4347 152.873 25.8736 153.219 25.5277L163.96 14.7868C164.306 14.4409 164.867 14.4409 165.213 14.7868C165.559 15.1329 165.559 15.6939 165.213 16.0398L154.472 26.7807C154.299 26.9536 154.072 27.0402 153.846 27.0402Z" fill="black"/>
<path d="M123.413 57.4725C123.186 57.4725 122.96 57.3859 122.787 57.213C122.441 56.8669 122.441 56.3059 122.787 55.9599L133.528 45.2188C133.873 44.873 134.435 44.873 134.781 45.2188C135.127 45.5649 135.127 46.1259 134.781 46.472L124.04 57.213C123.867 57.3859 123.64 57.4725 123.413 57.4725Z" fill="black"/>
</g>
<path d="M82.9184 102.4C83.7717 102.4 84.5384 102.547 85.2184 102.84C85.9117 103.133 86.4984 103.553 86.9784 104.1C87.4717 104.633 87.845 105.287 88.0984 106.06C88.365 106.82 88.4984 107.673 88.4984 108.62C88.4984 109.9 88.265 111.12 87.7984 112.28C87.345 113.44 86.725 114.46 85.9384 115.34C85.1517 116.22 84.2384 116.92 83.1984 117.44C82.1717 117.947 81.085 118.2 79.9384 118.2C79.085 118.2 78.3117 118.053 77.6184 117.76C76.925 117.453 76.3317 117.027 75.8384 116.48C75.345 115.933 74.965 115.28 74.6984 114.52C74.4317 113.747 74.2984 112.887 74.2984 111.94C74.2984 110.66 74.5317 109.447 74.9984 108.3C75.465 107.14 76.0917 106.127 76.8784 105.26C77.665 104.38 78.5784 103.687 79.6184 103.18C80.6717 102.66 81.7717 102.4 82.9184 102.4ZM82.9184 103.44C82.0517 103.44 81.2384 103.66 80.4784 104.1C79.7317 104.54 79.0784 105.147 78.5184 105.92C77.9584 106.693 77.5184 107.6 77.1984 108.64C76.8784 109.68 76.7184 110.8 76.7184 112C76.7184 113.707 77.0117 114.987 77.5984 115.84C78.1984 116.693 79.0717 117.12 80.2184 117.12C81.0584 117.12 81.8317 116.893 82.5384 116.44C83.2584 115.987 83.8784 115.36 84.3984 114.56C84.9317 113.76 85.345 112.807 85.6384 111.7C85.9317 110.593 86.0784 109.387 86.0784 108.08C86.0784 106.48 85.8184 105.307 85.2984 104.56C84.7917 103.813 83.9984 103.44 82.9184 103.44ZM97.7246 108.24C97.4046 108.24 97.0379 108.407 96.6246 108.74C96.2246 109.06 95.8113 109.493 95.3846 110.04C94.9713 110.573 94.5713 111.187 94.1846 111.88C93.7979 112.573 93.4713 113.28 93.2046 114L91.7246 118H89.9646L91.4446 113.42C91.6846 112.687 91.8846 112.06 92.0446 111.54C92.2046 111.02 92.3313 110.587 92.4246 110.24C92.5313 109.88 92.6046 109.593 92.6446 109.38C92.6846 109.153 92.7046 108.973 92.7046 108.84C92.7046 108.48 92.5913 108.3 92.3646 108.3C92.2179 108.3 92.0446 108.393 91.8446 108.58C91.6446 108.767 91.4379 109.013 91.2246 109.32C91.0246 109.613 90.8313 109.953 90.6446 110.34C90.4579 110.727 90.2979 111.12 90.1646 111.52L89.5646 111.22C90.0313 109.847 90.5513 108.833 91.1246 108.18C91.7113 107.527 92.3779 107.2 93.1246 107.2C93.5513 107.2 93.8513 107.32 94.0246 107.56C94.2113 107.8 94.3046 108.207 94.3046 108.78C94.3046 109.46 94.1913 110.067 93.9646 110.6L94.0246 110.66C94.7046 109.46 95.3913 108.587 96.0846 108.04C96.7913 107.48 97.5579 107.2 98.3846 107.2C98.9713 107.2 99.4179 107.34 99.7246 107.62C100.031 107.9 100.185 108.3 100.185 108.82C100.185 108.993 100.165 109.187 100.125 109.4C100.098 109.613 100.045 109.873 99.9646 110.18C99.8846 110.473 99.7713 110.827 99.6246 111.24C99.4913 111.653 99.3246 112.16 99.1246 112.76C98.8179 113.667 98.5646 114.427 98.3646 115.04C98.1646 115.653 98.0646 116.087 98.0646 116.34C98.0646 116.54 98.1313 116.64 98.2646 116.64C98.4513 116.64 98.7246 116.487 99.0846 116.18C99.4446 115.873 99.9313 115.38 100.545 114.7L101.065 114.98C100.851 115.38 100.571 115.773 100.225 116.16C99.8913 116.533 99.5379 116.873 99.1646 117.18C98.8046 117.487 98.4446 117.733 98.0846 117.92C97.7246 118.107 97.4113 118.2 97.1446 118.2C96.8113 118.2 96.5446 118.053 96.3446 117.76C96.1579 117.467 96.0646 117.08 96.0646 116.6C96.0646 116.413 96.0779 116.227 96.1046 116.04C96.1446 115.84 96.2179 115.56 96.3246 115.2C96.4313 114.84 96.5846 114.36 96.7846 113.76C96.9979 113.147 97.2846 112.34 97.6446 111.34C97.7646 110.993 97.8646 110.7 97.9446 110.46C98.0246 110.22 98.0846 110.013 98.1246 109.84C98.1779 109.653 98.2113 109.493 98.2246 109.36C98.2513 109.227 98.2646 109.1 98.2646 108.98C98.2646 108.487 98.0846 108.24 97.7246 108.24ZM105.424 104.18C105.49 103.94 105.557 103.7 105.624 103.46C105.69 103.207 105.724 103.02 105.724 102.9C105.724 102.433 105.217 102.2 104.204 102.2L104.364 101.6L108.024 101.42L104.444 114.56C104.337 114.92 104.257 115.24 104.204 115.52C104.15 115.787 104.124 116.013 104.124 116.2C104.124 116.32 104.157 116.427 104.224 116.52C104.29 116.613 104.397 116.66 104.544 116.66C104.757 116.66 104.984 116.573 105.224 116.4C105.464 116.213 105.69 116 105.904 115.76C106.13 115.507 106.33 115.253 106.504 115C106.677 114.733 106.804 114.527 106.884 114.38L107.484 114.72C107.284 115.173 107.024 115.613 106.704 116.04C106.384 116.453 106.044 116.82 105.684 117.14C105.324 117.46 104.957 117.72 104.584 117.92C104.224 118.107 103.89 118.2 103.584 118.2C103.117 118.2 102.77 118.1 102.544 117.9C102.33 117.7 102.224 117.367 102.224 116.9C102.224 116.633 102.264 116.273 102.344 115.82C102.424 115.367 102.564 114.747 102.764 113.96L105.424 104.18ZM110.653 111.4C110.84 110.88 110.973 110.46 111.053 110.14C111.133 109.82 111.173 109.567 111.173 109.38C111.173 109.193 111.14 109.073 111.073 109.02C111.02 108.953 110.96 108.92 110.893 108.92C110.747 108.92 110.587 108.993 110.413 109.14C110.24 109.273 110.067 109.433 109.893 109.62C109.72 109.807 109.567 109.993 109.433 110.18C109.3 110.367 109.207 110.513 109.153 110.62L108.573 110.26C108.733 109.967 108.953 109.64 109.233 109.28C109.527 108.92 109.853 108.587 110.213 108.28C110.573 107.973 110.947 107.72 111.333 107.52C111.72 107.307 112.087 107.2 112.433 107.2C112.767 107.2 113.013 107.3 113.173 107.5C113.347 107.687 113.433 108.033 113.433 108.54C113.433 108.927 113.313 109.447 113.073 110.1C112.847 110.753 112.547 111.593 112.173 112.62L111.433 114.64C111.407 114.707 111.367 114.813 111.313 114.96C111.273 115.093 111.227 115.24 111.173 115.4C111.133 115.547 111.093 115.693 111.053 115.84C111.027 115.987 111.013 116.107 111.013 116.2C111.013 116.32 111.047 116.427 111.113 116.52C111.18 116.613 111.287 116.66 111.433 116.66C111.633 116.66 111.84 116.58 112.053 116.42C112.267 116.247 112.473 116.047 112.673 115.82C112.873 115.593 113.053 115.367 113.213 115.14C113.373 114.9 113.493 114.713 113.573 114.58L114.173 114.92C114.013 115.24 113.793 115.593 113.513 115.98C113.247 116.367 112.94 116.727 112.593 117.06C112.247 117.38 111.867 117.653 111.453 117.88C111.04 118.093 110.613 118.2 110.173 118.2C109.787 118.2 109.493 118.1 109.293 117.9C109.107 117.7 109.013 117.367 109.013 116.9C109.013 116.513 109.073 116.1 109.193 115.66C109.327 115.207 109.513 114.64 109.753 113.96L110.653 111.4ZM113.593 103.92C113.26 103.92 112.967 103.807 112.713 103.58C112.473 103.353 112.353 103.06 112.353 102.7C112.353 102.34 112.473 102.033 112.713 101.78C112.953 101.527 113.247 101.4 113.593 101.4C113.967 101.4 114.273 101.527 114.513 101.78C114.753 102.033 114.873 102.333 114.873 102.68C114.873 103.027 114.747 103.32 114.493 103.56C114.24 103.8 113.94 103.92 113.593 103.92ZM123.408 108.24C123.088 108.24 122.722 108.407 122.308 108.74C121.908 109.06 121.495 109.493 121.068 110.04C120.655 110.573 120.255 111.187 119.868 111.88C119.482 112.573 119.155 113.28 118.888 114L117.408 118H115.648L117.128 113.42C117.368 112.687 117.568 112.06 117.728 111.54C117.888 111.02 118.015 110.587 118.108 110.24C118.215 109.88 118.288 109.593 118.328 109.38C118.368 109.153 118.388 108.973 118.388 108.84C118.388 108.48 118.275 108.3 118.048 108.3C117.902 108.3 117.728 108.393 117.528 108.58C117.328 108.767 117.122 109.013 116.908 109.32C116.708 109.613 116.515 109.953 116.328 110.34C116.142 110.727 115.982 111.12 115.848 111.52L115.248 111.22C115.715 109.847 116.235 108.833 116.808 108.18C117.395 107.527 118.062 107.2 118.808 107.2C119.235 107.2 119.535 107.32 119.708 107.56C119.895 107.8 119.988 108.207 119.988 108.78C119.988 109.46 119.875 110.067 119.648 110.6L119.708 110.66C120.388 109.46 121.075 108.587 121.768 108.04C122.475 107.48 123.242 107.2 124.068 107.2C124.655 107.2 125.102 107.34 125.408 107.62C125.715 107.9 125.868 108.3 125.868 108.82C125.868 108.993 125.848 109.187 125.808 109.4C125.782 109.613 125.728 109.873 125.648 110.18C125.568 110.473 125.455 110.827 125.308 111.24C125.175 111.653 125.008 112.16 124.808 112.76C124.502 113.667 124.248 114.427 124.048 115.04C123.848 115.653 123.748 116.087 123.748 116.34C123.748 116.54 123.815 116.64 123.948 116.64C124.135 116.64 124.408 116.487 124.768 116.18C125.128 115.873 125.615 115.38 126.228 114.7L126.748 114.98C126.535 115.38 126.255 115.773 125.908 116.16C125.575 116.533 125.222 116.873 124.848 117.18C124.488 117.487 124.128 117.733 123.768 117.92C123.408 118.107 123.095 118.2 122.828 118.2C122.495 118.2 122.228 118.053 122.028 117.76C121.842 117.467 121.748 117.08 121.748 116.6C121.748 116.413 121.762 116.227 121.788 116.04C121.828 115.84 121.902 115.56 122.008 115.2C122.115 114.84 122.268 114.36 122.468 113.76C122.682 113.147 122.968 112.34 123.328 111.34C123.448 110.993 123.548 110.7 123.628 110.46C123.708 110.22 123.768 110.013 123.808 109.84C123.862 109.653 123.895 109.493 123.908 109.36C123.935 109.227 123.948 109.1 123.948 108.98C123.948 108.487 123.768 108.24 123.408 108.24ZM134.867 115.34C133.707 117.247 132.281 118.2 130.587 118.2C129.667 118.2 128.961 117.92 128.467 117.36C127.974 116.787 127.727 115.98 127.727 114.94C127.727 114.02 127.914 113.1 128.287 112.18C128.674 111.26 129.174 110.433 129.787 109.7C130.401 108.953 131.087 108.353 131.847 107.9C132.607 107.433 133.367 107.2 134.127 107.2C134.767 107.2 135.287 107.367 135.687 107.7C136.101 108.02 136.307 108.433 136.307 108.94C136.307 109.407 136.134 109.887 135.787 110.38C135.441 110.873 134.967 111.34 134.367 111.78C133.781 112.22 133.087 112.62 132.287 112.98C131.501 113.34 130.661 113.62 129.767 113.82C129.741 114.007 129.721 114.193 129.707 114.38C129.694 114.553 129.687 114.733 129.687 114.92C129.687 116.373 130.201 117.1 131.227 117.1C131.721 117.1 132.227 116.907 132.747 116.52C133.281 116.133 133.774 115.6 134.227 114.92L134.867 115.34ZM133.727 108.14C133.381 108.14 133.021 108.273 132.647 108.54C132.274 108.807 131.914 109.167 131.567 109.62C131.234 110.06 130.927 110.567 130.647 111.14C130.367 111.713 130.141 112.307 129.967 112.92C130.607 112.747 131.201 112.52 131.747 112.24C132.294 111.96 132.761 111.647 133.147 111.3C133.547 110.94 133.861 110.567 134.087 110.18C134.314 109.78 134.427 109.38 134.427 108.98C134.427 108.42 134.194 108.14 133.727 108.14ZM153.236 102.9H153.836L152.996 106.84H152.316C152.276 105.627 152.056 104.753 151.656 104.22C151.256 103.687 150.63 103.42 149.776 103.42C149.363 103.42 148.983 103.48 148.636 103.6C148.29 103.707 147.99 103.867 147.736 104.08C147.496 104.293 147.303 104.547 147.156 104.84C147.023 105.12 146.956 105.427 146.956 105.76C146.956 106.24 147.09 106.667 147.356 107.04C147.623 107.413 147.956 107.767 148.356 108.1C148.77 108.42 149.21 108.747 149.676 109.08C150.156 109.413 150.596 109.78 150.996 110.18C151.41 110.58 151.75 111.033 152.016 111.54C152.283 112.047 152.416 112.64 152.416 113.32C152.416 114 152.283 114.64 152.016 115.24C151.75 115.827 151.383 116.34 150.916 116.78C150.463 117.22 149.93 117.567 149.316 117.82C148.703 118.073 148.043 118.2 147.336 118.2C145.883 118.2 144.61 117.627 143.516 116.48L143.096 118H142.396L143.236 112.92H143.896C143.99 114.293 144.33 115.34 144.916 116.06C145.503 116.78 146.316 117.14 147.356 117.14C147.836 117.14 148.276 117.073 148.676 116.94C149.076 116.793 149.416 116.6 149.696 116.36C149.99 116.107 150.216 115.813 150.376 115.48C150.55 115.133 150.636 114.76 150.636 114.36C150.636 113.8 150.496 113.307 150.216 112.88C149.936 112.453 149.59 112.053 149.176 111.68C148.763 111.307 148.31 110.947 147.816 110.6C147.323 110.253 146.87 109.887 146.456 109.5C146.043 109.1 145.696 108.667 145.416 108.2C145.136 107.72 144.996 107.173 144.996 106.56C144.996 105.987 145.116 105.447 145.356 104.94C145.61 104.433 145.95 103.993 146.376 103.62C146.803 103.247 147.303 102.953 147.876 102.74C148.45 102.513 149.063 102.4 149.716 102.4C150.343 102.4 150.903 102.507 151.396 102.72C151.89 102.933 152.37 103.273 152.836 103.74L153.236 102.9ZM157.136 116.76C157.349 116.76 157.629 116.613 157.976 116.32C158.323 116.013 158.689 115.613 159.076 115.12C159.463 114.613 159.836 114.04 160.196 113.4C160.569 112.76 160.883 112.093 161.136 111.4L162.616 107.4H164.476L162.996 111.98C162.783 112.647 162.603 113.22 162.456 113.7C162.309 114.167 162.189 114.567 162.096 114.9C162.003 115.22 161.936 115.487 161.896 115.7C161.856 115.9 161.836 116.06 161.836 116.18C161.836 116.527 161.956 116.7 162.196 116.7C162.329 116.7 162.489 116.64 162.676 116.52C162.863 116.387 163.049 116.213 163.236 116C163.436 115.773 163.623 115.527 163.796 115.26C163.983 114.98 164.143 114.687 164.276 114.38L164.876 114.68C164.703 115.12 164.476 115.553 164.196 115.98C163.916 116.393 163.609 116.767 163.276 117.1C162.956 117.433 162.616 117.7 162.256 117.9C161.896 118.1 161.543 118.2 161.196 118.2C160.783 118.2 160.503 118.053 160.356 117.76C160.209 117.467 160.136 117.047 160.136 116.5C160.136 116.273 160.143 116.033 160.156 115.78C160.183 115.513 160.223 115.253 160.276 115L160.216 114.94C159.856 115.58 159.503 116.107 159.156 116.52C158.823 116.933 158.496 117.267 158.176 117.52C157.856 117.773 157.543 117.947 157.236 118.04C156.929 118.147 156.629 118.2 156.336 118.2C155.709 118.2 155.269 118.027 155.016 117.68C154.776 117.333 154.656 116.907 154.656 116.4C154.656 115.84 154.763 115.227 154.976 114.56C155.189 113.88 155.416 113.24 155.656 112.64C155.896 112.04 156.096 111.533 156.256 111.12C156.429 110.707 156.563 110.36 156.656 110.08C156.763 109.8 156.836 109.573 156.876 109.4C156.929 109.227 156.956 109.087 156.956 108.98C156.956 108.927 156.943 108.88 156.916 108.84C156.903 108.787 156.856 108.76 156.776 108.76C156.603 108.76 156.349 108.913 156.016 109.22C155.696 109.527 155.256 110.02 154.696 110.7L154.176 110.42C154.376 110.033 154.629 109.647 154.936 109.26C155.243 108.873 155.569 108.527 155.916 108.22C156.263 107.913 156.623 107.667 156.996 107.48C157.369 107.293 157.716 107.2 158.036 107.2C158.703 107.2 159.036 107.587 159.036 108.36C159.036 108.827 158.903 109.433 158.636 110.18C158.383 110.913 158.049 111.793 157.636 112.82C157.369 113.473 157.149 114.06 156.976 114.58C156.803 115.1 156.716 115.573 156.716 116C156.716 116.28 156.756 116.48 156.836 116.6C156.916 116.707 157.016 116.76 157.136 116.76ZM165.911 110.5C166.405 109.94 166.958 109.44 167.571 109C168.185 108.547 168.831 108.18 169.511 107.9L170.451 104.7H171.971L171.271 107.36C171.485 107.32 171.691 107.287 171.891 107.26C172.105 107.233 172.318 107.22 172.531 107.22C173.665 107.22 174.545 107.527 175.171 108.14C175.798 108.753 176.111 109.613 176.111 110.72C176.111 111.6 175.898 112.433 175.471 113.22C175.058 113.993 174.498 114.687 173.791 115.3C173.098 115.913 172.291 116.427 171.371 116.84C170.465 117.24 169.518 117.507 168.531 117.64L167.791 120.42C167.725 120.62 167.678 120.787 167.651 120.92C167.638 121.053 167.631 121.173 167.631 121.28C167.631 121.613 167.765 121.847 168.031 121.98C168.311 122.113 168.798 122.187 169.491 122.2L169.371 123H163.711L163.831 122.2C164.391 122.2 164.798 122.133 165.051 122C165.305 121.867 165.485 121.627 165.591 121.28L169.211 108.92C168.705 109.187 168.218 109.507 167.751 109.88C167.285 110.24 166.851 110.633 166.451 111.06L165.911 110.5ZM172.011 108.2C171.838 108.2 171.665 108.213 171.491 108.24C171.331 108.253 171.171 108.273 171.011 108.3L168.751 116.78C169.418 116.647 170.065 116.4 170.691 116.04C171.331 115.68 171.898 115.233 172.391 114.7C172.885 114.167 173.278 113.573 173.571 112.92C173.878 112.253 174.031 111.56 174.031 110.84C174.031 110.04 173.845 109.4 173.471 108.92C173.111 108.44 172.625 108.2 172.011 108.2ZM177.181 110.5C177.674 109.94 178.228 109.44 178.841 109C179.454 108.547 180.101 108.18 180.781 107.9L181.721 104.7H183.241L182.541 107.36C182.754 107.32 182.961 107.287 183.161 107.26C183.374 107.233 183.588 107.22 183.801 107.22C184.934 107.22 185.814 107.527 186.441 108.14C187.068 108.753 187.381 109.613 187.381 110.72C187.381 111.6 187.168 112.433 186.741 113.22C186.328 113.993 185.768 114.687 185.061 115.3C184.368 115.913 183.561 116.427 182.641 116.84C181.734 117.24 180.788 117.507 179.801 117.64L179.061 120.42C178.994 120.62 178.948 120.787 178.921 120.92C178.908 121.053 178.901 121.173 178.901 121.28C178.901 121.613 179.034 121.847 179.301 121.98C179.581 122.113 180.068 122.187 180.761 122.2L180.641 123H174.981L175.101 122.2C175.661 122.2 176.068 122.133 176.321 122C176.574 121.867 176.754 121.627 176.861 121.28L180.481 108.92C179.974 109.187 179.488 109.507 179.021 109.88C178.554 110.24 178.121 110.633 177.721 111.06L177.181 110.5ZM183.281 108.2C183.108 108.2 182.934 108.213 182.761 108.24C182.601 108.253 182.441 108.273 182.281 108.3L180.021 116.78C180.688 116.647 181.334 116.4 181.961 116.04C182.601 115.68 183.168 115.233 183.661 114.7C184.154 114.167 184.548 113.573 184.841 112.92C185.148 112.253 185.301 111.56 185.301 110.84C185.301 110.04 185.114 109.4 184.741 108.92C184.381 108.44 183.894 108.2 183.281 108.2ZM191.89 118.2C191.437 118.2 191.01 118.113 190.61 117.94C190.224 117.753 189.884 117.487 189.59 117.14C189.297 116.793 189.064 116.373 188.89 115.88C188.717 115.373 188.63 114.807 188.63 114.18C188.63 113.313 188.79 112.46 189.11 111.62C189.444 110.78 189.877 110.033 190.41 109.38C190.944 108.727 191.55 108.2 192.23 107.8C192.924 107.4 193.637 107.2 194.37 107.2C194.85 107.2 195.29 107.293 195.69 107.48C196.104 107.653 196.45 107.913 196.73 108.26C197.024 108.593 197.25 109 197.41 109.48C197.584 109.947 197.67 110.467 197.67 111.04C197.67 111.88 197.504 112.727 197.17 113.58C196.837 114.433 196.397 115.2 195.85 115.88C195.317 116.56 194.704 117.12 194.01 117.56C193.317 117.987 192.61 118.2 191.89 118.2ZM192.01 117.2C192.464 117.2 192.91 116.967 193.35 116.5C193.804 116.033 194.204 115.447 194.55 114.74C194.91 114.02 195.197 113.24 195.41 112.4C195.637 111.56 195.75 110.76 195.75 110C195.75 109.293 195.624 108.807 195.37 108.54C195.13 108.273 194.797 108.14 194.37 108.14C194.077 108.14 193.777 108.247 193.47 108.46C193.177 108.66 192.897 108.94 192.63 109.3C192.364 109.66 192.11 110.073 191.87 110.54C191.644 111.007 191.444 111.5 191.27 112.02C191.097 112.54 190.964 113.073 190.87 113.62C190.777 114.153 190.73 114.667 190.73 115.16C190.73 115.907 190.85 116.433 191.09 116.74C191.33 117.047 191.637 117.2 192.01 117.2ZM199.039 110.18C199.186 109.847 199.406 109.507 199.699 109.16C200.006 108.8 200.332 108.48 200.679 108.2C201.039 107.907 201.399 107.667 201.759 107.48C202.119 107.293 202.432 107.2 202.699 107.2C203.019 107.2 203.252 107.32 203.399 107.56C203.546 107.8 203.619 108.187 203.619 108.72C203.619 108.933 203.606 109.14 203.579 109.34C203.566 109.54 203.532 109.773 203.479 110.04L203.539 110.1C203.699 109.713 203.926 109.333 204.219 108.96C204.512 108.587 204.826 108.26 205.159 107.98C205.506 107.687 205.852 107.453 206.199 107.28C206.559 107.093 206.892 107 207.199 107C207.586 107 207.906 107.127 208.159 107.38C208.426 107.62 208.559 107.92 208.559 108.28C208.559 108.627 208.446 108.913 208.219 109.14C208.006 109.367 207.726 109.48 207.379 109.48C207.166 109.48 206.992 109.44 206.859 109.36C206.739 109.28 206.632 109.2 206.539 109.12C206.446 109.027 206.359 108.94 206.279 108.86C206.199 108.78 206.099 108.74 205.979 108.74C205.726 108.74 205.432 108.913 205.099 109.26C204.766 109.593 204.419 110.053 204.059 110.64C203.699 111.227 203.339 111.913 202.979 112.7C202.632 113.487 202.312 114.333 202.019 115.24L201.119 118H199.259L200.559 113.86C200.812 113.06 201.019 112.4 201.179 111.88C201.352 111.347 201.486 110.907 201.579 110.56C201.672 110.2 201.732 109.92 201.759 109.72C201.799 109.52 201.819 109.347 201.819 109.2C201.819 108.907 201.719 108.76 201.519 108.76C201.386 108.76 201.219 108.813 201.019 108.92C200.832 109.027 200.646 109.16 200.459 109.32C200.272 109.48 200.092 109.66 199.919 109.86C199.759 110.06 199.639 110.253 199.559 110.44L199.039 110.18ZM212.577 109.06L210.917 114.56C210.69 115.28 210.57 115.827 210.557 116.2C210.557 116.32 210.584 116.427 210.637 116.52C210.704 116.613 210.81 116.66 210.957 116.66C211.197 116.66 211.45 116.573 211.717 116.4C211.984 116.213 212.237 116 212.477 115.76C212.73 115.507 212.95 115.253 213.137 115C213.337 114.733 213.484 114.527 213.577 114.38L214.157 114.72C213.93 115.173 213.644 115.613 213.297 116.04C212.95 116.453 212.584 116.82 212.197 117.14C211.81 117.46 211.417 117.72 211.017 117.92C210.63 118.107 210.277 118.2 209.957 118.2C209.49 118.2 209.15 118.1 208.937 117.9C208.737 117.7 208.637 117.367 208.637 116.9C208.637 116.633 208.684 116.273 208.777 115.82C208.87 115.367 209.03 114.747 209.257 113.96L210.737 109.06H209.017L209.277 108.14H211.017L212.057 104.7H213.897L212.857 108.14H215.037L214.757 109.06H212.577Z" fill="black"/>
<path d="M28.1005 157.112C27.0658 157.112 26.1218 156.872 25.2685 156.392C24.4152 155.901 23.7378 155.224 23.2365 154.36C22.7458 153.485 22.5005 152.504 22.5005 151.416C22.5005 150.328 22.7458 149.352 23.2365 148.488C23.7378 147.613 24.4152 146.936 25.2685 146.456C26.1218 145.965 27.0658 145.72 28.1005 145.72C29.1458 145.72 30.0952 145.965 30.9485 146.456C31.8018 146.936 32.4738 147.608 32.9645 148.472C33.4552 149.336 33.7005 150.317 33.7005 151.416C33.7005 152.515 33.4552 153.496 32.9645 154.36C32.4738 155.224 31.8018 155.901 30.9485 156.392C30.0952 156.872 29.1458 157.112 28.1005 157.112ZM28.1005 155.848C28.8792 155.848 29.5778 155.667 30.1965 155.304C30.8258 154.941 31.3165 154.424 31.6685 153.752C32.0312 153.08 32.2125 152.301 32.2125 151.416C32.2125 150.52 32.0312 149.741 31.6685 149.08C31.3165 148.408 30.8312 147.891 30.2125 147.528C29.5938 147.165 28.8898 146.984 28.1005 146.984C27.3112 146.984 26.6072 147.165 25.9885 147.528C25.3698 147.891 24.8792 148.408 24.5165 149.08C24.1645 149.741 23.9885 150.52 23.9885 151.416C23.9885 152.301 24.1645 153.08 24.5165 153.752C24.8792 154.424 25.3698 154.941 25.9885 155.304C26.6178 155.667 27.3218 155.848 28.1005 155.848ZM39.8946 148.072C40.9613 148.072 41.8253 148.397 42.4866 149.048C43.148 149.688 43.4786 150.616 43.4786 151.832V157H42.0386V152.04C42.0386 151.165 41.82 150.499 41.3826 150.04C40.9453 149.571 40.348 149.336 39.5906 149.336C38.8226 149.336 38.2093 149.576 37.7506 150.056C37.3026 150.536 37.0786 151.235 37.0786 152.152V157H35.6226V148.232H37.0786V149.48C37.3666 149.032 37.756 148.685 38.2466 148.44C38.748 148.195 39.2973 148.072 39.8946 148.072ZM47.313 145.16V157H45.857V145.16H47.313ZM50.5465 146.808C50.2692 146.808 50.0345 146.712 49.8425 146.52C49.6505 146.328 49.5545 146.093 49.5545 145.816C49.5545 145.539 49.6505 145.304 49.8425 145.112C50.0345 144.92 50.2692 144.824 50.5465 144.824C50.8132 144.824 51.0372 144.92 51.2185 145.112C51.4105 145.304 51.5065 145.539 51.5065 145.816C51.5065 146.093 51.4105 146.328 51.2185 146.52C51.0372 146.712 50.8132 146.808 50.5465 146.808ZM51.2505 148.232V157H49.7945V148.232H51.2505ZM58.004 148.072C59.0707 148.072 59.9347 148.397 60.596 149.048C61.2573 149.688 61.588 150.616 61.588 151.832V157H60.148V152.04C60.148 151.165 59.9293 150.499 59.492 150.04C59.0547 149.571 58.4573 149.336 57.7 149.336C56.932 149.336 56.3187 149.576 55.86 150.056C55.412 150.536 55.188 151.235 55.188 152.152V157H53.732V148.232H55.188V149.48C55.476 149.032 55.8653 148.685 56.356 148.44C56.8573 148.195 57.4067 148.072 58.004 148.072ZM71.9664 152.28C71.9664 152.557 71.9504 152.851 71.9184 153.16H64.9104C64.9637 154.024 65.257 154.701 65.7904 155.192C66.3344 155.672 66.9904 155.912 67.7584 155.912C68.3877 155.912 68.9104 155.768 69.3264 155.48C69.753 155.181 70.0517 154.787 70.2224 154.296H71.7904C71.5557 155.139 71.0864 155.827 70.3824 156.36C69.6784 156.883 68.8037 157.144 67.7584 157.144C66.9264 157.144 66.1797 156.957 65.5184 156.584C64.8677 156.211 64.3557 155.683 63.9824 155C63.609 154.307 63.4224 153.507 63.4224 152.6C63.4224 151.693 63.6037 150.899 63.9664 150.216C64.329 149.533 64.8357 149.011 65.4864 148.648C66.1477 148.275 66.905 148.088 67.7584 148.088C68.5904 148.088 69.3264 148.269 69.9664 148.632C70.6064 148.995 71.097 149.496 71.4384 150.136C71.7904 150.765 71.9664 151.48 71.9664 152.28ZM70.4624 151.976C70.4624 151.421 70.3397 150.947 70.0944 150.552C69.849 150.147 69.513 149.843 69.0864 149.64C68.6704 149.427 68.2064 149.32 67.6944 149.32C66.9584 149.32 66.329 149.555 65.8064 150.024C65.2944 150.493 65.001 151.144 64.9264 151.976H70.4624ZM81.6899 157.112C80.9539 157.112 80.2925 156.984 79.7059 156.728C79.1299 156.461 78.6765 156.099 78.3459 155.64C78.0152 155.171 77.8445 154.632 77.8339 154.024H79.3859C79.4392 154.547 79.6525 154.989 80.0259 155.352C80.4099 155.704 80.9645 155.88 81.6899 155.88C82.3832 155.88 82.9272 155.709 83.3219 155.368C83.7272 155.016 83.9299 154.568 83.9299 154.024C83.9299 153.597 83.8125 153.251 83.5779 152.984C83.3432 152.717 83.0499 152.515 82.6979 152.376C82.3459 152.237 81.8712 152.088 81.2739 151.928C80.5379 151.736 79.9459 151.544 79.4979 151.352C79.0605 151.16 78.6819 150.861 78.3619 150.456C78.0525 150.04 77.8979 149.485 77.8979 148.792C77.8979 148.184 78.0525 147.645 78.3619 147.176C78.6712 146.707 79.1032 146.344 79.6579 146.088C80.2232 145.832 80.8685 145.704 81.5939 145.704C82.6392 145.704 83.4925 145.965 84.1539 146.488C84.8259 147.011 85.2045 147.704 85.2899 148.568H83.6899C83.6365 148.141 83.4125 147.768 83.0179 147.448C82.6232 147.117 82.1005 146.952 81.4499 146.952C80.8419 146.952 80.3459 147.112 79.9619 147.432C79.5779 147.741 79.3859 148.179 79.3859 148.744C79.3859 149.149 79.4979 149.48 79.7219 149.736C79.9565 149.992 80.2392 150.189 80.5699 150.328C80.9112 150.456 81.3859 150.605 81.9939 150.776C82.7299 150.979 83.3219 151.181 83.7699 151.384C84.2179 151.576 84.6019 151.88 84.9219 152.296C85.2419 152.701 85.4019 153.256 85.4019 153.96C85.4019 154.504 85.2579 155.016 84.9699 155.496C84.6819 155.976 84.2552 156.365 83.6899 156.664C83.1245 156.963 82.4579 157.112 81.6899 157.112ZM95.3205 148.232V157H93.8645V155.704C93.5872 156.152 93.1978 156.504 92.6965 156.76C92.2058 157.005 91.6618 157.128 91.0645 157.128C90.3818 157.128 89.7685 156.989 89.2245 156.712C88.6805 156.424 88.2485 155.997 87.9285 155.432C87.6192 154.867 87.4645 154.179 87.4645 153.368V148.232H88.9045V153.176C88.9045 154.04 89.1232 154.707 89.5605 155.176C89.9978 155.635 90.5952 155.864 91.3525 155.864C92.1312 155.864 92.7445 155.624 93.1925 155.144C93.6405 154.664 93.8645 153.965 93.8645 153.048V148.232H95.3205ZM99.2349 149.848C99.5229 149.347 99.9495 148.931 100.515 148.6C101.091 148.259 101.758 148.088 102.515 148.088C103.294 148.088 103.998 148.275 104.627 148.648C105.267 149.021 105.768 149.549 106.131 150.232C106.494 150.904 106.675 151.688 106.675 152.584C106.675 153.469 106.494 154.259 106.131 154.952C105.768 155.645 105.267 156.184 104.627 156.568C103.998 156.952 103.294 157.144 102.515 157.144C101.768 157.144 101.107 156.979 100.531 156.648C99.9655 156.307 99.5335 155.885 99.2349 155.384V161.16H97.7789V148.232H99.2349V149.848ZM105.187 152.584C105.187 151.923 105.054 151.347 104.787 150.856C104.52 150.365 104.158 149.992 103.699 149.736C103.251 149.48 102.755 149.352 102.211 149.352C101.678 149.352 101.182 149.485 100.723 149.752C100.275 150.008 99.9122 150.387 99.6349 150.888C99.3682 151.379 99.2349 151.949 99.2349 152.6C99.2349 153.261 99.3682 153.843 99.6349 154.344C99.9122 154.835 100.275 155.213 100.723 155.48C101.182 155.736 101.678 155.864 102.211 155.864C102.755 155.864 103.251 155.736 103.699 155.48C104.158 155.213 104.52 154.835 104.787 154.344C105.054 153.843 105.187 153.256 105.187 152.584ZM110.047 149.848C110.335 149.347 110.762 148.931 111.327 148.6C111.903 148.259 112.57 148.088 113.327 148.088C114.106 148.088 114.81 148.275 115.439 148.648C116.079 149.021 116.581 149.549 116.943 150.232C117.306 150.904 117.487 151.688 117.487 152.584C117.487 153.469 117.306 154.259 116.943 154.952C116.581 155.645 116.079 156.184 115.439 156.568C114.81 156.952 114.106 157.144 113.327 157.144C112.581 157.144 111.919 156.979 111.343 156.648C110.778 156.307 110.346 155.885 110.047 155.384V161.16H108.591V148.232H110.047V149.848ZM115.999 152.584C115.999 151.923 115.866 151.347 115.599 150.856C115.333 150.365 114.97 149.992 114.511 149.736C114.063 149.48 113.567 149.352 113.023 149.352C112.49 149.352 111.994 149.485 111.535 149.752C111.087 150.008 110.725 150.387 110.447 150.888C110.181 151.379 110.047 151.949 110.047 152.6C110.047 153.261 110.181 153.843 110.447 154.344C110.725 154.835 111.087 155.213 111.535 155.48C111.994 155.736 112.49 155.864 113.023 155.864C113.567 155.864 114.063 155.736 114.511 155.48C114.97 155.213 115.333 154.835 115.599 154.344C115.866 153.843 115.999 153.256 115.999 152.584ZM123.228 157.144C122.407 157.144 121.66 156.957 120.988 156.584C120.327 156.211 119.804 155.683 119.42 155C119.047 154.307 118.86 153.507 118.86 152.6C118.86 151.704 119.052 150.915 119.436 150.232C119.831 149.539 120.364 149.011 121.036 148.648C121.708 148.275 122.46 148.088 123.292 148.088C124.124 148.088 124.876 148.275 125.548 148.648C126.22 149.011 126.748 149.533 127.132 150.216C127.527 150.899 127.724 151.693 127.724 152.6C127.724 153.507 127.521 154.307 127.116 155C126.721 155.683 126.183 156.211 125.5 156.584C124.817 156.957 124.06 157.144 123.228 157.144ZM123.228 155.864C123.751 155.864 124.241 155.741 124.7 155.496C125.159 155.251 125.527 154.883 125.804 154.392C126.092 153.901 126.236 153.304 126.236 152.6C126.236 151.896 126.097 151.299 125.82 150.808C125.543 150.317 125.18 149.955 124.732 149.72C124.284 149.475 123.799 149.352 123.276 149.352C122.743 149.352 122.252 149.475 121.804 149.72C121.367 149.955 121.015 150.317 120.748 150.808C120.481 151.299 120.348 151.896 120.348 152.6C120.348 153.315 120.476 153.917 120.732 154.408C120.999 154.899 121.351 155.267 121.788 155.512C122.225 155.747 122.705 155.864 123.228 155.864ZM131.094 149.656C131.35 149.155 131.713 148.765 132.182 148.488C132.662 148.211 133.244 148.072 133.926 148.072V149.576H133.542C131.91 149.576 131.094 150.461 131.094 152.232V157H129.638V148.232H131.094V149.656ZM137.383 149.432V154.6C137.383 155.027 137.474 155.331 137.655 155.512C137.836 155.683 138.151 155.768 138.599 155.768H139.671V157H138.359C137.548 157 136.94 156.813 136.535 156.44C136.13 156.067 135.927 155.453 135.927 154.6V149.432H134.791V148.232H135.927V146.024H137.383V148.232H139.671V149.432H137.383ZM141.019 155.832C142.374 154.744 143.435 153.853 144.203 153.16C144.971 152.456 145.616 151.725 146.139 150.968C146.672 150.2 146.939 149.448 146.939 148.712C146.939 148.019 146.768 147.475 146.427 147.08C146.096 146.675 145.558 146.472 144.811 146.472C144.086 146.472 143.52 146.701 143.115 147.16C142.72 147.608 142.507 148.211 142.475 148.968H141.067C141.11 147.773 141.472 146.851 142.155 146.2C142.838 145.549 143.718 145.224 144.795 145.224C145.894 145.224 146.763 145.528 147.403 146.136C148.054 146.744 148.379 147.581 148.379 148.648C148.379 149.533 148.112 150.397 147.579 151.24C147.056 152.072 146.459 152.808 145.787 153.448C145.115 154.077 144.256 154.813 143.211 155.656H148.715V156.872H141.019V155.832ZM150.046 154.424V153.32L155.662 145.544H157.406V153.16H159.006V154.424H157.406V157H155.966V154.424H150.046ZM156.03 147.064L151.726 153.16H156.03V147.064ZM169.318 148.072C169.98 148.072 170.577 148.216 171.11 148.504C171.644 148.781 172.06 149.203 172.358 149.768C172.668 150.333 172.822 151.021 172.822 151.832V157H171.382V152.04C171.382 151.165 171.164 150.499 170.726 150.04C170.289 149.571 169.692 149.336 168.934 149.336C168.166 149.336 167.553 149.576 167.094 150.056C166.646 150.536 166.422 151.235 166.422 152.152V157H164.966V145.16H166.422V149.48C166.71 149.032 167.105 148.685 167.606 148.44C168.118 148.195 168.689 148.072 169.318 148.072ZM179.025 157.144C178.203 157.144 177.457 156.957 176.785 156.584C176.123 156.211 175.601 155.683 175.217 155C174.843 154.307 174.657 153.507 174.657 152.6C174.657 151.704 174.849 150.915 175.233 150.232C175.627 149.539 176.161 149.011 176.833 148.648C177.505 148.275 178.257 148.088 179.089 148.088C179.921 148.088 180.673 148.275 181.345 148.648C182.017 149.011 182.545 149.533 182.929 150.216C183.323 150.899 183.521 151.693 183.521 152.6C183.521 153.507 183.318 154.307 182.913 155C182.518 155.683 181.979 156.211 181.297 156.584C180.614 156.957 179.857 157.144 179.025 157.144ZM179.025 155.864C179.547 155.864 180.038 155.741 180.497 155.496C180.955 155.251 181.323 154.883 181.601 154.392C181.889 153.901 182.033 153.304 182.033 152.6C182.033 151.896 181.894 151.299 181.617 150.808C181.339 150.317 180.977 149.955 180.529 149.72C180.081 149.475 179.595 149.352 179.073 149.352C178.539 149.352 178.049 149.475 177.601 149.72C177.163 149.955 176.811 150.317 176.545 150.808C176.278 151.299 176.145 151.896 176.145 152.6C176.145 153.315 176.273 153.917 176.529 154.408C176.795 154.899 177.147 155.267 177.585 155.512C178.022 155.747 178.502 155.864 179.025 155.864ZM193.211 148.232V157H191.755V155.704C191.478 156.152 191.088 156.504 190.587 156.76C190.096 157.005 189.552 157.128 188.955 157.128C188.272 157.128 187.659 156.989 187.115 156.712C186.571 156.424 186.139 155.997 185.819 155.432C185.51 154.867 185.355 154.179 185.355 153.368V148.232H186.795V153.176C186.795 154.04 187.014 154.707 187.451 155.176C187.888 155.635 188.486 155.864 189.243 155.864C190.022 155.864 190.635 155.624 191.083 155.144C191.531 154.664 191.755 153.965 191.755 153.048V148.232H193.211ZM197.126 149.656C197.382 149.155 197.744 148.765 198.214 148.488C198.694 148.211 199.275 148.072 199.958 148.072V149.576H199.574C197.942 149.576 197.126 150.461 197.126 152.232V157H195.67V148.232H197.126V149.656ZM204.742 157.144C204.07 157.144 203.468 157.032 202.934 156.808C202.401 156.573 201.98 156.253 201.67 155.848C201.361 155.432 201.19 154.957 201.158 154.424H202.662C202.705 154.861 202.908 155.219 203.27 155.496C203.644 155.773 204.129 155.912 204.726 155.912C205.281 155.912 205.718 155.789 206.038 155.544C206.358 155.299 206.518 154.989 206.518 154.616C206.518 154.232 206.348 153.949 206.006 153.768C205.665 153.576 205.137 153.389 204.422 153.208C203.772 153.037 203.238 152.867 202.822 152.696C202.417 152.515 202.065 152.253 201.766 151.912C201.478 151.56 201.334 151.101 201.334 150.536C201.334 150.088 201.468 149.677 201.734 149.304C202.001 148.931 202.38 148.637 202.87 148.424C203.361 148.2 203.921 148.088 204.55 148.088C205.521 148.088 206.305 148.333 206.902 148.824C207.5 149.315 207.82 149.987 207.862 150.84H206.406C206.374 150.381 206.188 150.013 205.846 149.736C205.516 149.459 205.068 149.32 204.502 149.32C203.98 149.32 203.564 149.432 203.254 149.656C202.945 149.88 202.79 150.173 202.79 150.536C202.79 150.824 202.881 151.064 203.062 151.256C203.254 151.437 203.489 151.587 203.766 151.704C204.054 151.811 204.449 151.933 204.95 152.072C205.58 152.243 206.092 152.413 206.486 152.584C206.881 152.744 207.217 152.989 207.494 153.32C207.782 153.651 207.932 154.083 207.942 154.616C207.942 155.096 207.809 155.528 207.542 155.912C207.276 156.296 206.897 156.6 206.406 156.824C205.926 157.037 205.372 157.144 204.742 157.144ZM213.719 152.584C213.719 151.688 213.901 150.904 214.263 150.232C214.626 149.549 215.122 149.021 215.751 148.648C216.391 148.275 217.101 148.088 217.879 148.088C218.647 148.088 219.314 148.253 219.879 148.584C220.445 148.915 220.866 149.331 221.143 149.832V148.232H222.615V157H221.143V155.368C220.855 155.88 220.423 156.307 219.847 156.648C219.282 156.979 218.621 157.144 217.863 157.144C217.085 157.144 216.381 156.952 215.751 156.568C215.122 156.184 214.626 155.645 214.263 154.952C213.901 154.259 213.719 153.469 213.719 152.584ZM221.143 152.6C221.143 151.939 221.01 151.363 220.743 150.872C220.477 150.381 220.114 150.008 219.655 149.752C219.207 149.485 218.711 149.352 218.167 149.352C217.623 149.352 217.127 149.48 216.679 149.736C216.231 149.992 215.874 150.365 215.607 150.856C215.341 151.347 215.207 151.923 215.207 152.584C215.207 153.256 215.341 153.843 215.607 154.344C215.874 154.835 216.231 155.213 216.679 155.48C217.127 155.736 217.623 155.864 218.167 155.864C218.711 155.864 219.207 155.736 219.655 155.48C220.114 155.213 220.477 154.835 220.743 154.344C221.01 153.843 221.143 153.261 221.143 152.6ZM228.797 152.584C228.797 151.688 228.979 150.904 229.341 150.232C229.704 149.549 230.2 149.021 230.829 148.648C231.469 148.275 232.184 148.088 232.973 148.088C233.656 148.088 234.291 148.248 234.877 148.568C235.464 148.877 235.912 149.288 236.221 149.8V145.16H237.693V157H236.221V155.352C235.933 155.875 235.507 156.307 234.941 156.648C234.376 156.979 233.715 157.144 232.957 157.144C232.179 157.144 231.469 156.952 230.829 156.568C230.2 156.184 229.704 155.645 229.341 154.952C228.979 154.259 228.797 153.469 228.797 152.584ZM236.221 152.6C236.221 151.939 236.088 151.363 235.821 150.872C235.555 150.381 235.192 150.008 234.733 149.752C234.285 149.485 233.789 149.352 233.245 149.352C232.701 149.352 232.205 149.48 231.757 149.736C231.309 149.992 230.952 150.365 230.685 150.856C230.419 151.347 230.285 151.923 230.285 152.584C230.285 153.256 230.419 153.843 230.685 154.344C230.952 154.835 231.309 155.213 231.757 155.48C232.205 155.736 232.701 155.864 233.245 155.864C233.789 155.864 234.285 155.736 234.733 155.48C235.192 155.213 235.555 154.835 235.821 154.344C236.088 153.843 236.221 153.261 236.221 152.6ZM239.61 152.584C239.61 151.688 239.791 150.904 240.154 150.232C240.517 149.549 241.013 149.021 241.642 148.648C242.282 148.275 242.991 148.088 243.77 148.088C244.538 148.088 245.205 148.253 245.77 148.584C246.335 148.915 246.757 149.331 247.034 149.832V148.232H248.506V157H247.034V155.368C246.746 155.88 246.314 156.307 245.738 156.648C245.173 156.979 244.511 157.144 243.754 157.144C242.975 157.144 242.271 156.952 241.642 156.568C241.013 156.184 240.517 155.645 240.154 154.952C239.791 154.259 239.61 153.469 239.61 152.584ZM247.034 152.6C247.034 151.939 246.901 151.363 246.634 150.872C246.367 150.381 246.005 150.008 245.546 149.752C245.098 149.485 244.602 149.352 244.058 149.352C243.514 149.352 243.018 149.48 242.57 149.736C242.122 149.992 241.765 150.365 241.498 150.856C241.231 151.347 241.098 151.923 241.098 152.584C241.098 153.256 241.231 153.843 241.498 154.344C241.765 154.835 242.122 155.213 242.57 155.48C243.018 155.736 243.514 155.864 244.058 155.864C244.602 155.864 245.098 155.736 245.546 155.48C246.005 155.213 246.367 154.835 246.634 154.344C246.901 153.843 247.034 153.261 247.034 152.6ZM258.518 148.232L253.238 161.128H251.734L253.462 156.904L249.926 148.232H251.542L254.294 155.336L257.014 148.232H258.518ZM261.486 154.984L259.694 159.288H258.718L259.886 154.984H261.486ZM95.8386 172.568L91.3906 183H89.9186L94.4306 172.712H88.2546V171.464H95.8386V172.568ZM101.415 178.584C101.415 177.688 101.596 176.904 101.959 176.232C102.321 175.549 102.817 175.021 103.447 174.648C104.087 174.275 104.801 174.088 105.591 174.088C106.273 174.088 106.908 174.248 107.495 174.568C108.081 174.877 108.529 175.288 108.839 175.8V171.16H110.311V183H108.839V181.352C108.551 181.875 108.124 182.307 107.559 182.648C106.993 182.979 106.332 183.144 105.575 183.144C104.796 183.144 104.087 182.952 103.447 182.568C102.817 182.184 102.321 181.645 101.959 180.952C101.596 180.259 101.415 179.469 101.415 178.584ZM108.839 178.6C108.839 177.939 108.705 177.363 108.439 176.872C108.172 176.381 107.809 176.008 107.351 175.752C106.903 175.485 106.407 175.352 105.863 175.352C105.319 175.352 104.823 175.48 104.375 175.736C103.927 175.992 103.569 176.365 103.303 176.856C103.036 177.347 102.903 177.923 102.903 178.584C102.903 179.256 103.036 179.843 103.303 180.344C103.569 180.835 103.927 181.213 104.375 181.48C104.823 181.736 105.319 181.864 105.863 181.864C106.407 181.864 106.903 181.736 107.351 181.48C107.809 181.213 108.172 180.835 108.439 180.344C108.705 179.843 108.839 179.261 108.839 178.6ZM112.227 178.584C112.227 177.688 112.408 176.904 112.771 176.232C113.134 175.549 113.63 175.021 114.259 174.648C114.899 174.275 115.608 174.088 116.387 174.088C117.155 174.088 117.822 174.253 118.387 174.584C118.952 174.915 119.374 175.331 119.651 175.832V174.232H121.123V183H119.651V181.368C119.363 181.88 118.931 182.307 118.355 182.648C117.79 182.979 117.128 183.144 116.371 183.144C115.592 183.144 114.888 182.952 114.259 182.568C113.63 182.184 113.134 181.645 112.771 180.952C112.408 180.259 112.227 179.469 112.227 178.584ZM119.651 178.6C119.651 177.939 119.518 177.363 119.251 176.872C118.984 176.381 118.622 176.008 118.163 175.752C117.715 175.485 117.219 175.352 116.675 175.352C116.131 175.352 115.635 175.48 115.187 175.736C114.739 175.992 114.382 176.365 114.115 176.856C113.848 177.347 113.715 177.923 113.715 178.584C113.715 179.256 113.848 179.843 114.115 180.344C114.382 180.835 114.739 181.213 115.187 181.48C115.635 181.736 116.131 181.864 116.675 181.864C117.219 181.864 117.715 181.736 118.163 181.48C118.622 181.213 118.984 180.835 119.251 180.344C119.518 179.843 119.651 179.261 119.651 178.6ZM131.136 174.232L125.856 187.128H124.352L126.08 182.904L122.544 174.232H124.16L126.912 181.336L129.632 174.232H131.136ZM135.703 183.144C135.031 183.144 134.429 183.032 133.895 182.808C133.362 182.573 132.941 182.253 132.631 181.848C132.322 181.432 132.151 180.957 132.119 180.424H133.623C133.666 180.861 133.869 181.219 134.231 181.496C134.605 181.773 135.09 181.912 135.687 181.912C136.242 181.912 136.679 181.789 136.999 181.544C137.319 181.299 137.479 180.989 137.479 180.616C137.479 180.232 137.309 179.949 136.967 179.768C136.626 179.576 136.098 179.389 135.383 179.208C134.733 179.037 134.199 178.867 133.783 178.696C133.378 178.515 133.026 178.253 132.727 177.912C132.439 177.56 132.295 177.101 132.295 176.536C132.295 176.088 132.429 175.677 132.695 175.304C132.962 174.931 133.341 174.637 133.831 174.424C134.322 174.2 134.882 174.088 135.511 174.088C136.482 174.088 137.266 174.333 137.863 174.824C138.461 175.315 138.781 175.987 138.823 176.84H137.367C137.335 176.381 137.149 176.013 136.807 175.736C136.477 175.459 136.029 175.32 135.463 175.32C134.941 175.32 134.525 175.432 134.215 175.656C133.906 175.88 133.751 176.173 133.751 176.536C133.751 176.824 133.842 177.064 134.023 177.256C134.215 177.437 134.45 177.587 134.727 177.704C135.015 177.811 135.41 177.933 135.911 178.072C136.541 178.243 137.053 178.413 137.447 178.584C137.842 178.744 138.178 178.989 138.455 179.32C138.743 179.651 138.893 180.083 138.903 180.616C138.903 181.096 138.77 181.528 138.503 181.912C138.237 182.296 137.858 182.6 137.367 182.824C136.887 183.037 136.333 183.144 135.703 183.144ZM144.68 178.584C144.68 177.688 144.862 176.904 145.224 176.232C145.587 175.549 146.083 175.021 146.712 174.648C147.352 174.275 148.062 174.088 148.84 174.088C149.608 174.088 150.275 174.253 150.84 174.584C151.406 174.915 151.827 175.331 152.104 175.832V174.232H153.576V183H152.104V181.368C151.816 181.88 151.384 182.307 150.808 182.648C150.243 182.979 149.582 183.144 148.824 183.144C148.046 183.144 147.342 182.952 146.712 182.568C146.083 182.184 145.587 181.645 145.224 180.952C144.862 180.259 144.68 179.469 144.68 178.584ZM152.104 178.6C152.104 177.939 151.971 177.363 151.704 176.872C151.438 176.381 151.075 176.008 150.616 175.752C150.168 175.485 149.672 175.352 149.128 175.352C148.584 175.352 148.088 175.48 147.64 175.736C147.192 175.992 146.835 176.365 146.568 176.856C146.302 177.347 146.168 177.923 146.168 178.584C146.168 179.256 146.302 179.843 146.568 180.344C146.835 180.835 147.192 181.213 147.64 181.48C148.088 181.736 148.584 181.864 149.128 181.864C149.672 181.864 150.168 181.736 150.616 181.48C151.075 181.213 151.438 180.835 151.704 180.344C151.971 179.843 152.104 179.261 152.104 178.6ZM171.982 174.232L169.246 183H167.742L165.63 176.04L163.518 183H162.014L159.262 174.232H160.75L162.766 181.592L164.942 174.232H166.43L168.558 181.608L170.542 174.232H171.982ZM181.427 178.28C181.427 178.557 181.411 178.851 181.379 179.16H174.371C174.425 180.024 174.718 180.701 175.251 181.192C175.795 181.672 176.451 181.912 177.219 181.912C177.849 181.912 178.371 181.768 178.787 181.48C179.214 181.181 179.513 180.787 179.683 180.296H181.251C181.017 181.139 180.547 181.827 179.843 182.36C179.139 182.883 178.265 183.144 177.219 183.144C176.387 183.144 175.641 182.957 174.979 182.584C174.329 182.211 173.817 181.683 173.443 181C173.07 180.307 172.883 179.507 172.883 178.6C172.883 177.693 173.065 176.899 173.427 176.216C173.79 175.533 174.297 175.011 174.947 174.648C175.609 174.275 176.366 174.088 177.219 174.088C178.051 174.088 178.787 174.269 179.427 174.632C180.067 174.995 180.558 175.496 180.899 176.136C181.251 176.765 181.427 177.48 181.427 178.28ZM179.923 177.976C179.923 177.421 179.801 176.947 179.555 176.552C179.31 176.147 178.974 175.843 178.547 175.64C178.131 175.427 177.667 175.32 177.155 175.32C176.419 175.32 175.79 175.555 175.267 176.024C174.755 176.493 174.462 177.144 174.387 177.976H179.923ZM191.349 178.28C191.349 178.557 191.333 178.851 191.301 179.16H184.293C184.347 180.024 184.64 180.701 185.173 181.192C185.717 181.672 186.373 181.912 187.141 181.912C187.771 181.912 188.293 181.768 188.709 181.48C189.136 181.181 189.435 180.787 189.605 180.296H191.173C190.939 181.139 190.469 181.827 189.765 182.36C189.061 182.883 188.187 183.144 187.141 183.144C186.309 183.144 185.563 182.957 184.901 182.584C184.251 182.211 183.739 181.683 183.365 181C182.992 180.307 182.805 179.507 182.805 178.6C182.805 177.693 182.987 176.899 183.349 176.216C183.712 175.533 184.219 175.011 184.869 174.648C185.531 174.275 186.288 174.088 187.141 174.088C187.973 174.088 188.709 174.269 189.349 174.632C189.989 174.995 190.48 175.496 190.821 176.136C191.173 176.765 191.349 177.48 191.349 178.28ZM189.845 177.976C189.845 177.421 189.723 176.947 189.477 176.552C189.232 176.147 188.896 175.843 188.469 175.64C188.053 175.427 187.589 175.32 187.077 175.32C186.341 175.32 185.712 175.555 185.189 176.024C184.677 176.493 184.384 177.144 184.309 177.976H189.845ZM198.167 183L194.727 179.128V183H193.271V171.16H194.727V178.12L198.103 174.232H200.135L196.007 178.6L200.151 183H198.167Z" fill="black"/>
</svg>
