<svg width="289" height="190" viewBox="0 0 289 190" fill="none" xmlns="http://www.w3.org/2000/svg">
<mask id="mask0_1_541" style="mask-type:alpha" maskUnits="userSpaceOnUse" x="108" y="0" width="73" height="72">
<rect x="108.5" width="72" height="72" fill="#D9D9D9"/>
</mask>
<g mask="url(#mask0_1_541)">
<path d="M160.75 39.1667V20C160.75 19.8333 160.75 19.75 160.75 19.5833C160.75 19.5 160.75 19.5 160.75 19.4167C160.75 19.1667 160.667 18.9167 160.417 18.8333C160.333 18.75 160.333 18.5833 160.25 18.5L151.917 7C151.417 6.33333 150.667 6 149.917 6H141.417H134.917H126.417C125.583 6 124.833 6.41667 124.417 7L115.917 18.5C115.833 18.5833 115.75 18.6667 115.75 18.8333C115.583 19 115.5 19.1667 115.5 19.4167C115.5 19.5 115.5 19.5 115.5 19.5833C115.5 19.75 115.5 19.8333 115.5 20V51.3333C115.5 52.75 116.667 53.8333 118 53.8333H146.583C147.25 60.75 152.917 66 159.917 66C167.333 66 173.333 60 173.333 52.5833C173.417 45.4167 167.833 39.6667 160.75 39.1667ZM150.583 8L158.333 18.5833H146.25L142.583 7.66667H149.917C150.167 7.66667 150.417 7.83333 150.583 8ZM131.417 20.25H144.833V30.75L138.417 27.9167C138.333 27.8333 138.167 27.8333 138.083 27.8333C138 27.8333 137.833 27.8333 137.75 27.9167L131.333 30.75V20.25H131.417ZM140.75 7.66667L144.5 18.5833H131.75L135.417 7.66667H140.75ZM125.667 8C125.833 7.75 126.083 7.66667 126.333 7.66667H133.667L129.917 18.5833H117.917L125.667 8ZM117.167 51.3333V20.25H129.75V32C129.75 32.25 129.917 32.5833 130.167 32.6667C130.417 32.8333 130.667 32.8333 131 32.75L138.25 29.5833L145.5 32.75C145.583 32.8333 145.75 32.8333 145.833 32.8333C146 32.8333 146.167 32.75 146.25 32.6667C146.5 32.5 146.667 32.25 146.667 32V20.25H159.25V39.1667C159.167 39.1667 159.083 39.1667 159 39.1667C158.833 39.1667 158.583 39.1667 158.417 39.25C158.167 39.25 157.917 39.3333 157.667 39.3333C157.5 39.3333 157.25 39.4167 157.083 39.4167C156.833 39.5 156.583 39.5 156.417 39.5833C156.25 39.6667 156.083 39.6667 155.833 39.75C155.583 39.8333 155.417 39.9167 155.167 40C155 40.0833 154.833 40.1667 154.667 40.25C154.417 40.3333 154.25 40.4167 154 40.5833C153.833 40.6667 153.667 40.75 153.5 40.8333C153.25 40.9167 153.083 41.0833 152.917 41.1667C152.75 41.25 152.583 41.3333 152.5 41.5C152.333 41.6667 152.083 41.75 151.917 41.9167C151.75 42 151.667 42.1667 151.5 42.25C151.333 42.4167 151.167 42.5833 150.917 42.75C150.833 42.8333 150.667 43 150.583 43.0833C150.417 43.25 150.25 43.5 150.083 43.6667C150 43.75 149.833 43.9167 149.75 44C149.583 44.25 149.417 44.5 149.167 44.75C149.083 44.8333 149 44.9167 149 45C148.75 45.3333 148.583 45.6667 148.333 46.0833C148.333 46.1667 148.25 46.25 148.25 46.25C148.083 46.5833 147.917 46.8333 147.833 47.1667C147.75 47.3333 147.75 47.4167 147.667 47.5833C147.583 47.8333 147.5 48.0833 147.417 48.3333C147.333 48.5 147.333 48.6667 147.25 48.8333C147.167 49.0833 147.083 49.3333 147.083 49.5833C147.083 49.75 147 49.9167 147 50.1667C147 50.4167 146.917 50.6667 146.917 50.9167C146.917 51.0833 146.917 51.3333 146.833 51.5C146.833 51.6667 146.833 51.8333 146.833 52H118C117.5 52.1667 117.167 51.75 117.167 51.3333ZM159.917 64.3333C153.5 64.3333 148.333 59.3333 148.167 52.9167C148.167 52.8333 148.167 52.6667 148.167 52.5833C148.167 46.0833 153.417 40.8333 159.917 40.8333C166.417 40.8333 171.667 46.0833 171.667 52.5833C171.667 59.0833 166.417 64.3333 159.917 64.3333Z" fill="black"/>
<path d="M161.167 49.4162H157L159.917 47.1662C160.25 46.9162 160.333 46.3329 160.083 45.9995C159.833 45.6662 159.25 45.5829 158.917 45.8329L154.083 49.5829C153.833 49.7495 153.75 49.9995 153.75 50.2495C153.75 50.4995 153.917 50.7495 154.167 50.9162L159 53.8329C159.167 53.9162 159.25 53.9162 159.417 53.9162C159.667 53.9162 160 53.7495 160.167 53.4995C160.417 53.0829 160.25 52.5829 159.917 52.3329L157.583 50.9162H161.25C163.083 50.9162 164.583 52.4162 164.583 54.2495C164.583 56.0829 163.083 57.5829 161.25 57.5829H159.583C159.083 57.5829 158.75 57.9162 158.75 58.4162C158.75 58.9162 159.083 59.2495 159.583 59.2495H161.25C164 59.2495 166.25 56.9995 166.25 54.2495C166.25 51.4995 163.917 49.4162 161.167 49.4162Z" fill="black"/>
</g>
<path d="M79.0481 113.62C79.0481 113.18 78.9881 112.773 78.8681 112.4C78.7615 112.013 78.6081 111.68 78.4081 111.4C78.2081 111.12 77.9681 110.9 77.6881 110.74C77.4215 110.58 77.1281 110.5 76.8081 110.5C76.5815 110.5 76.3148 110.527 76.0081 110.58C75.7148 110.633 75.4548 110.66 75.2281 110.66C74.8015 110.66 74.5881 110.527 74.5881 110.26C74.5881 110.033 74.7215 109.873 74.9881 109.78C75.2548 109.673 75.5815 109.58 75.9681 109.5C76.3681 109.42 76.7948 109.32 77.2481 109.2C77.7148 109.08 78.1415 108.887 78.5281 108.62C78.9281 108.353 79.2615 107.987 79.5281 107.52C79.7948 107.053 79.9281 106.427 79.9281 105.64C79.9281 104.88 79.7815 104.32 79.4881 103.96C79.2081 103.6 78.7548 103.42 78.1281 103.42C77.4215 103.42 76.8481 103.613 76.4081 104C75.9681 104.387 75.7481 104.88 75.7481 105.48C75.7481 105.893 75.8548 106.213 76.0681 106.44C76.2948 106.667 76.6015 106.78 76.9881 106.78C76.8815 107.007 76.7015 107.193 76.4481 107.34C76.2081 107.473 75.9348 107.54 75.6281 107.54C75.1215 107.54 74.7081 107.373 74.3881 107.04C74.0815 106.693 73.9281 106.24 73.9281 105.68C73.9281 105.213 74.0348 104.78 74.2481 104.38C74.4748 103.98 74.7815 103.633 75.1681 103.34C75.5548 103.047 76.0148 102.82 76.5481 102.66C77.0815 102.487 77.6615 102.4 78.2881 102.4C79.4615 102.4 80.3948 102.68 81.0881 103.24C81.7815 103.787 82.1281 104.533 82.1281 105.48C82.1281 105.947 82.0348 106.407 81.8481 106.86C81.6615 107.3 81.4015 107.713 81.0681 108.1C80.7481 108.473 80.3681 108.8 79.9281 109.08C79.4881 109.347 79.0148 109.54 78.5081 109.66V109.78C79.4281 110.02 80.1415 110.453 80.6481 111.08C81.1548 111.693 81.4081 112.433 81.4081 113.3C81.4081 113.98 81.2481 114.62 80.9281 115.22C80.6215 115.807 80.1948 116.32 79.6481 116.76C79.1148 117.2 78.4815 117.553 77.7481 117.82C77.0281 118.073 76.2615 118.2 75.4481 118.2C74.8348 118.2 74.2748 118.127 73.7681 117.98C73.2615 117.82 72.8215 117.607 72.4481 117.34C72.0881 117.073 71.8081 116.753 71.6081 116.38C71.4081 115.993 71.3081 115.567 71.3081 115.1C71.3081 114.727 71.3748 114.373 71.5081 114.04C71.6415 113.693 71.8148 113.393 72.0281 113.14C72.2548 112.887 72.5148 112.687 72.8081 112.54C73.1148 112.393 73.4348 112.32 73.7681 112.32C74.1148 112.32 74.4148 112.4 74.6681 112.56C74.9215 112.72 75.0748 112.933 75.1281 113.2C74.8881 113.2 74.6548 113.26 74.4281 113.38C74.2148 113.487 74.0215 113.64 73.8481 113.84C73.6881 114.027 73.5548 114.247 73.4481 114.5C73.3548 114.753 73.3081 115.027 73.3081 115.32C73.3081 115.907 73.5081 116.36 73.9081 116.68C74.3081 117 74.8748 117.16 75.6081 117.16C76.1281 117.16 76.5948 117.08 77.0081 116.92C77.4348 116.747 77.7948 116.507 78.0881 116.2C78.3948 115.88 78.6281 115.507 78.7881 115.08C78.9615 114.64 79.0481 114.153 79.0481 113.62ZM88.3719 118.2C87.7985 118.2 87.2785 118.073 86.8119 117.82C86.3452 117.553 85.9452 117.187 85.6119 116.72C85.2785 116.253 85.0185 115.693 84.8319 115.04C84.6452 114.373 84.5519 113.64 84.5519 112.84C84.5519 111.56 84.7652 110.3 85.1919 109.06C85.6185 107.807 86.1785 106.687 86.8719 105.7C87.5785 104.713 88.3652 103.92 89.2319 103.32C90.1119 102.707 91.0052 102.4 91.9119 102.4C92.4852 102.4 93.0052 102.527 93.4719 102.78C93.9519 103.02 94.3585 103.367 94.6919 103.82C95.0252 104.26 95.2852 104.793 95.4719 105.42C95.6585 106.047 95.7519 106.74 95.7519 107.5C95.7519 108.34 95.6519 109.193 95.4519 110.06C95.2519 110.913 94.9719 111.74 94.6119 112.54C94.2652 113.327 93.8519 114.067 93.3719 114.76C92.8919 115.44 92.3785 116.04 91.8319 116.56C91.2852 117.067 90.7185 117.467 90.1319 117.76C89.5452 118.053 88.9585 118.2 88.3719 118.2ZM91.7119 103.44C91.3252 103.44 90.9319 103.593 90.5319 103.9C90.1452 104.207 89.7652 104.627 89.3919 105.16C89.0319 105.68 88.6919 106.3 88.3719 107.02C88.0519 107.727 87.7719 108.487 87.5319 109.3C87.3052 110.113 87.1185 110.96 86.9719 111.84C86.8385 112.707 86.7719 113.567 86.7719 114.42C86.7719 115.287 86.9319 115.96 87.2519 116.44C87.5719 116.907 88.0319 117.14 88.6319 117.14C89.0185 117.14 89.4052 116.987 89.7919 116.68C90.1785 116.373 90.5519 115.953 90.9119 115.42C91.2719 114.887 91.6119 114.267 91.9319 113.56C92.2519 112.84 92.5252 112.067 92.7519 111.24C92.9919 110.413 93.1785 109.56 93.3119 108.68C93.4452 107.787 93.5119 106.907 93.5119 106.04C93.5119 105.2 93.3585 104.56 93.0519 104.12C92.7452 103.667 92.2985 103.44 91.7119 103.44ZM105.105 102.6H110.525C111.445 102.6 112.338 102.713 113.205 102.94C114.071 103.153 114.858 103.553 115.565 104.14C116.325 104.767 116.878 105.513 117.225 106.38C117.571 107.233 117.745 108.127 117.745 109.06C117.745 109.66 117.671 110.267 117.525 110.88C117.391 111.48 117.198 112.067 116.945 112.64C116.705 113.2 116.411 113.733 116.065 114.24C115.731 114.733 115.365 115.18 114.965 115.58C114.031 116.5 112.998 117.133 111.865 117.48C110.731 117.827 109.518 118 108.225 118H101.225L101.445 117.2C101.871 117.2 102.225 117.173 102.505 117.12C102.798 117.067 103.038 116.96 103.225 116.8C103.425 116.627 103.591 116.387 103.725 116.08C103.871 115.773 104.011 115.36 104.145 114.84L106.445 106C106.471 105.907 106.505 105.787 106.545 105.64C106.598 105.493 106.651 105.333 106.705 105.16C106.758 104.987 106.798 104.82 106.825 104.66C106.865 104.5 106.885 104.36 106.885 104.24C106.885 104.04 106.825 103.887 106.705 103.78C106.598 103.673 106.458 103.593 106.285 103.54C106.125 103.473 105.945 103.433 105.745 103.42C105.558 103.407 105.385 103.4 105.225 103.4H104.845L105.105 102.6ZM106.545 113.38C106.438 113.78 106.351 114.113 106.285 114.38C106.218 114.633 106.165 114.847 106.125 115.02C106.098 115.18 106.078 115.307 106.065 115.4C106.051 115.493 106.045 115.573 106.045 115.64C106.045 116 106.118 116.28 106.265 116.48C106.425 116.667 106.611 116.813 106.825 116.92C107.038 117.013 107.258 117.073 107.485 117.1C107.711 117.113 107.898 117.12 108.045 117.12C108.911 117.12 109.698 117 110.405 116.76C111.111 116.52 111.738 116.193 112.285 115.78C112.831 115.353 113.298 114.867 113.685 114.32C114.085 113.773 114.411 113.193 114.665 112.58C114.931 111.967 115.125 111.347 115.245 110.72C115.365 110.08 115.425 109.46 115.425 108.86C115.425 107.18 114.971 105.887 114.065 104.98C113.171 104.06 111.938 103.6 110.365 103.6C109.978 103.6 109.665 103.66 109.425 103.78C109.198 103.887 109.025 104.167 108.905 104.62L106.545 113.38ZM125.046 108.24C124.54 108.24 124.013 108.473 123.466 108.94C122.933 109.407 122.446 109.993 122.006 110.7C121.566 111.393 121.206 112.147 120.926 112.96C120.646 113.76 120.506 114.507 120.506 115.2C120.506 115.68 120.606 116.067 120.806 116.36C121.006 116.64 121.28 116.78 121.626 116.78C121.933 116.78 122.253 116.66 122.586 116.42C122.92 116.167 123.24 115.84 123.546 115.44C123.866 115.027 124.166 114.56 124.446 114.04C124.726 113.52 124.973 112.987 125.186 112.44C125.4 111.88 125.566 111.333 125.686 110.8C125.806 110.267 125.866 109.787 125.866 109.36C125.866 109.013 125.793 108.74 125.646 108.54C125.5 108.34 125.3 108.24 125.046 108.24ZM127.106 107.4H128.766L127.626 110.46C127.44 110.967 127.253 111.507 127.066 112.08C126.893 112.653 126.733 113.207 126.586 113.74C126.453 114.273 126.346 114.76 126.266 115.2C126.186 115.64 126.146 115.967 126.146 116.18C126.146 116.567 126.273 116.76 126.526 116.76C126.713 116.76 126.98 116.567 127.326 116.18C127.686 115.793 128.086 115.293 128.526 114.68L129.046 115.1C128.486 116.087 127.88 116.853 127.226 117.4C126.586 117.933 125.966 118.2 125.366 118.2C125.06 118.2 124.82 118.087 124.646 117.86C124.486 117.62 124.406 117.233 124.406 116.7C124.406 116.58 124.406 116.44 124.406 116.28C124.42 116.12 124.44 115.907 124.466 115.64L124.386 115.62C124.186 115.993 123.946 116.34 123.666 116.66C123.4 116.967 123.106 117.24 122.786 117.48C122.466 117.707 122.133 117.88 121.786 118C121.44 118.133 121.1 118.2 120.766 118.2C120.086 118.2 119.553 117.947 119.166 117.44C118.793 116.92 118.606 116.207 118.606 115.3C118.606 114.38 118.8 113.44 119.186 112.48C119.573 111.52 120.073 110.653 120.686 109.88C121.3 109.093 121.98 108.453 122.726 107.96C123.473 107.453 124.206 107.2 124.926 107.2C125.366 107.2 125.726 107.307 126.006 107.52C126.286 107.72 126.513 108.053 126.686 108.52L127.106 107.4ZM132.837 112.16C132.624 111.067 132.404 110.313 132.177 109.9C131.964 109.473 131.737 109.26 131.497 109.26C131.244 109.26 131.011 109.453 130.797 109.84C130.597 110.213 130.391 110.813 130.177 111.64L129.437 111.44C129.571 110.827 129.744 110.26 129.957 109.74C130.184 109.22 130.424 108.773 130.677 108.4C130.944 108.013 131.224 107.72 131.517 107.52C131.811 107.307 132.104 107.2 132.397 107.2C132.651 107.2 132.864 107.293 133.037 107.48C133.224 107.667 133.411 108.013 133.597 108.52C133.757 108.947 133.931 109.513 134.117 110.22C134.317 110.913 134.511 111.713 134.697 112.62L135.377 115.84H135.457C135.711 115.52 135.964 115.16 136.217 114.76C136.484 114.347 136.724 113.92 136.937 113.48C137.151 113.027 137.324 112.573 137.457 112.12C137.591 111.653 137.657 111.22 137.657 110.82C137.657 110.687 137.651 110.52 137.637 110.32C137.624 110.107 137.604 109.893 137.577 109.68C137.564 109.467 137.551 109.267 137.537 109.08C137.524 108.88 137.517 108.72 137.517 108.6C137.517 108.12 137.637 107.767 137.877 107.54C138.117 107.313 138.371 107.2 138.637 107.2C138.984 107.2 139.237 107.347 139.397 107.64C139.557 107.933 139.637 108.273 139.637 108.66C139.637 109.207 139.491 109.907 139.197 110.76C138.904 111.613 138.517 112.533 138.037 113.52C137.557 114.493 137.004 115.493 136.377 116.52C135.751 117.533 135.104 118.467 134.437 119.32C133.424 120.64 132.484 121.613 131.617 122.24C130.764 122.88 129.964 123.2 129.217 123.2C128.657 123.2 128.217 123.047 127.897 122.74C127.564 122.433 127.397 122.06 127.397 121.62C127.397 121.287 127.491 121.013 127.677 120.8C127.864 120.6 128.111 120.5 128.417 120.5C128.684 120.5 128.884 120.573 129.017 120.72C129.137 120.88 129.237 121.053 129.317 121.24C129.397 121.44 129.484 121.613 129.577 121.76C129.657 121.92 129.791 122 129.977 122C130.231 122 130.551 121.86 130.937 121.58C131.324 121.3 131.711 120.947 132.097 120.52C132.484 120.107 132.844 119.653 133.177 119.16C133.524 118.667 133.771 118.207 133.917 117.78L132.837 112.16ZM141.45 110.26C141.45 109.82 141.53 109.413 141.69 109.04C141.863 108.667 142.097 108.347 142.39 108.08C142.683 107.8 143.03 107.587 143.43 107.44C143.843 107.28 144.29 107.2 144.77 107.2C145.41 107.2 145.943 107.36 146.37 107.68C146.797 108 147.01 108.413 147.01 108.92C147.01 109.2 146.93 109.42 146.77 109.58C146.623 109.74 146.417 109.82 146.15 109.82C145.843 109.82 145.623 109.733 145.49 109.56C145.357 109.373 145.243 109.173 145.15 108.96C145.057 108.733 144.957 108.527 144.85 108.34C144.743 108.153 144.563 108.06 144.31 108.06C144.017 108.06 143.77 108.187 143.57 108.44C143.37 108.693 143.27 109.007 143.27 109.38C143.27 109.82 143.397 110.233 143.65 110.62C143.917 110.993 144.21 111.387 144.53 111.8C144.85 112.213 145.137 112.667 145.39 113.16C145.657 113.653 145.79 114.233 145.79 114.9C145.79 115.353 145.69 115.78 145.49 116.18C145.303 116.58 145.043 116.933 144.71 117.24C144.39 117.533 144.017 117.767 143.59 117.94C143.163 118.113 142.723 118.2 142.27 118.2C141.47 118.2 140.83 118.027 140.35 117.68C139.883 117.333 139.65 116.88 139.65 116.32C139.65 115.933 139.737 115.633 139.91 115.42C140.097 115.193 140.343 115.08 140.65 115.08C141.223 115.08 141.55 115.473 141.63 116.26C141.67 116.687 141.737 116.973 141.83 117.12C141.937 117.253 142.143 117.32 142.45 117.32C142.93 117.32 143.31 117.18 143.59 116.9C143.87 116.607 144.01 116.207 144.01 115.7C144.01 115.167 143.877 114.693 143.61 114.28C143.343 113.867 143.05 113.467 142.73 113.08C142.41 112.68 142.117 112.26 141.85 111.82C141.583 111.38 141.45 110.86 141.45 110.26ZM157.695 113.86C157.562 114.327 157.455 114.74 157.375 115.1C157.308 115.46 157.275 115.727 157.275 115.9C157.275 116.7 158.035 117.1 159.555 117.1L159.335 118H152.695L152.915 117.2C153.555 117.2 154.075 117.013 154.475 116.64C154.875 116.253 155.188 115.647 155.415 114.82L157.775 106C157.948 105.36 158.035 104.86 158.035 104.5C158.035 104.3 158.002 104.133 157.935 104C157.868 103.867 157.755 103.76 157.595 103.68C157.435 103.587 157.222 103.52 156.955 103.48C156.688 103.44 156.355 103.413 155.955 103.4L156.175 102.6H161.735C163.335 102.6 164.595 102.907 165.515 103.52C166.435 104.12 166.895 104.96 166.895 106.04C166.895 106.587 166.788 107.087 166.575 107.54C166.375 107.993 166.082 108.4 165.695 108.76C165.308 109.12 164.842 109.427 164.295 109.68C163.762 109.933 163.168 110.127 162.515 110.26L163.995 113.92C164.275 114.6 164.522 115.153 164.735 115.58C164.962 116.007 165.195 116.34 165.435 116.58C165.675 116.82 165.942 116.987 166.235 117.08C166.542 117.16 166.915 117.2 167.355 117.2L167.135 118H163.335L160.395 110.5H158.635L157.695 113.86ZM158.895 109.48H159.875C160.568 109.48 161.208 109.4 161.795 109.24C162.395 109.08 162.902 108.853 163.315 108.56C163.742 108.253 164.075 107.88 164.315 107.44C164.555 107 164.675 106.493 164.675 105.92C164.675 105.12 164.428 104.52 163.935 104.12C163.442 103.707 162.722 103.5 161.775 103.5C161.508 103.5 161.282 103.527 161.095 103.58C160.922 103.62 160.768 103.7 160.635 103.82C160.515 103.94 160.408 104.107 160.315 104.32C160.222 104.52 160.135 104.78 160.055 105.1L158.895 109.48ZM175.514 115.34C174.354 117.247 172.927 118.2 171.234 118.2C170.314 118.2 169.607 117.92 169.114 117.36C168.62 116.787 168.374 115.98 168.374 114.94C168.374 114.02 168.56 113.1 168.934 112.18C169.32 111.26 169.82 110.433 170.434 109.7C171.047 108.953 171.734 108.353 172.494 107.9C173.254 107.433 174.014 107.2 174.774 107.2C175.414 107.2 175.934 107.367 176.334 107.7C176.747 108.02 176.954 108.433 176.954 108.94C176.954 109.407 176.78 109.887 176.434 110.38C176.087 110.873 175.614 111.34 175.014 111.78C174.427 112.22 173.734 112.62 172.934 112.98C172.147 113.34 171.307 113.62 170.414 113.82C170.387 114.007 170.367 114.193 170.354 114.38C170.34 114.553 170.334 114.733 170.334 114.92C170.334 116.373 170.847 117.1 171.874 117.1C172.367 117.1 172.874 116.907 173.394 116.52C173.927 116.133 174.42 115.6 174.874 114.92L175.514 115.34ZM174.374 108.14C174.027 108.14 173.667 108.273 173.294 108.54C172.92 108.807 172.56 109.167 172.214 109.62C171.88 110.06 171.574 110.567 171.294 111.14C171.014 111.713 170.787 112.307 170.614 112.92C171.254 112.747 171.847 112.52 172.394 112.24C172.94 111.96 173.407 111.647 173.794 111.3C174.194 110.94 174.507 110.567 174.734 110.18C174.96 109.78 175.074 109.38 175.074 108.98C175.074 108.42 174.84 108.14 174.374 108.14ZM181.915 109.06L180.255 114.56C180.028 115.28 179.908 115.827 179.895 116.2C179.895 116.32 179.922 116.427 179.975 116.52C180.042 116.613 180.148 116.66 180.295 116.66C180.535 116.66 180.788 116.573 181.055 116.4C181.322 116.213 181.575 116 181.815 115.76C182.068 115.507 182.288 115.253 182.475 115C182.675 114.733 182.822 114.527 182.915 114.38L183.495 114.72C183.268 115.173 182.982 115.613 182.635 116.04C182.288 116.453 181.922 116.82 181.535 117.14C181.148 117.46 180.755 117.72 180.355 117.92C179.968 118.107 179.615 118.2 179.295 118.2C178.828 118.2 178.488 118.1 178.275 117.9C178.075 117.7 177.975 117.367 177.975 116.9C177.975 116.633 178.022 116.273 178.115 115.82C178.208 115.367 178.368 114.747 178.595 113.96L180.075 109.06H178.355L178.615 108.14H180.355L181.395 104.7H183.235L182.195 108.14H184.375L184.095 109.06H181.915ZM187.9 116.76C188.113 116.76 188.393 116.613 188.74 116.32C189.086 116.013 189.453 115.613 189.84 115.12C190.226 114.613 190.6 114.04 190.96 113.4C191.333 112.76 191.646 112.093 191.9 111.4L193.38 107.4H195.24L193.76 111.98C193.546 112.647 193.366 113.22 193.22 113.7C193.073 114.167 192.953 114.567 192.86 114.9C192.766 115.22 192.7 115.487 192.66 115.7C192.62 115.9 192.6 116.06 192.6 116.18C192.6 116.527 192.72 116.7 192.96 116.7C193.093 116.7 193.253 116.64 193.44 116.52C193.626 116.387 193.813 116.213 194 116C194.2 115.773 194.386 115.527 194.56 115.26C194.746 114.98 194.906 114.687 195.04 114.38L195.64 114.68C195.466 115.12 195.24 115.553 194.96 115.98C194.68 116.393 194.373 116.767 194.04 117.1C193.72 117.433 193.38 117.7 193.02 117.9C192.66 118.1 192.306 118.2 191.96 118.2C191.546 118.2 191.266 118.053 191.12 117.76C190.973 117.467 190.9 117.047 190.9 116.5C190.9 116.273 190.906 116.033 190.92 115.78C190.946 115.513 190.986 115.253 191.04 115L190.98 114.94C190.62 115.58 190.266 116.107 189.92 116.52C189.586 116.933 189.26 117.267 188.94 117.52C188.62 117.773 188.306 117.947 188 118.04C187.693 118.147 187.393 118.2 187.1 118.2C186.473 118.2 186.033 118.027 185.78 117.68C185.54 117.333 185.42 116.907 185.42 116.4C185.42 115.84 185.526 115.227 185.74 114.56C185.953 113.88 186.18 113.24 186.42 112.64C186.66 112.04 186.86 111.533 187.02 111.12C187.193 110.707 187.326 110.36 187.42 110.08C187.526 109.8 187.6 109.573 187.64 109.4C187.693 109.227 187.72 109.087 187.72 108.98C187.72 108.927 187.706 108.88 187.68 108.84C187.666 108.787 187.62 108.76 187.54 108.76C187.366 108.76 187.113 108.913 186.78 109.22C186.46 109.527 186.02 110.02 185.46 110.7L184.94 110.42C185.14 110.033 185.393 109.647 185.7 109.26C186.006 108.873 186.333 108.527 186.68 108.22C187.026 107.913 187.386 107.667 187.76 107.48C188.133 107.293 188.48 107.2 188.8 107.2C189.466 107.2 189.8 107.587 189.8 108.36C189.8 108.827 189.666 109.433 189.4 110.18C189.146 110.913 188.813 111.793 188.4 112.82C188.133 113.473 187.913 114.06 187.74 114.58C187.566 115.1 187.48 115.573 187.48 116C187.48 116.28 187.52 116.48 187.6 116.6C187.68 116.707 187.78 116.76 187.9 116.76ZM196.795 110.18C196.942 109.847 197.162 109.507 197.455 109.16C197.762 108.8 198.088 108.48 198.435 108.2C198.795 107.907 199.155 107.667 199.515 107.48C199.875 107.293 200.188 107.2 200.455 107.2C200.775 107.2 201.008 107.32 201.155 107.56C201.302 107.8 201.375 108.187 201.375 108.72C201.375 108.933 201.362 109.14 201.335 109.34C201.322 109.54 201.288 109.773 201.235 110.04L201.295 110.1C201.455 109.713 201.682 109.333 201.975 108.96C202.268 108.587 202.582 108.26 202.915 107.98C203.262 107.687 203.608 107.453 203.955 107.28C204.315 107.093 204.648 107 204.955 107C205.342 107 205.662 107.127 205.915 107.38C206.182 107.62 206.315 107.92 206.315 108.28C206.315 108.627 206.202 108.913 205.975 109.14C205.762 109.367 205.482 109.48 205.135 109.48C204.922 109.48 204.748 109.44 204.615 109.36C204.495 109.28 204.388 109.2 204.295 109.12C204.202 109.027 204.115 108.94 204.035 108.86C203.955 108.78 203.855 108.74 203.735 108.74C203.482 108.74 203.188 108.913 202.855 109.26C202.522 109.593 202.175 110.053 201.815 110.64C201.455 111.227 201.095 111.913 200.735 112.7C200.388 113.487 200.068 114.333 199.775 115.24L198.875 118H197.015L198.315 113.86C198.568 113.06 198.775 112.4 198.935 111.88C199.108 111.347 199.242 110.907 199.335 110.56C199.428 110.2 199.488 109.92 199.515 109.72C199.555 109.52 199.575 109.347 199.575 109.2C199.575 108.907 199.475 108.76 199.275 108.76C199.142 108.76 198.975 108.813 198.775 108.92C198.588 109.027 198.402 109.16 198.215 109.32C198.028 109.48 197.848 109.66 197.675 109.86C197.515 110.06 197.395 110.253 197.315 110.44L196.795 110.18ZM214.133 108.24C213.813 108.24 213.446 108.407 213.033 108.74C212.633 109.06 212.219 109.493 211.793 110.04C211.379 110.573 210.979 111.187 210.593 111.88C210.206 112.573 209.879 113.28 209.613 114L208.133 118H206.373L207.853 113.42C208.093 112.687 208.293 112.06 208.453 111.54C208.613 111.02 208.739 110.587 208.833 110.24C208.939 109.88 209.013 109.593 209.053 109.38C209.093 109.153 209.113 108.973 209.113 108.84C209.113 108.48 208.999 108.3 208.773 108.3C208.626 108.3 208.453 108.393 208.253 108.58C208.053 108.767 207.846 109.013 207.633 109.32C207.433 109.613 207.239 109.953 207.053 110.34C206.866 110.727 206.706 111.12 206.573 111.52L205.973 111.22C206.439 109.847 206.959 108.833 207.533 108.18C208.119 107.527 208.786 107.2 209.533 107.2C209.959 107.2 210.259 107.32 210.433 107.56C210.619 107.8 210.713 108.207 210.713 108.78C210.713 109.46 210.599 110.067 210.373 110.6L210.433 110.66C211.113 109.46 211.799 108.587 212.493 108.04C213.199 107.48 213.966 107.2 214.793 107.2C215.379 107.2 215.826 107.34 216.133 107.62C216.439 107.9 216.593 108.3 216.593 108.82C216.593 108.993 216.573 109.187 216.533 109.4C216.506 109.613 216.453 109.873 216.373 110.18C216.293 110.473 216.179 110.827 216.033 111.24C215.899 111.653 215.733 112.16 215.533 112.76C215.226 113.667 214.973 114.427 214.773 115.04C214.573 115.653 214.473 116.087 214.473 116.34C214.473 116.54 214.539 116.64 214.673 116.64C214.859 116.64 215.133 116.487 215.493 116.18C215.853 115.873 216.339 115.38 216.953 114.7L217.473 114.98C217.259 115.38 216.979 115.773 216.633 116.16C216.299 116.533 215.946 116.873 215.573 117.18C215.213 117.487 214.853 117.733 214.493 117.92C214.133 118.107 213.819 118.2 213.553 118.2C213.219 118.2 212.953 118.053 212.753 117.76C212.566 117.467 212.473 117.08 212.473 116.6C212.473 116.413 212.486 116.227 212.513 116.04C212.553 115.84 212.626 115.56 212.733 115.2C212.839 114.84 212.993 114.36 213.193 113.76C213.406 113.147 213.693 112.34 214.053 111.34C214.173 110.993 214.273 110.7 214.353 110.46C214.433 110.22 214.493 110.013 214.533 109.84C214.586 109.653 214.619 109.493 214.633 109.36C214.659 109.227 214.673 109.1 214.673 108.98C214.673 108.487 214.493 108.24 214.133 108.24Z" fill="black"/>
<path d="M54.7313 145.848V147.032H49.8833V150.792H53.8193V151.976H49.8833V157H48.4273V145.848H54.7313ZM57.9458 149.656C58.2018 149.155 58.5645 148.765 59.0338 148.488C59.5138 148.211 60.0951 148.072 60.7778 148.072V149.576H60.3938C58.7618 149.576 57.9458 150.461 57.9458 152.232V157H56.4898V148.232H57.9458V149.656ZM70.4586 152.28C70.4586 152.557 70.4426 152.851 70.4106 153.16H63.4026C63.4559 154.024 63.7492 154.701 64.2826 155.192C64.8266 155.672 65.4826 155.912 66.2506 155.912C66.8799 155.912 67.4026 155.768 67.8186 155.48C68.2452 155.181 68.5439 154.787 68.7146 154.296H70.2826C70.0479 155.139 69.5786 155.827 68.8746 156.36C68.1706 156.883 67.2959 157.144 66.2506 157.144C65.4186 157.144 64.6719 156.957 64.0106 156.584C63.3599 156.211 62.8479 155.683 62.4746 155C62.1012 154.307 61.9146 153.507 61.9146 152.6C61.9146 151.693 62.0959 150.899 62.4586 150.216C62.8212 149.533 63.3279 149.011 63.9786 148.648C64.6399 148.275 65.3972 148.088 66.2506 148.088C67.0826 148.088 67.8186 148.269 68.4586 148.632C69.0986 148.995 69.5892 149.496 69.9306 150.136C70.2826 150.765 70.4586 151.48 70.4586 152.28ZM68.9546 151.976C68.9546 151.421 68.8319 150.947 68.5866 150.552C68.3412 150.147 68.0052 149.843 67.5786 149.64C67.1626 149.427 66.6986 149.32 66.1866 149.32C65.4506 149.32 64.8212 149.555 64.2986 150.024C63.7866 150.493 63.4932 151.144 63.4186 151.976H68.9546ZM80.3804 152.28C80.3804 152.557 80.3644 152.851 80.3324 153.16H73.3244C73.3778 154.024 73.6711 154.701 74.2044 155.192C74.7484 155.672 75.4044 155.912 76.1724 155.912C76.8018 155.912 77.3244 155.768 77.7404 155.48C78.1671 155.181 78.4658 154.787 78.6364 154.296H80.2044C79.9698 155.139 79.5004 155.827 78.7964 156.36C78.0924 156.883 77.2178 157.144 76.1724 157.144C75.3404 157.144 74.5938 156.957 73.9324 156.584C73.2818 156.211 72.7698 155.683 72.3964 155C72.0231 154.307 71.8364 153.507 71.8364 152.6C71.8364 151.693 72.0178 150.899 72.3804 150.216C72.7431 149.533 73.2498 149.011 73.9004 148.648C74.5618 148.275 75.3191 148.088 76.1724 148.088C77.0044 148.088 77.7404 148.269 78.3804 148.632C79.0204 148.995 79.5111 149.496 79.8524 150.136C80.2044 150.765 80.3804 151.48 80.3804 152.28ZM78.8764 151.976C78.8764 151.421 78.7538 150.947 78.5084 150.552C78.2631 150.147 77.9271 149.843 77.5004 149.64C77.0844 149.427 76.6204 149.32 76.1084 149.32C75.3724 149.32 74.7431 149.555 74.2204 150.024C73.7084 150.493 73.4151 151.144 73.3404 151.976H78.8764ZM94.5679 152.28C94.5679 152.557 94.5519 152.851 94.5199 153.16H87.5119C87.5653 154.024 87.8586 154.701 88.3919 155.192C88.9359 155.672 89.5919 155.912 90.3599 155.912C90.9893 155.912 91.5119 155.768 91.9279 155.48C92.3546 155.181 92.6533 154.787 92.8239 154.296H94.3919C94.1573 155.139 93.6879 155.827 92.9839 156.36C92.2799 156.883 91.4053 157.144 90.3599 157.144C89.5279 157.144 88.7813 156.957 88.1199 156.584C87.4693 156.211 86.9573 155.683 86.5839 155C86.2106 154.307 86.0239 153.507 86.0239 152.6C86.0239 151.693 86.2053 150.899 86.5679 150.216C86.9306 149.533 87.4373 149.011 88.0879 148.648C88.7493 148.275 89.5066 148.088 90.3599 148.088C91.1919 148.088 91.9279 148.269 92.5679 148.632C93.2079 148.995 93.6986 149.496 94.0399 150.136C94.3919 150.765 94.5679 151.48 94.5679 152.28ZM93.0639 151.976C93.0639 151.421 92.9413 150.947 92.6959 150.552C92.4506 150.147 92.1146 149.843 91.6879 149.64C91.2719 149.427 90.8079 149.32 90.2959 149.32C89.5599 149.32 88.9306 149.555 88.4079 150.024C87.8959 150.493 87.6026 151.144 87.5279 151.976H93.0639ZM101.066 157L98.9858 153.736L96.9858 157H95.4658L98.2978 152.648L95.4658 148.232H97.1138L99.1938 151.48L101.178 148.232H102.698L99.8818 152.568L102.714 157H101.066ZM103.602 152.6C103.602 151.693 103.783 150.904 104.146 150.232C104.509 149.549 105.01 149.021 105.65 148.648C106.301 148.275 107.042 148.088 107.874 148.088C108.951 148.088 109.837 148.349 110.53 148.872C111.234 149.395 111.698 150.12 111.922 151.048H110.354C110.205 150.515 109.911 150.093 109.474 149.784C109.047 149.475 108.514 149.32 107.874 149.32C107.042 149.32 106.37 149.608 105.858 150.184C105.346 150.749 105.09 151.555 105.09 152.6C105.09 153.656 105.346 154.472 105.858 155.048C106.37 155.624 107.042 155.912 107.874 155.912C108.514 155.912 109.047 155.763 109.474 155.464C109.901 155.165 110.194 154.739 110.354 154.184H111.922C111.687 155.08 111.218 155.8 110.514 156.344C109.81 156.877 108.93 157.144 107.874 157.144C107.042 157.144 106.301 156.957 105.65 156.584C105.01 156.211 104.509 155.683 104.146 155C103.783 154.317 103.602 153.517 103.602 152.6ZM118.217 148.072C118.878 148.072 119.475 148.216 120.009 148.504C120.542 148.781 120.958 149.203 121.257 149.768C121.566 150.333 121.721 151.021 121.721 151.832V157H120.281V152.04C120.281 151.165 120.062 150.499 119.625 150.04C119.187 149.571 118.59 149.336 117.833 149.336C117.065 149.336 116.451 149.576 115.993 150.056C115.545 150.536 115.321 151.235 115.321 152.152V157H113.865V145.16H115.321V149.48C115.609 149.032 116.003 148.685 116.505 148.44C117.017 148.195 117.587 148.072 118.217 148.072ZM123.555 152.584C123.555 151.688 123.737 150.904 124.099 150.232C124.462 149.549 124.958 149.021 125.587 148.648C126.227 148.275 126.937 148.088 127.715 148.088C128.483 148.088 129.15 148.253 129.715 148.584C130.281 148.915 130.702 149.331 130.979 149.832V148.232H132.451V157H130.979V155.368C130.691 155.88 130.259 156.307 129.683 156.648C129.118 156.979 128.457 157.144 127.699 157.144C126.921 157.144 126.217 156.952 125.587 156.568C124.958 156.184 124.462 155.645 124.099 154.952C123.737 154.259 123.555 153.469 123.555 152.584ZM130.979 152.6C130.979 151.939 130.846 151.363 130.579 150.872C130.313 150.381 129.95 150.008 129.491 149.752C129.043 149.485 128.547 149.352 128.003 149.352C127.459 149.352 126.963 149.48 126.515 149.736C126.067 149.992 125.71 150.365 125.443 150.856C125.177 151.347 125.043 151.923 125.043 152.584C125.043 153.256 125.177 153.843 125.443 154.344C125.71 154.835 126.067 155.213 126.515 155.48C126.963 155.736 127.459 155.864 128.003 155.864C128.547 155.864 129.043 155.736 129.491 155.48C129.95 155.213 130.313 154.835 130.579 154.344C130.846 153.843 130.979 153.261 130.979 152.6ZM139.184 148.072C140.25 148.072 141.114 148.397 141.776 149.048C142.437 149.688 142.768 150.616 142.768 151.832V157H141.328V152.04C141.328 151.165 141.109 150.499 140.672 150.04C140.234 149.571 139.637 149.336 138.88 149.336C138.112 149.336 137.498 149.576 137.04 150.056C136.592 150.536 136.368 151.235 136.368 152.152V157H134.912V148.232H136.368V149.48C136.656 149.032 137.045 148.685 137.536 148.44C138.037 148.195 138.586 148.072 139.184 148.072ZM148.762 148.088C149.519 148.088 150.181 148.253 150.746 148.584C151.322 148.915 151.749 149.331 152.026 149.832V148.232H153.498V157.192C153.498 157.992 153.327 158.701 152.986 159.32C152.645 159.949 152.154 160.44 151.514 160.792C150.885 161.144 150.149 161.32 149.306 161.32C148.154 161.32 147.194 161.048 146.426 160.504C145.658 159.96 145.205 159.219 145.066 158.28H146.506C146.666 158.813 146.997 159.24 147.498 159.56C147.999 159.891 148.602 160.056 149.306 160.056C150.106 160.056 150.757 159.805 151.258 159.304C151.77 158.803 152.026 158.099 152.026 157.192V155.352C151.738 155.864 151.311 156.291 150.746 156.632C150.181 156.973 149.519 157.144 148.762 157.144C147.983 157.144 147.274 156.952 146.634 156.568C146.005 156.184 145.509 155.645 145.146 154.952C144.783 154.259 144.602 153.469 144.602 152.584C144.602 151.688 144.783 150.904 145.146 150.232C145.509 149.549 146.005 149.021 146.634 148.648C147.274 148.275 147.983 148.088 148.762 148.088ZM152.026 152.6C152.026 151.939 151.893 151.363 151.626 150.872C151.359 150.381 150.997 150.008 150.538 149.752C150.09 149.485 149.594 149.352 149.05 149.352C148.506 149.352 148.01 149.48 147.562 149.736C147.114 149.992 146.757 150.365 146.49 150.856C146.223 151.347 146.09 151.923 146.09 152.584C146.09 153.256 146.223 153.843 146.49 154.344C146.757 154.835 147.114 155.213 147.562 155.48C148.01 155.736 148.506 155.864 149.05 155.864C149.594 155.864 150.09 155.736 150.538 155.48C150.997 155.213 151.359 154.835 151.626 154.344C151.893 153.843 152.026 153.261 152.026 152.6ZM163.959 152.28C163.959 152.557 163.943 152.851 163.911 153.16H156.903C156.956 154.024 157.249 154.701 157.783 155.192C158.327 155.672 158.983 155.912 159.751 155.912C160.38 155.912 160.903 155.768 161.319 155.48C161.745 155.181 162.044 154.787 162.215 154.296H163.783C163.548 155.139 163.079 155.827 162.375 156.36C161.671 156.883 160.796 157.144 159.751 157.144C158.919 157.144 158.172 156.957 157.511 156.584C156.86 156.211 156.348 155.683 155.975 155C155.601 154.307 155.415 153.507 155.415 152.6C155.415 151.693 155.596 150.899 155.959 150.216C156.321 149.533 156.828 149.011 157.479 148.648C158.14 148.275 158.897 148.088 159.751 148.088C160.583 148.088 161.319 148.269 161.959 148.632C162.599 148.995 163.089 149.496 163.431 150.136C163.783 150.765 163.959 151.48 163.959 152.28ZM162.455 151.976C162.455 151.421 162.332 150.947 162.087 150.552C161.841 150.147 161.505 149.843 161.079 149.64C160.663 149.427 160.199 149.32 159.687 149.32C158.951 149.32 158.321 149.555 157.799 150.024C157.287 150.493 156.993 151.144 156.919 151.976H162.455ZM173.97 157.144C173.149 157.144 172.402 156.957 171.73 156.584C171.069 156.211 170.546 155.683 170.162 155C169.789 154.307 169.602 153.507 169.602 152.6C169.602 151.704 169.794 150.915 170.178 150.232C170.573 149.539 171.106 149.011 171.778 148.648C172.45 148.275 173.202 148.088 174.034 148.088C174.866 148.088 175.618 148.275 176.29 148.648C176.962 149.011 177.49 149.533 177.874 150.216C178.269 150.899 178.466 151.693 178.466 152.6C178.466 153.507 178.263 154.307 177.858 155C177.463 155.683 176.925 156.211 176.242 156.584C175.559 156.957 174.802 157.144 173.97 157.144ZM173.97 155.864C174.493 155.864 174.983 155.741 175.442 155.496C175.901 155.251 176.269 154.883 176.546 154.392C176.834 153.901 176.978 153.304 176.978 152.6C176.978 151.896 176.839 151.299 176.562 150.808C176.285 150.317 175.922 149.955 175.474 149.72C175.026 149.475 174.541 149.352 174.018 149.352C173.485 149.352 172.994 149.475 172.546 149.72C172.109 149.955 171.757 150.317 171.49 150.808C171.223 151.299 171.09 151.896 171.09 152.6C171.09 153.315 171.218 153.917 171.474 154.408C171.741 154.899 172.093 155.267 172.53 155.512C172.967 155.747 173.447 155.864 173.97 155.864ZM181.836 149.656C182.092 149.155 182.455 148.765 182.924 148.488C183.404 148.211 183.986 148.072 184.668 148.072V149.576H184.284C182.652 149.576 181.836 150.461 181.836 152.232V157H180.38V148.232H181.836V149.656ZM192.071 149.656C192.327 149.155 192.689 148.765 193.159 148.488C193.639 148.211 194.22 148.072 194.903 148.072V149.576H194.519C192.887 149.576 192.071 150.461 192.071 152.232V157H190.615V148.232H192.071V149.656ZM204.584 152.28C204.584 152.557 204.568 152.851 204.536 153.16H197.528C197.581 154.024 197.874 154.701 198.408 155.192C198.952 155.672 199.608 155.912 200.376 155.912C201.005 155.912 201.528 155.768 201.944 155.48C202.37 155.181 202.669 154.787 202.84 154.296H204.408C204.173 155.139 203.704 155.827 203 156.36C202.296 156.883 201.421 157.144 200.376 157.144C199.544 157.144 198.797 156.957 198.136 156.584C197.485 156.211 196.973 155.683 196.6 155C196.226 154.307 196.04 153.507 196.04 152.6C196.04 151.693 196.221 150.899 196.584 150.216C196.946 149.533 197.453 149.011 198.104 148.648C198.765 148.275 199.522 148.088 200.376 148.088C201.208 148.088 201.944 148.269 202.584 148.632C203.224 148.995 203.714 149.496 204.056 150.136C204.408 150.765 204.584 151.48 204.584 152.28ZM203.08 151.976C203.08 151.421 202.957 150.947 202.712 150.552C202.466 150.147 202.13 149.843 201.704 149.64C201.288 149.427 200.824 149.32 200.312 149.32C199.576 149.32 198.946 149.555 198.424 150.024C197.912 150.493 197.618 151.144 197.544 151.976H203.08ZM208.281 149.432V154.6C208.281 155.027 208.372 155.331 208.553 155.512C208.735 155.683 209.049 155.768 209.497 155.768H210.569V157H209.257C208.447 157 207.839 156.813 207.433 156.44C207.028 156.067 206.825 155.453 206.825 154.6V149.432H205.689V148.232H206.825V146.024H208.281V148.232H210.569V149.432H208.281ZM220.11 148.232V157H218.654V155.704C218.376 156.152 217.987 156.504 217.486 156.76C216.995 157.005 216.451 157.128 215.854 157.128C215.171 157.128 214.558 156.989 214.014 156.712C213.47 156.424 213.038 155.997 212.718 155.432C212.408 154.867 212.254 154.179 212.254 153.368V148.232H213.694V153.176C213.694 154.04 213.912 154.707 214.35 155.176C214.787 155.635 215.384 155.864 216.142 155.864C216.92 155.864 217.534 155.624 217.982 155.144C218.43 154.664 218.654 153.965 218.654 153.048V148.232H220.11ZM224.024 149.656C224.28 149.155 224.643 148.765 225.112 148.488C225.592 148.211 226.173 148.072 226.856 148.072V149.576H226.472C224.84 149.576 224.024 150.461 224.024 152.232V157H222.568V148.232H224.024V149.656ZM232.809 148.072C233.875 148.072 234.739 148.397 235.401 149.048C236.062 149.688 236.393 150.616 236.393 151.832V157H234.953V152.04C234.953 151.165 234.734 150.499 234.297 150.04C233.859 149.571 233.262 149.336 232.505 149.336C231.737 149.336 231.123 149.576 230.665 150.056C230.217 150.536 229.993 151.235 229.993 152.152V157H228.537V148.232H229.993V149.48C230.281 149.032 230.67 148.685 231.161 148.44C231.662 148.195 232.211 148.072 232.809 148.072ZM100.264 174.232L97.5276 183H96.0236L93.9116 176.04L91.7996 183H90.2956L87.5436 174.232H89.0316L91.0476 181.592L93.2236 174.232H94.7116L96.8396 181.608L98.8236 174.232H100.264ZM102.461 172.808C102.183 172.808 101.949 172.712 101.757 172.52C101.565 172.328 101.469 172.093 101.469 171.816C101.469 171.539 101.565 171.304 101.757 171.112C101.949 170.92 102.183 170.824 102.461 170.824C102.727 170.824 102.951 170.92 103.133 171.112C103.325 171.304 103.421 171.539 103.421 171.816C103.421 172.093 103.325 172.328 103.133 172.52C102.951 172.712 102.727 172.808 102.461 172.808ZM103.165 174.232V183H101.709V174.232H103.165ZM107.422 175.432V180.6C107.422 181.027 107.513 181.331 107.694 181.512C107.875 181.683 108.19 181.768 108.638 181.768H109.71V183H108.398C107.587 183 106.979 182.813 106.574 182.44C106.169 182.067 105.966 181.453 105.966 180.6V175.432H104.83V174.232H105.966V172.024H107.422V174.232H109.71V175.432H107.422ZM115.826 174.072C116.488 174.072 117.085 174.216 117.618 174.504C118.152 174.781 118.568 175.203 118.866 175.768C119.176 176.333 119.33 177.021 119.33 177.832V183H117.89V178.04C117.89 177.165 117.672 176.499 117.234 176.04C116.797 175.571 116.2 175.336 115.442 175.336C114.674 175.336 114.061 175.576 113.602 176.056C113.154 176.536 112.93 177.235 112.93 178.152V183H111.474V171.16H112.93V175.48C113.218 175.032 113.613 174.685 114.114 174.44C114.626 174.195 115.197 174.072 115.826 174.072ZM122.461 172.808C122.183 172.808 121.949 172.712 121.757 172.52C121.565 172.328 121.469 172.093 121.469 171.816C121.469 171.539 121.565 171.304 121.757 171.112C121.949 170.92 122.183 170.824 122.461 170.824C122.727 170.824 122.951 170.92 123.133 171.112C123.325 171.304 123.421 171.539 123.421 171.816C123.421 172.093 123.325 172.328 123.133 172.52C122.951 172.712 122.727 172.808 122.461 172.808ZM123.165 174.232V183H121.709V174.232H123.165ZM129.918 174.072C130.985 174.072 131.849 174.397 132.51 175.048C133.171 175.688 133.502 176.616 133.502 177.832V183H132.062V178.04C132.062 177.165 131.843 176.499 131.406 176.04C130.969 175.571 130.371 175.336 129.614 175.336C128.846 175.336 128.233 175.576 127.774 176.056C127.326 176.536 127.102 177.235 127.102 178.152V183H125.646V174.232H127.102V175.48C127.39 175.032 127.779 174.685 128.27 174.44C128.771 174.195 129.321 174.072 129.918 174.072ZM139.874 174.344C139.949 173.363 140.327 172.595 141.01 172.04C141.693 171.485 142.578 171.208 143.666 171.208C144.391 171.208 145.015 171.341 145.538 171.608C146.071 171.864 146.471 172.216 146.738 172.664C147.015 173.112 147.154 173.619 147.154 174.184C147.154 174.845 146.962 175.416 146.578 175.896C146.205 176.376 145.714 176.685 145.106 176.824V176.904C145.799 177.075 146.349 177.411 146.754 177.912C147.159 178.413 147.362 179.069 147.362 179.88C147.362 180.488 147.223 181.037 146.946 181.528C146.669 182.008 146.253 182.387 145.698 182.664C145.143 182.941 144.477 183.08 143.698 183.08C142.567 183.08 141.639 182.787 140.914 182.2C140.189 181.603 139.783 180.76 139.698 179.672H141.106C141.181 180.312 141.442 180.835 141.89 181.24C142.338 181.645 142.935 181.848 143.682 181.848C144.429 181.848 144.994 181.656 145.378 181.272C145.773 180.877 145.97 180.371 145.97 179.752C145.97 178.952 145.703 178.376 145.17 178.024C144.637 177.672 143.831 177.496 142.754 177.496H142.386V176.28H142.77C143.751 176.269 144.493 176.109 144.994 175.8C145.495 175.48 145.746 174.989 145.746 174.328C145.746 173.763 145.559 173.309 145.186 172.968C144.823 172.627 144.301 172.456 143.618 172.456C142.957 172.456 142.423 172.627 142.018 172.968C141.613 173.309 141.373 173.768 141.298 174.344H139.874ZM149.328 177.096C149.328 175.261 149.627 173.832 150.224 172.808C150.821 171.773 151.867 171.256 153.36 171.256C154.843 171.256 155.883 171.773 156.48 172.808C157.077 173.832 157.376 175.261 157.376 177.096C157.376 178.963 157.077 180.413 156.48 181.448C155.883 182.483 154.843 183 153.36 183C151.867 183 150.821 182.483 150.224 181.448C149.627 180.413 149.328 178.963 149.328 177.096ZM155.936 177.096C155.936 176.168 155.872 175.384 155.744 174.744C155.627 174.093 155.376 173.571 154.992 173.176C154.619 172.781 154.075 172.584 153.36 172.584C152.635 172.584 152.08 172.781 151.696 173.176C151.323 173.571 151.072 174.093 150.944 174.744C150.827 175.384 150.768 176.168 150.768 177.096C150.768 178.056 150.827 178.861 150.944 179.512C151.072 180.163 151.323 180.685 151.696 181.08C152.08 181.475 152.635 181.672 153.36 181.672C154.075 181.672 154.619 181.475 154.992 181.08C155.376 180.685 155.627 180.163 155.744 179.512C155.872 178.861 155.936 178.056 155.936 177.096ZM163.336 178.584C163.336 177.688 163.518 176.904 163.88 176.232C164.243 175.549 164.739 175.021 165.368 174.648C166.008 174.275 166.723 174.088 167.512 174.088C168.195 174.088 168.83 174.248 169.416 174.568C170.003 174.877 170.451 175.288 170.76 175.8V171.16H172.232V183H170.76V181.352C170.472 181.875 170.046 182.307 169.48 182.648C168.915 182.979 168.254 183.144 167.496 183.144C166.718 183.144 166.008 182.952 165.368 182.568C164.739 182.184 164.243 181.645 163.88 180.952C163.518 180.259 163.336 179.469 163.336 178.584ZM170.76 178.6C170.76 177.939 170.627 177.363 170.36 176.872C170.094 176.381 169.731 176.008 169.272 175.752C168.824 175.485 168.328 175.352 167.784 175.352C167.24 175.352 166.744 175.48 166.296 175.736C165.848 175.992 165.491 176.365 165.224 176.856C164.958 177.347 164.824 177.923 164.824 178.584C164.824 179.256 164.958 179.843 165.224 180.344C165.491 180.835 165.848 181.213 166.296 181.48C166.744 181.736 167.24 181.864 167.784 181.864C168.328 181.864 168.824 181.736 169.272 181.48C169.731 181.213 170.094 180.835 170.36 180.344C170.627 179.843 170.76 179.261 170.76 178.6ZM174.149 178.584C174.149 177.688 174.33 176.904 174.693 176.232C175.056 175.549 175.552 175.021 176.181 174.648C176.821 174.275 177.53 174.088 178.309 174.088C179.077 174.088 179.744 174.253 180.309 174.584C180.874 174.915 181.296 175.331 181.573 175.832V174.232H183.045V183H181.573V181.368C181.285 181.88 180.853 182.307 180.277 182.648C179.712 182.979 179.05 183.144 178.293 183.144C177.514 183.144 176.81 182.952 176.181 182.568C175.552 182.184 175.056 181.645 174.693 180.952C174.33 180.259 174.149 179.469 174.149 178.584ZM181.573 178.6C181.573 177.939 181.44 177.363 181.173 176.872C180.906 176.381 180.544 176.008 180.085 175.752C179.637 175.485 179.141 175.352 178.597 175.352C178.053 175.352 177.557 175.48 177.109 175.736C176.661 175.992 176.304 176.365 176.037 176.856C175.77 177.347 175.637 177.923 175.637 178.584C175.637 179.256 175.77 179.843 176.037 180.344C176.304 180.835 176.661 181.213 177.109 181.48C177.557 181.736 178.053 181.864 178.597 181.864C179.141 181.864 179.637 181.736 180.085 181.48C180.544 181.213 180.906 180.835 181.173 180.344C181.44 179.843 181.573 179.261 181.573 178.6ZM193.057 174.232L187.777 187.128H186.273L188.001 182.904L184.465 174.232H186.081L188.833 181.336L191.553 174.232H193.057ZM197.625 183.144C196.953 183.144 196.35 183.032 195.817 182.808C195.284 182.573 194.862 182.253 194.553 181.848C194.244 181.432 194.073 180.957 194.041 180.424H195.545C195.588 180.861 195.79 181.219 196.153 181.496C196.526 181.773 197.012 181.912 197.609 181.912C198.164 181.912 198.601 181.789 198.921 181.544C199.241 181.299 199.401 180.989 199.401 180.616C199.401 180.232 199.23 179.949 198.889 179.768C198.548 179.576 198.02 179.389 197.305 179.208C196.654 179.037 196.121 178.867 195.705 178.696C195.3 178.515 194.948 178.253 194.649 177.912C194.361 177.56 194.217 177.101 194.217 176.536C194.217 176.088 194.35 175.677 194.617 175.304C194.884 174.931 195.262 174.637 195.753 174.424C196.244 174.2 196.804 174.088 197.433 174.088C198.404 174.088 199.188 174.333 199.785 174.824C200.382 175.315 200.702 175.987 200.745 176.84H199.289C199.257 176.381 199.07 176.013 198.729 175.736C198.398 175.459 197.95 175.32 197.385 175.32C196.862 175.32 196.446 175.432 196.137 175.656C195.828 175.88 195.673 176.173 195.673 176.536C195.673 176.824 195.764 177.064 195.945 177.256C196.137 177.437 196.372 177.587 196.649 177.704C196.937 177.811 197.332 177.933 197.833 178.072C198.462 178.243 198.974 178.413 199.369 178.584C199.764 178.744 200.1 178.989 200.377 179.32C200.665 179.651 200.814 180.083 200.825 180.616C200.825 181.096 200.692 181.528 200.425 181.912C200.158 182.296 199.78 182.6 199.289 182.824C198.809 183.037 198.254 183.144 197.625 183.144Z" fill="black"/>
</svg>
