<svg width="289" height="164" viewBox="0 0 289 164" fill="none" xmlns="http://www.w3.org/2000/svg">
<mask id="mask0_1_551" style="mask-type:alpha" maskUnits="userSpaceOnUse" x="108" y="0" width="73" height="72">
<rect x="108.5" width="72" height="72" fill="#D9D9D9"/>
</mask>
<g mask="url(#mask0_1_551)">
<path d="M177.09 24.8623H159.087V16.4098C159.087 14.5298 157.559 13 155.679 13H111.909C110.03 13 108.5 14.5298 108.5 16.4098V43.1762C108.5 45.0562 110.03 46.586 111.909 46.586H129.913V55.0374C129.913 56.9173 131.443 58.4471 133.321 58.4471H177.09C178.97 58.4471 180.5 56.9173 180.5 55.0374V40.0288V32.7844V28.2721C180.5 26.3921 178.97 24.8623 177.09 24.8623ZM178.72 28.2721V31.8943H131.693V28.2721C131.693 27.3737 132.424 26.6426 133.321 26.6426H177.09C177.989 26.6426 178.72 27.3737 178.72 28.2721ZM178.72 39.1387H131.693V33.6745H178.72V39.1387ZM111.909 44.8058C111.011 44.8058 110.28 44.0747 110.28 43.1762V16.4109C110.28 15.5125 111.011 14.7814 111.909 14.7814H155.679C156.577 14.7814 157.307 15.5125 157.307 16.4109V24.8635H133.321C131.443 24.8635 129.913 26.3933 129.913 28.2733V32.7856V40.03V44.8069H111.909V44.8058ZM177.09 56.6669H133.321C132.424 56.6669 131.693 55.9358 131.693 55.0374V40.9189H178.72V55.0374C178.72 55.9358 177.989 56.6669 177.09 56.6669Z" fill="black"/>
<path d="M118.731 26.2273H114.638C114.147 26.2273 113.748 26.6261 113.748 27.1174C113.748 27.6088 114.147 28.0075 114.638 28.0075H118.731C119.223 28.0075 119.622 27.6088 119.622 27.1174C119.622 26.6261 119.223 26.2273 118.731 26.2273Z" fill="black"/>
<path d="M118.731 31.5796H114.638C114.147 31.5796 113.748 31.9784 113.748 32.4697C113.748 32.9611 114.147 33.3598 114.638 33.3598H118.731C119.223 33.3598 119.622 32.9611 119.622 32.4697C119.622 31.9784 119.223 31.5796 118.731 31.5796Z" fill="black"/>
</g>
<path d="M64.5906 117.2C65.0306 117.2 65.3906 117.167 65.6706 117.1C65.964 117.033 66.204 116.913 66.3906 116.74C66.5906 116.553 66.7573 116.313 66.8906 116.02C67.024 115.713 67.1506 115.32 67.2706 114.84L69.5906 106.02C69.684 105.673 69.7506 105.373 69.7906 105.12C69.844 104.867 69.8706 104.647 69.8706 104.46C69.8706 104.02 69.7173 103.733 69.4106 103.6C69.104 103.467 68.5906 103.4 67.8706 103.4L68.0906 102.6H79.0106V106.64H78.2506C78.0773 106 77.884 105.48 77.6706 105.08C77.4573 104.667 77.2106 104.347 76.9306 104.12C76.664 103.88 76.3573 103.713 76.0106 103.62C75.6773 103.527 75.304 103.48 74.8906 103.48H72.2906L70.7306 109.42H72.0906C72.4506 109.42 72.7573 109.387 73.0106 109.32C73.264 109.253 73.4906 109.14 73.6906 108.98C73.904 108.807 74.0973 108.573 74.2706 108.28C74.4573 107.987 74.6573 107.607 74.8706 107.14H75.6106L74.2106 113.46H73.4106C73.4506 112.98 73.4706 112.567 73.4706 112.22C73.4706 111.553 73.3706 111.067 73.1706 110.76C72.9706 110.453 72.604 110.3 72.0706 110.3H70.4706L69.3306 114.6C69.2106 115.04 69.1506 115.413 69.1506 115.72C69.1506 116.2 69.3306 116.56 69.6906 116.8C70.0506 117.027 70.684 117.14 71.5906 117.14L71.3706 118H64.3706L64.5906 117.2ZM81.617 104.18C81.6837 103.94 81.7504 103.7 81.817 103.46C81.8837 103.207 81.917 103.02 81.917 102.9C81.917 102.433 81.4104 102.2 80.397 102.2L80.557 101.6L84.217 101.42L80.637 114.56C80.5304 114.92 80.4504 115.24 80.397 115.52C80.3437 115.787 80.317 116.013 80.317 116.2C80.317 116.32 80.3504 116.427 80.417 116.52C80.4837 116.613 80.5904 116.66 80.737 116.66C80.9504 116.66 81.177 116.573 81.417 116.4C81.657 116.213 81.8837 116 82.097 115.76C82.3237 115.507 82.5237 115.253 82.697 115C82.8704 114.733 82.997 114.527 83.077 114.38L83.677 114.72C83.477 115.173 83.217 115.613 82.897 116.04C82.577 116.453 82.237 116.82 81.877 117.14C81.517 117.46 81.1504 117.72 80.777 117.92C80.417 118.107 80.0837 118.2 79.777 118.2C79.3104 118.2 78.9637 118.1 78.737 117.9C78.5237 117.7 78.417 117.367 78.417 116.9C78.417 116.633 78.457 116.273 78.537 115.82C78.617 115.367 78.757 114.747 78.957 113.96L81.617 104.18ZM91.6466 115.34C90.4866 117.247 89.0599 118.2 87.3666 118.2C86.4466 118.2 85.7399 117.92 85.2466 117.36C84.7532 116.787 84.5066 115.98 84.5066 114.94C84.5066 114.02 84.6932 113.1 85.0666 112.18C85.4532 111.26 85.9532 110.433 86.5666 109.7C87.1799 108.953 87.8666 108.353 88.6266 107.9C89.3866 107.433 90.1466 107.2 90.9066 107.2C91.5466 107.2 92.0666 107.367 92.4666 107.7C92.8799 108.02 93.0866 108.433 93.0866 108.94C93.0866 109.407 92.9132 109.887 92.5666 110.38C92.2199 110.873 91.7466 111.34 91.1466 111.78C90.5599 112.22 89.8666 112.62 89.0666 112.98C88.2799 113.34 87.4399 113.62 86.5466 113.82C86.5199 114.007 86.4999 114.193 86.4866 114.38C86.4732 114.553 86.4666 114.733 86.4666 114.92C86.4666 116.373 86.9799 117.1 88.0066 117.1C88.4999 117.1 89.0066 116.907 89.5266 116.52C90.0599 116.133 90.5532 115.6 91.0066 114.92L91.6466 115.34ZM90.5066 108.14C90.1599 108.14 89.7999 108.273 89.4266 108.54C89.0532 108.807 88.6932 109.167 88.3466 109.62C88.0132 110.06 87.7066 110.567 87.4266 111.14C87.1466 111.713 86.9199 112.307 86.7466 112.92C87.3866 112.747 87.9799 112.52 88.5266 112.24C89.0732 111.96 89.5399 111.647 89.9266 111.3C90.3266 110.94 90.6399 110.567 90.8666 110.18C91.0932 109.78 91.2066 109.38 91.2066 108.98C91.2066 108.42 90.9732 108.14 90.5066 108.14ZM99.6277 113.34C99.4143 114.247 99.3077 114.993 99.3077 115.58C99.3077 116.607 99.661 117.12 100.368 117.12C100.808 117.12 101.268 116.933 101.748 116.56C102.228 116.187 102.781 115.593 103.408 114.78L104.008 115.14C103.768 115.593 103.488 116.007 103.168 116.38C102.848 116.753 102.501 117.08 102.128 117.36C101.768 117.627 101.394 117.833 101.008 117.98C100.634 118.127 100.268 118.2 99.9077 118.2C99.2943 118.2 98.7877 117.993 98.3877 117.58C98.001 117.153 97.7677 116.567 97.6877 115.82L97.6277 115.8C97.4277 116.16 97.1877 116.487 96.9077 116.78C96.641 117.073 96.3543 117.327 96.0477 117.54C95.741 117.74 95.4143 117.9 95.0677 118.02C94.7343 118.14 94.4077 118.2 94.0877 118.2C93.5677 118.2 93.1477 118.053 92.8277 117.76C92.4943 117.467 92.3277 117.087 92.3277 116.62C92.3277 116.247 92.4343 115.947 92.6477 115.72C92.861 115.493 93.1477 115.38 93.5077 115.38C93.841 115.38 94.0677 115.467 94.1877 115.64C94.3077 115.813 94.3943 116.007 94.4477 116.22C94.5143 116.42 94.581 116.607 94.6477 116.78C94.7277 116.953 94.881 117.04 95.1077 117.04C95.321 117.04 95.541 116.953 95.7677 116.78C95.9943 116.607 96.2143 116.36 96.4277 116.04C96.6543 115.707 96.8677 115.313 97.0677 114.86C97.2677 114.407 97.4477 113.9 97.6077 113.34L98.1677 111.4C98.4077 110.587 98.5277 109.94 98.5277 109.46C98.5277 108.74 98.3077 108.38 97.8677 108.38C97.681 108.38 97.4543 108.447 97.1877 108.58C96.9343 108.713 96.6677 108.893 96.3877 109.12C96.1077 109.347 95.8277 109.607 95.5477 109.9C95.281 110.193 95.041 110.5 94.8277 110.82L94.2277 110.46C94.401 110.06 94.6543 109.667 94.9877 109.28C95.321 108.893 95.681 108.547 96.0677 108.24C96.4543 107.933 96.841 107.687 97.2277 107.5C97.6277 107.3 97.9877 107.2 98.3077 107.2C98.8143 107.2 99.2343 107.4 99.5677 107.8C99.901 108.187 100.068 108.68 100.068 109.28C100.454 108.653 100.921 108.153 101.468 107.78C102.014 107.393 102.541 107.2 103.048 107.2C103.514 107.2 103.908 107.353 104.228 107.66C104.548 107.967 104.708 108.34 104.708 108.78C104.708 109.1 104.614 109.36 104.428 109.56C104.254 109.76 104.014 109.86 103.708 109.86C103.428 109.86 103.228 109.787 103.108 109.64C103.001 109.48 102.914 109.307 102.848 109.12C102.794 108.92 102.728 108.747 102.648 108.6C102.581 108.44 102.448 108.36 102.248 108.36C102.034 108.36 101.814 108.453 101.588 108.64C101.361 108.827 101.141 109.087 100.928 109.42C100.728 109.753 100.534 110.153 100.348 110.62C100.174 111.073 100.028 111.573 99.9077 112.12L99.6277 113.34ZM107.53 111.4C107.717 110.88 107.85 110.46 107.93 110.14C108.01 109.82 108.05 109.567 108.05 109.38C108.05 109.193 108.017 109.073 107.95 109.02C107.897 108.953 107.837 108.92 107.77 108.92C107.623 108.92 107.463 108.993 107.29 109.14C107.117 109.273 106.943 109.433 106.77 109.62C106.597 109.807 106.443 109.993 106.31 110.18C106.177 110.367 106.083 110.513 106.03 110.62L105.45 110.26C105.61 109.967 105.83 109.64 106.11 109.28C106.403 108.92 106.73 108.587 107.09 108.28C107.45 107.973 107.823 107.72 108.21 107.52C108.597 107.307 108.963 107.2 109.31 107.2C109.643 107.2 109.89 107.3 110.05 107.5C110.223 107.687 110.31 108.033 110.31 108.54C110.31 108.927 110.19 109.447 109.95 110.1C109.723 110.753 109.423 111.593 109.05 112.62L108.31 114.64C108.283 114.707 108.243 114.813 108.19 114.96C108.15 115.093 108.103 115.24 108.05 115.4C108.01 115.547 107.97 115.693 107.93 115.84C107.903 115.987 107.89 116.107 107.89 116.2C107.89 116.32 107.923 116.427 107.99 116.52C108.057 116.613 108.163 116.66 108.31 116.66C108.51 116.66 108.717 116.58 108.93 116.42C109.143 116.247 109.35 116.047 109.55 115.82C109.75 115.593 109.93 115.367 110.09 115.14C110.25 114.9 110.37 114.713 110.45 114.58L111.05 114.92C110.89 115.24 110.67 115.593 110.39 115.98C110.123 116.367 109.817 116.727 109.47 117.06C109.123 117.38 108.743 117.653 108.33 117.88C107.917 118.093 107.49 118.2 107.05 118.2C106.663 118.2 106.37 118.1 106.17 117.9C105.983 117.7 105.89 117.367 105.89 116.9C105.89 116.513 105.95 116.1 106.07 115.66C106.203 115.207 106.39 114.64 106.63 113.96L107.53 111.4ZM110.47 103.92C110.137 103.92 109.843 103.807 109.59 103.58C109.35 103.353 109.23 103.06 109.23 102.7C109.23 102.34 109.35 102.033 109.59 101.78C109.83 101.527 110.123 101.4 110.47 101.4C110.843 101.4 111.15 101.527 111.39 101.78C111.63 102.033 111.75 102.333 111.75 102.68C111.75 103.027 111.623 103.32 111.37 103.56C111.117 103.8 110.817 103.92 110.47 103.92ZM115.865 109.12L115.925 109.16C116.312 108.547 116.792 108.073 117.365 107.74C117.952 107.393 118.572 107.22 119.225 107.22C120.038 107.22 120.665 107.473 121.105 107.98C121.545 108.487 121.765 109.18 121.765 110.06C121.765 110.687 121.672 111.327 121.485 111.98C121.298 112.633 121.038 113.26 120.705 113.86C120.385 114.46 120.005 115.027 119.565 115.56C119.125 116.08 118.652 116.54 118.145 116.94C117.652 117.327 117.125 117.633 116.565 117.86C116.018 118.087 115.478 118.2 114.945 118.2C114.185 118.2 113.558 117.973 113.065 117.52C112.585 117.053 112.345 116.453 112.345 115.72C112.345 115.373 112.418 114.887 112.565 114.26C112.712 113.62 112.925 112.86 113.205 111.98L115.625 104.18C115.692 103.94 115.758 103.7 115.825 103.46C115.892 103.207 115.925 103.02 115.925 102.9C115.925 102.433 115.412 102.2 114.385 102.2L114.565 101.6L118.405 101.42L115.865 109.12ZM115.265 117.18C115.572 117.18 115.898 117.073 116.245 116.86C116.592 116.633 116.932 116.333 117.265 115.96C117.598 115.587 117.918 115.153 118.225 114.66C118.532 114.167 118.798 113.653 119.025 113.12C119.252 112.573 119.432 112.027 119.565 111.48C119.712 110.92 119.785 110.393 119.785 109.9C119.785 109.433 119.678 109.047 119.465 108.74C119.252 108.433 118.992 108.28 118.685 108.28C118.392 108.28 118.072 108.393 117.725 108.62C117.392 108.833 117.058 109.133 116.725 109.52C116.405 109.893 116.092 110.327 115.785 110.82C115.492 111.3 115.225 111.813 114.985 112.36C114.758 112.893 114.578 113.433 114.445 113.98C114.312 114.527 114.245 115.047 114.245 115.54C114.245 116.633 114.585 117.18 115.265 117.18ZM126.129 104.18C126.195 103.94 126.262 103.7 126.329 103.46C126.395 103.207 126.429 103.02 126.429 102.9C126.429 102.433 125.922 102.2 124.909 102.2L125.069 101.6L128.729 101.42L125.149 114.56C125.042 114.92 124.962 115.24 124.909 115.52C124.855 115.787 124.829 116.013 124.829 116.2C124.829 116.32 124.862 116.427 124.929 116.52C124.995 116.613 125.102 116.66 125.249 116.66C125.462 116.66 125.689 116.573 125.929 116.4C126.169 116.213 126.395 116 126.609 115.76C126.835 115.507 127.035 115.253 127.209 115C127.382 114.733 127.509 114.527 127.589 114.38L128.189 114.72C127.989 115.173 127.729 115.613 127.409 116.04C127.089 116.453 126.749 116.82 126.389 117.14C126.029 117.46 125.662 117.72 125.289 117.92C124.929 118.107 124.595 118.2 124.289 118.2C123.822 118.2 123.475 118.1 123.249 117.9C123.035 117.7 122.929 117.367 122.929 116.9C122.929 116.633 122.969 116.273 123.049 115.82C123.129 115.367 123.269 114.747 123.469 113.96L126.129 104.18ZM136.158 115.34C134.998 117.247 133.572 118.2 131.878 118.2C130.958 118.2 130.252 117.92 129.758 117.36C129.265 116.787 129.018 115.98 129.018 114.94C129.018 114.02 129.205 113.1 129.578 112.18C129.965 111.26 130.465 110.433 131.078 109.7C131.692 108.953 132.378 108.353 133.138 107.9C133.898 107.433 134.658 107.2 135.418 107.2C136.058 107.2 136.578 107.367 136.978 107.7C137.392 108.02 137.598 108.433 137.598 108.94C137.598 109.407 137.425 109.887 137.078 110.38C136.732 110.873 136.258 111.34 135.658 111.78C135.072 112.22 134.378 112.62 133.578 112.98C132.792 113.34 131.952 113.62 131.058 113.82C131.032 114.007 131.012 114.193 130.998 114.38C130.985 114.553 130.978 114.733 130.978 114.92C130.978 116.373 131.492 117.1 132.518 117.1C133.012 117.1 133.518 116.907 134.038 116.52C134.572 116.133 135.065 115.6 135.518 114.92L136.158 115.34ZM135.018 108.14C134.672 108.14 134.312 108.273 133.938 108.54C133.565 108.807 133.205 109.167 132.858 109.62C132.525 110.06 132.218 110.567 131.938 111.14C131.658 111.713 131.432 112.307 131.258 112.92C131.898 112.747 132.492 112.52 133.038 112.24C133.585 111.96 134.052 111.647 134.438 111.3C134.838 110.94 135.152 110.567 135.378 110.18C135.605 109.78 135.718 109.38 135.718 108.98C135.718 108.42 135.485 108.14 135.018 108.14ZM148.027 113.86C147.894 114.327 147.787 114.74 147.707 115.1C147.641 115.46 147.607 115.727 147.607 115.9C147.607 116.7 148.367 117.1 149.887 117.1L149.667 118H143.027L143.247 117.2C143.887 117.2 144.407 117.013 144.807 116.64C145.207 116.253 145.521 115.647 145.747 114.82L148.107 106C148.281 105.36 148.367 104.86 148.367 104.5C148.367 104.3 148.334 104.133 148.267 104C148.201 103.867 148.087 103.76 147.927 103.68C147.767 103.587 147.554 103.52 147.287 103.48C147.021 103.44 146.687 103.413 146.287 103.4L146.507 102.6H152.067C153.787 102.6 155.127 102.907 156.087 103.52C157.047 104.12 157.527 104.96 157.527 106.04C157.527 106.733 157.347 107.373 156.987 107.96C156.627 108.547 156.127 109.053 155.487 109.48C154.847 109.907 154.081 110.24 153.187 110.48C152.307 110.72 151.347 110.84 150.307 110.84H148.867L148.027 113.86ZM149.127 109.82H150.107C150.867 109.82 151.561 109.727 152.187 109.54C152.827 109.34 153.374 109.067 153.827 108.72C154.294 108.373 154.654 107.967 154.907 107.5C155.174 107.02 155.307 106.493 155.307 105.92C155.307 104.307 154.241 103.5 152.107 103.5C151.841 103.5 151.614 103.527 151.427 103.58C151.254 103.62 151.101 103.7 150.967 103.82C150.847 103.94 150.741 104.107 150.647 104.32C150.554 104.52 150.467 104.78 150.387 105.1L149.127 109.82ZM162.878 108.24C162.372 108.24 161.845 108.473 161.298 108.94C160.765 109.407 160.278 109.993 159.838 110.7C159.398 111.393 159.038 112.147 158.758 112.96C158.478 113.76 158.338 114.507 158.338 115.2C158.338 115.68 158.438 116.067 158.638 116.36C158.838 116.64 159.112 116.78 159.458 116.78C159.765 116.78 160.085 116.66 160.418 116.42C160.752 116.167 161.072 115.84 161.378 115.44C161.698 115.027 161.998 114.56 162.278 114.04C162.558 113.52 162.805 112.987 163.018 112.44C163.232 111.88 163.398 111.333 163.518 110.8C163.638 110.267 163.698 109.787 163.698 109.36C163.698 109.013 163.625 108.74 163.478 108.54C163.332 108.34 163.132 108.24 162.878 108.24ZM164.938 107.4H166.598L165.458 110.46C165.272 110.967 165.085 111.507 164.898 112.08C164.725 112.653 164.565 113.207 164.418 113.74C164.285 114.273 164.178 114.76 164.098 115.2C164.018 115.64 163.978 115.967 163.978 116.18C163.978 116.567 164.105 116.76 164.358 116.76C164.545 116.76 164.812 116.567 165.158 116.18C165.518 115.793 165.918 115.293 166.358 114.68L166.878 115.1C166.318 116.087 165.712 116.853 165.058 117.4C164.418 117.933 163.798 118.2 163.198 118.2C162.892 118.2 162.652 118.087 162.478 117.86C162.318 117.62 162.238 117.233 162.238 116.7C162.238 116.58 162.238 116.44 162.238 116.28C162.252 116.12 162.272 115.907 162.298 115.64L162.218 115.62C162.018 115.993 161.778 116.34 161.498 116.66C161.232 116.967 160.938 117.24 160.618 117.48C160.298 117.707 159.965 117.88 159.618 118C159.272 118.133 158.932 118.2 158.598 118.2C157.918 118.2 157.385 117.947 156.998 117.44C156.625 116.92 156.438 116.207 156.438 115.3C156.438 114.38 156.632 113.44 157.018 112.48C157.405 111.52 157.905 110.653 158.518 109.88C159.132 109.093 159.812 108.453 160.558 107.96C161.305 107.453 162.038 107.2 162.758 107.2C163.198 107.2 163.558 107.307 163.838 107.52C164.118 107.72 164.345 108.053 164.518 108.52L164.938 107.4ZM170.669 112.16C170.456 111.067 170.236 110.313 170.009 109.9C169.796 109.473 169.569 109.26 169.329 109.26C169.076 109.26 168.843 109.453 168.629 109.84C168.429 110.213 168.223 110.813 168.009 111.64L167.269 111.44C167.403 110.827 167.576 110.26 167.789 109.74C168.016 109.22 168.256 108.773 168.509 108.4C168.776 108.013 169.056 107.72 169.349 107.52C169.643 107.307 169.936 107.2 170.229 107.2C170.483 107.2 170.696 107.293 170.869 107.48C171.056 107.667 171.243 108.013 171.429 108.52C171.589 108.947 171.763 109.513 171.949 110.22C172.149 110.913 172.343 111.713 172.529 112.62L173.209 115.84H173.289C173.543 115.52 173.796 115.16 174.049 114.76C174.316 114.347 174.556 113.92 174.769 113.48C174.983 113.027 175.156 112.573 175.289 112.12C175.423 111.653 175.489 111.22 175.489 110.82C175.489 110.687 175.483 110.52 175.469 110.32C175.456 110.107 175.436 109.893 175.409 109.68C175.396 109.467 175.383 109.267 175.369 109.08C175.356 108.88 175.349 108.72 175.349 108.6C175.349 108.12 175.469 107.767 175.709 107.54C175.949 107.313 176.203 107.2 176.469 107.2C176.816 107.2 177.069 107.347 177.229 107.64C177.389 107.933 177.469 108.273 177.469 108.66C177.469 109.207 177.323 109.907 177.029 110.76C176.736 111.613 176.349 112.533 175.869 113.52C175.389 114.493 174.836 115.493 174.209 116.52C173.583 117.533 172.936 118.467 172.269 119.32C171.256 120.64 170.316 121.613 169.449 122.24C168.596 122.88 167.796 123.2 167.049 123.2C166.489 123.2 166.049 123.047 165.729 122.74C165.396 122.433 165.229 122.06 165.229 121.62C165.229 121.287 165.323 121.013 165.509 120.8C165.696 120.6 165.943 120.5 166.249 120.5C166.516 120.5 166.716 120.573 166.849 120.72C166.969 120.88 167.069 121.053 167.149 121.24C167.229 121.44 167.316 121.613 167.409 121.76C167.489 121.92 167.623 122 167.809 122C168.063 122 168.383 121.86 168.769 121.58C169.156 121.3 169.543 120.947 169.929 120.52C170.316 120.107 170.676 119.653 171.009 119.16C171.356 118.667 171.603 118.207 171.749 117.78L170.669 112.16ZM191.002 111.34C191.176 110.847 191.309 110.453 191.402 110.16C191.509 109.867 191.589 109.64 191.642 109.48C191.696 109.307 191.729 109.173 191.742 109.08C191.756 108.987 191.762 108.9 191.762 108.82C191.762 108.433 191.629 108.24 191.362 108.24C191.002 108.24 190.576 108.487 190.082 108.98C189.589 109.46 189.056 110.16 188.482 111.08C188.282 111.4 188.096 111.727 187.922 112.06C187.749 112.38 187.562 112.787 187.362 113.28C187.162 113.76 186.929 114.373 186.662 115.12C186.396 115.867 186.056 116.827 185.642 118H183.762L185.082 113.98C185.362 113.127 185.596 112.413 185.782 111.84C185.969 111.253 186.116 110.767 186.222 110.38C186.329 109.993 186.402 109.687 186.442 109.46C186.496 109.233 186.522 109.047 186.522 108.9C186.522 108.46 186.356 108.24 186.022 108.24C185.756 108.24 185.436 108.393 185.062 108.7C184.689 109.007 184.309 109.407 183.922 109.9C183.536 110.393 183.162 110.953 182.802 111.58C182.456 112.193 182.162 112.82 181.922 113.46L180.242 118H178.482L179.962 113.42C180.216 112.647 180.422 112 180.582 111.48C180.742 110.947 180.869 110.513 180.962 110.18C181.056 109.833 181.122 109.56 181.162 109.36C181.202 109.16 181.222 108.993 181.222 108.86C181.222 108.487 181.109 108.3 180.882 108.3C180.736 108.3 180.562 108.387 180.362 108.56C180.176 108.733 179.982 108.973 179.782 109.28C179.582 109.573 179.382 109.913 179.182 110.3C178.996 110.687 178.829 111.093 178.682 111.52L178.082 111.22C178.549 109.847 179.069 108.833 179.642 108.18C180.229 107.527 180.896 107.2 181.642 107.2C182.069 107.2 182.369 107.32 182.542 107.56C182.729 107.8 182.822 108.2 182.822 108.76C182.822 109.4 182.709 110.013 182.482 110.6L182.542 110.66C183.782 108.353 185.096 107.2 186.482 107.2C187.002 107.2 187.409 107.36 187.702 107.68C187.996 107.987 188.142 108.42 188.142 108.98C188.142 109.167 188.116 109.38 188.062 109.62C188.022 109.86 187.936 110.213 187.802 110.68L187.842 110.74C188.216 110.1 188.569 109.56 188.902 109.12C189.249 108.667 189.582 108.3 189.902 108.02C190.222 107.74 190.542 107.533 190.862 107.4C191.196 107.267 191.536 107.2 191.882 107.2C192.402 107.2 192.789 107.34 193.042 107.62C193.309 107.9 193.442 108.34 193.442 108.94C193.442 109.127 193.422 109.333 193.382 109.56C193.342 109.773 193.282 110.033 193.202 110.34C193.122 110.633 193.016 110.98 192.882 111.38C192.762 111.767 192.616 112.227 192.442 112.76C192.216 113.44 192.036 113.987 191.902 114.4C191.769 114.8 191.669 115.12 191.602 115.36C191.536 115.6 191.489 115.78 191.462 115.9C191.449 116.02 191.442 116.14 191.442 116.26C191.442 116.513 191.509 116.64 191.642 116.64C191.842 116.64 192.142 116.453 192.542 116.08C192.942 115.693 193.462 115.1 194.102 114.3L194.622 114.58C194.396 115.02 194.102 115.46 193.742 115.9C193.396 116.327 193.029 116.713 192.642 117.06C192.256 117.393 191.869 117.667 191.482 117.88C191.109 118.093 190.782 118.2 190.502 118.2C190.169 118.2 189.902 118.06 189.702 117.78C189.516 117.487 189.422 117.1 189.422 116.62C189.422 116.46 189.436 116.28 189.462 116.08C189.502 115.88 189.576 115.593 189.682 115.22C189.802 114.847 189.962 114.353 190.162 113.74C190.376 113.127 190.656 112.327 191.002 111.34ZM202.565 115.34C201.405 117.247 199.978 118.2 198.285 118.2C197.365 118.2 196.658 117.92 196.165 117.36C195.671 116.787 195.425 115.98 195.425 114.94C195.425 114.02 195.611 113.1 195.985 112.18C196.371 111.26 196.871 110.433 197.485 109.7C198.098 108.953 198.785 108.353 199.545 107.9C200.305 107.433 201.065 107.2 201.825 107.2C202.465 107.2 202.985 107.367 203.385 107.7C203.798 108.02 204.005 108.433 204.005 108.94C204.005 109.407 203.831 109.887 203.485 110.38C203.138 110.873 202.665 111.34 202.065 111.78C201.478 112.22 200.785 112.62 199.985 112.98C199.198 113.34 198.358 113.62 197.465 113.82C197.438 114.007 197.418 114.193 197.405 114.38C197.391 114.553 197.385 114.733 197.385 114.92C197.385 116.373 197.898 117.1 198.925 117.1C199.418 117.1 199.925 116.907 200.445 116.52C200.978 116.133 201.471 115.6 201.925 114.92L202.565 115.34ZM201.425 108.14C201.078 108.14 200.718 108.273 200.345 108.54C199.971 108.807 199.611 109.167 199.265 109.62C198.931 110.06 198.625 110.567 198.345 111.14C198.065 111.713 197.838 112.307 197.665 112.92C198.305 112.747 198.898 112.52 199.445 112.24C199.991 111.96 200.458 111.647 200.845 111.3C201.245 110.94 201.558 110.567 201.785 110.18C202.011 109.78 202.125 109.38 202.125 108.98C202.125 108.42 201.891 108.14 201.425 108.14ZM212.766 108.24C212.446 108.24 212.079 108.407 211.666 108.74C211.266 109.06 210.852 109.493 210.426 110.04C210.012 110.573 209.612 111.187 209.226 111.88C208.839 112.573 208.512 113.28 208.246 114L206.766 118H205.006L206.486 113.42C206.726 112.687 206.926 112.06 207.086 111.54C207.246 111.02 207.372 110.587 207.466 110.24C207.572 109.88 207.646 109.593 207.686 109.38C207.726 109.153 207.746 108.973 207.746 108.84C207.746 108.48 207.632 108.3 207.406 108.3C207.259 108.3 207.086 108.393 206.886 108.58C206.686 108.767 206.479 109.013 206.266 109.32C206.066 109.613 205.872 109.953 205.686 110.34C205.499 110.727 205.339 111.12 205.206 111.52L204.606 111.22C205.072 109.847 205.592 108.833 206.166 108.18C206.752 107.527 207.419 107.2 208.166 107.2C208.592 107.2 208.892 107.32 209.066 107.56C209.252 107.8 209.346 108.207 209.346 108.78C209.346 109.46 209.232 110.067 209.006 110.6L209.066 110.66C209.746 109.46 210.432 108.587 211.126 108.04C211.832 107.48 212.599 107.2 213.426 107.2C214.012 107.2 214.459 107.34 214.766 107.62C215.072 107.9 215.226 108.3 215.226 108.82C215.226 108.993 215.206 109.187 215.166 109.4C215.139 109.613 215.086 109.873 215.006 110.18C214.926 110.473 214.812 110.827 214.666 111.24C214.532 111.653 214.366 112.16 214.166 112.76C213.859 113.667 213.606 114.427 213.406 115.04C213.206 115.653 213.106 116.087 213.106 116.34C213.106 116.54 213.172 116.64 213.306 116.64C213.492 116.64 213.766 116.487 214.126 116.18C214.486 115.873 214.972 115.38 215.586 114.7L216.106 114.98C215.892 115.38 215.612 115.773 215.266 116.16C214.932 116.533 214.579 116.873 214.206 117.18C213.846 117.487 213.486 117.733 213.126 117.92C212.766 118.107 212.452 118.2 212.186 118.2C211.852 118.2 211.586 118.053 211.386 117.76C211.199 117.467 211.106 117.08 211.106 116.6C211.106 116.413 211.119 116.227 211.146 116.04C211.186 115.84 211.259 115.56 211.366 115.2C211.472 114.84 211.626 114.36 211.826 113.76C212.039 113.147 212.326 112.34 212.686 111.34C212.806 110.993 212.906 110.7 212.986 110.46C213.066 110.22 213.126 110.013 213.166 109.84C213.219 109.653 213.252 109.493 213.266 109.36C213.292 109.227 213.306 109.1 213.306 108.98C213.306 108.487 213.126 108.24 212.766 108.24ZM221.505 109.06L219.845 114.56C219.618 115.28 219.498 115.827 219.485 116.2C219.485 116.32 219.511 116.427 219.565 116.52C219.631 116.613 219.738 116.66 219.885 116.66C220.125 116.66 220.378 116.573 220.645 116.4C220.911 116.213 221.165 116 221.405 115.76C221.658 115.507 221.878 115.253 222.065 115C222.265 114.733 222.411 114.527 222.505 114.38L223.085 114.72C222.858 115.173 222.571 115.613 222.225 116.04C221.878 116.453 221.511 116.82 221.125 117.14C220.738 117.46 220.345 117.72 219.945 117.92C219.558 118.107 219.205 118.2 218.885 118.2C218.418 118.2 218.078 118.1 217.865 117.9C217.665 117.7 217.565 117.367 217.565 116.9C217.565 116.633 217.611 116.273 217.705 115.82C217.798 115.367 217.958 114.747 218.185 113.96L219.665 109.06H217.945L218.205 108.14H219.945L220.985 104.7H222.825L221.785 108.14H223.965L223.685 109.06H221.505Z" fill="black"/>
<path d="M33.7818 149.112C33.7818 150.04 33.4618 150.813 32.8218 151.432C32.1924 152.04 31.2271 152.344 29.9258 152.344H27.7818V157H26.3258V145.848H29.9258C31.1844 145.848 32.1391 146.152 32.7898 146.76C33.4511 147.368 33.7818 148.152 33.7818 149.112ZM29.9258 151.144C30.7364 151.144 31.3338 150.968 31.7178 150.616C32.1018 150.264 32.2938 149.763 32.2938 149.112C32.2938 147.736 31.5044 147.048 29.9258 147.048H27.7818V151.144H29.9258ZM35.0474 152.584C35.0474 151.688 35.2287 150.904 35.5914 150.232C35.954 149.549 36.45 149.021 37.0794 148.648C37.7194 148.275 38.4287 148.088 39.2074 148.088C39.9754 148.088 40.642 148.253 41.2074 148.584C41.7727 148.915 42.194 149.331 42.4714 149.832V148.232H43.9434V157H42.4714V155.368C42.1834 155.88 41.7514 156.307 41.1754 156.648C40.61 156.979 39.9487 157.144 39.1914 157.144C38.4127 157.144 37.7087 156.952 37.0794 156.568C36.45 156.184 35.954 155.645 35.5914 154.952C35.2287 154.259 35.0474 153.469 35.0474 152.584ZM42.4714 152.6C42.4714 151.939 42.338 151.363 42.0714 150.872C41.8047 150.381 41.442 150.008 40.9834 149.752C40.5354 149.485 40.0394 149.352 39.4954 149.352C38.9514 149.352 38.4554 149.48 38.0074 149.736C37.5594 149.992 37.202 150.365 36.9354 150.856C36.6687 151.347 36.5354 151.923 36.5354 152.584C36.5354 153.256 36.6687 153.843 36.9354 154.344C37.202 154.835 37.5594 155.213 38.0074 155.48C38.4554 155.736 38.9514 155.864 39.4954 155.864C40.0394 155.864 40.5354 155.736 40.9834 155.48C41.442 155.213 41.8047 154.835 42.0714 154.344C42.338 153.843 42.4714 153.261 42.4714 152.6ZM53.9559 148.232L48.6759 161.128H47.1719L48.8999 156.904L45.3639 148.232H46.9799L49.7319 155.336L52.4519 148.232H53.9559ZM71.3651 148.232L68.6291 157H67.1251L65.0131 150.04L62.9011 157H61.3971L58.6451 148.232H60.1331L62.1491 155.592L64.3251 148.232H65.8131L67.9411 155.608L69.9251 148.232H71.3651ZM73.5621 146.808C73.2848 146.808 73.0501 146.712 72.8581 146.52C72.6661 146.328 72.5701 146.093 72.5701 145.816C72.5701 145.539 72.6661 145.304 72.8581 145.112C73.0501 144.92 73.2848 144.824 73.5621 144.824C73.8288 144.824 74.0528 144.92 74.2341 145.112C74.4261 145.304 74.5221 145.539 74.5221 145.816C74.5221 146.093 74.4261 146.328 74.2341 146.52C74.0528 146.712 73.8288 146.808 73.5621 146.808ZM74.2661 148.232V157H72.8101V148.232H74.2661ZM78.5236 149.432V154.6C78.5236 155.027 78.6143 155.331 78.7956 155.512C78.977 155.683 79.2916 155.768 79.7396 155.768H80.8116V157H79.4996C78.689 157 78.081 156.813 77.6756 156.44C77.2703 156.067 77.0676 155.453 77.0676 154.6V149.432H75.9316V148.232H77.0676V146.024H78.5236V148.232H80.8116V149.432H78.5236ZM86.9278 148.072C87.5891 148.072 88.1864 148.216 88.7198 148.504C89.2531 148.781 89.6691 149.203 89.9678 149.768C90.2771 150.333 90.4318 151.021 90.4318 151.832V157H88.9918V152.04C88.9918 151.165 88.7731 150.499 88.3358 150.04C87.8984 149.571 87.3011 149.336 86.5438 149.336C85.7758 149.336 85.1624 149.576 84.7038 150.056C84.2558 150.536 84.0318 151.235 84.0318 152.152V157H82.5758V145.16H84.0318V149.48C84.3198 149.032 84.7144 148.685 85.2158 148.44C85.7278 148.195 86.2984 148.072 86.9278 148.072ZM108.388 145.928V157H106.932V148.744L103.252 157H102.228L98.5318 148.728V157H97.0758V145.928H98.6438L102.74 155.08L106.836 145.928H108.388ZM118.633 148.232V157H117.177V155.704C116.9 156.152 116.51 156.504 116.009 156.76C115.518 157.005 114.974 157.128 114.377 157.128C113.694 157.128 113.081 156.989 112.537 156.712C111.993 156.424 111.561 155.997 111.241 155.432C110.932 154.867 110.777 154.179 110.777 153.368V148.232H112.217V153.176C112.217 154.04 112.436 154.707 112.873 155.176C113.31 155.635 113.908 155.864 114.665 155.864C115.444 155.864 116.057 155.624 116.505 155.144C116.953 154.664 117.177 153.965 117.177 153.048V148.232H118.633ZM122.547 145.16V157H121.091V145.16H122.547ZM126.805 149.432V154.6C126.805 155.027 126.896 155.331 127.077 155.512C127.258 155.683 127.573 155.768 128.021 155.768H129.093V157H127.781C126.97 157 126.362 156.813 125.957 156.44C125.552 156.067 125.349 155.453 125.349 154.6V149.432H124.213V148.232H125.349V146.024H126.805V148.232H129.093V149.432H126.805ZM131.609 146.808C131.332 146.808 131.097 146.712 130.905 146.52C130.713 146.328 130.617 146.093 130.617 145.816C130.617 145.539 130.713 145.304 130.905 145.112C131.097 144.92 131.332 144.824 131.609 144.824C131.876 144.824 132.1 144.92 132.281 145.112C132.473 145.304 132.569 145.539 132.569 145.816C132.569 146.093 132.473 146.328 132.281 146.52C132.1 146.712 131.876 146.808 131.609 146.808ZM132.313 148.232V157H130.857V148.232H132.313ZM136.251 149.848C136.539 149.347 136.965 148.931 137.531 148.6C138.107 148.259 138.773 148.088 139.531 148.088C140.309 148.088 141.013 148.275 141.642 148.648C142.282 149.021 142.784 149.549 143.147 150.232C143.509 150.904 143.691 151.688 143.691 152.584C143.691 153.469 143.509 154.259 143.147 154.952C142.784 155.645 142.282 156.184 141.642 156.568C141.013 156.952 140.309 157.144 139.531 157.144C138.784 157.144 138.123 156.979 137.547 156.648C136.981 156.307 136.549 155.885 136.251 155.384V161.16H134.795V148.232H136.251V149.848ZM142.203 152.584C142.203 151.923 142.069 151.347 141.803 150.856C141.536 150.365 141.173 149.992 140.715 149.736C140.267 149.48 139.771 149.352 139.227 149.352C138.693 149.352 138.197 149.485 137.739 149.752C137.291 150.008 136.928 150.387 136.651 150.888C136.384 151.379 136.251 151.949 136.251 152.6C136.251 153.261 136.384 153.843 136.651 154.344C136.928 154.835 137.291 155.213 137.739 155.48C138.197 155.736 138.693 155.864 139.227 155.864C139.771 155.864 140.267 155.736 140.715 155.48C141.173 155.213 141.536 154.835 141.803 154.344C142.069 153.843 142.203 153.256 142.203 152.584ZM147.063 145.16V157H145.607V145.16H147.063ZM157.545 152.28C157.545 152.557 157.529 152.851 157.497 153.16H150.489C150.542 154.024 150.835 154.701 151.369 155.192C151.913 155.672 152.569 155.912 153.337 155.912C153.966 155.912 154.489 155.768 154.905 155.48C155.331 155.181 155.63 154.787 155.801 154.296H157.369C157.134 155.139 156.665 155.827 155.961 156.36C155.257 156.883 154.382 157.144 153.337 157.144C152.505 157.144 151.758 156.957 151.097 156.584C150.446 156.211 149.934 155.683 149.561 155C149.187 154.307 149.001 153.507 149.001 152.6C149.001 151.693 149.182 150.899 149.545 150.216C149.907 149.533 150.414 149.011 151.065 148.648C151.726 148.275 152.483 148.088 153.337 148.088C154.169 148.088 154.905 148.269 155.545 148.632C156.185 148.995 156.675 149.496 157.017 150.136C157.369 150.765 157.545 151.48 157.545 152.28ZM156.041 151.976C156.041 151.421 155.918 150.947 155.673 150.552C155.427 150.147 155.091 149.843 154.665 149.64C154.249 149.427 153.785 149.32 153.273 149.32C152.537 149.32 151.907 149.555 151.385 150.024C150.873 150.493 150.579 151.144 150.505 151.976H156.041ZM163.188 151.416C163.188 150.328 163.433 149.352 163.924 148.488C164.415 147.613 165.081 146.931 165.924 146.44C166.777 145.949 167.721 145.704 168.756 145.704C169.972 145.704 171.033 145.997 171.94 146.584C172.847 147.171 173.508 148.003 173.924 149.08H172.18C171.871 148.408 171.423 147.891 170.836 147.528C170.26 147.165 169.567 146.984 168.756 146.984C167.977 146.984 167.279 147.165 166.66 147.528C166.041 147.891 165.556 148.408 165.204 149.08C164.852 149.741 164.676 150.52 164.676 151.416C164.676 152.301 164.852 153.08 165.204 153.752C165.556 154.413 166.041 154.925 166.66 155.288C167.279 155.651 167.977 155.832 168.756 155.832C169.567 155.832 170.26 155.656 170.836 155.304C171.423 154.941 171.871 154.424 172.18 153.752H173.924C173.508 154.819 172.847 155.645 171.94 156.232C171.033 156.808 169.972 157.096 168.756 157.096C167.721 157.096 166.777 156.856 165.924 156.376C165.081 155.885 164.415 155.208 163.924 154.344C163.433 153.48 163.188 152.504 163.188 151.416ZM177.547 149.656C177.803 149.155 178.166 148.765 178.635 148.488C179.115 148.211 179.697 148.072 180.379 148.072V149.576H179.995C178.363 149.576 177.547 150.461 177.547 152.232V157H176.091V148.232H177.547V149.656ZM190.06 152.28C190.06 152.557 190.044 152.851 190.012 153.16H183.004C183.057 154.024 183.351 154.701 183.884 155.192C184.428 155.672 185.084 155.912 185.852 155.912C186.481 155.912 187.004 155.768 187.42 155.48C187.847 155.181 188.145 154.787 188.316 154.296H189.884C189.649 155.139 189.18 155.827 188.476 156.36C187.772 156.883 186.897 157.144 185.852 157.144C185.02 157.144 184.273 156.957 183.612 156.584C182.961 156.211 182.449 155.683 182.076 155C181.703 154.307 181.516 153.507 181.516 152.6C181.516 151.693 181.697 150.899 182.06 150.216C182.423 149.533 182.929 149.011 183.58 148.648C184.241 148.275 184.999 148.088 185.852 148.088C186.684 148.088 187.42 148.269 188.06 148.632C188.7 148.995 189.191 149.496 189.532 150.136C189.884 150.765 190.06 151.48 190.06 152.28ZM188.556 151.976C188.556 151.421 188.433 150.947 188.188 150.552C187.943 150.147 187.607 149.843 187.18 149.64C186.764 149.427 186.3 149.32 185.788 149.32C185.052 149.32 184.423 149.555 183.9 150.024C183.388 150.493 183.095 151.144 183.02 151.976H188.556ZM191.438 152.584C191.438 151.688 191.619 150.904 191.982 150.232C192.345 149.549 192.841 149.021 193.47 148.648C194.11 148.275 194.825 148.088 195.614 148.088C196.297 148.088 196.931 148.248 197.518 148.568C198.105 148.877 198.553 149.288 198.862 149.8V145.16H200.334V157H198.862V155.352C198.574 155.875 198.147 156.307 197.582 156.648C197.017 156.979 196.355 157.144 195.598 157.144C194.819 157.144 194.11 156.952 193.47 156.568C192.841 156.184 192.345 155.645 191.982 154.952C191.619 154.259 191.438 153.469 191.438 152.584ZM198.862 152.6C198.862 151.939 198.729 151.363 198.462 150.872C198.195 150.381 197.833 150.008 197.374 149.752C196.926 149.485 196.43 149.352 195.886 149.352C195.342 149.352 194.846 149.48 194.398 149.736C193.95 149.992 193.593 150.365 193.326 150.856C193.059 151.347 192.926 151.923 192.926 152.584C192.926 153.256 193.059 153.843 193.326 154.344C193.593 154.835 193.95 155.213 194.398 155.48C194.846 155.736 195.342 155.864 195.886 155.864C196.43 155.864 196.926 155.736 197.374 155.48C197.833 155.213 198.195 154.835 198.462 154.344C198.729 153.843 198.862 153.261 198.862 152.6ZM203.547 146.808C203.269 146.808 203.035 146.712 202.843 146.52C202.651 146.328 202.555 146.093 202.555 145.816C202.555 145.539 202.651 145.304 202.843 145.112C203.035 144.92 203.269 144.824 203.547 144.824C203.813 144.824 204.037 144.92 204.219 145.112C204.411 145.304 204.507 145.539 204.507 145.816C204.507 146.093 204.411 146.328 204.219 146.52C204.037 146.712 203.813 146.808 203.547 146.808ZM204.251 148.232V157H202.795V148.232H204.251ZM208.508 149.432V154.6C208.508 155.027 208.599 155.331 208.78 155.512C208.961 155.683 209.276 155.768 209.724 155.768H210.796V157H209.484C208.673 157 208.065 156.813 207.66 156.44C207.255 156.067 207.052 155.453 207.052 154.6V149.432H205.916V148.232H207.052V146.024H208.508V148.232H210.796V149.432H208.508ZM216.282 151.416C216.282 150.328 216.527 149.352 217.018 148.488C217.508 147.613 218.175 146.931 219.018 146.44C219.871 145.949 220.815 145.704 221.85 145.704C223.066 145.704 224.127 145.997 225.034 146.584C225.94 147.171 226.602 148.003 227.018 149.08H225.274C224.964 148.408 224.516 147.891 223.93 147.528C223.354 147.165 222.66 146.984 221.85 146.984C221.071 146.984 220.372 147.165 219.754 147.528C219.135 147.891 218.65 148.408 218.298 149.08C217.946 149.741 217.77 150.52 217.77 151.416C217.77 152.301 217.946 153.08 218.298 153.752C218.65 154.413 219.135 154.925 219.754 155.288C220.372 155.651 221.071 155.832 221.85 155.832C222.66 155.832 223.354 155.656 223.93 155.304C224.516 154.941 224.964 154.424 225.274 153.752H227.018C226.602 154.819 225.94 155.645 225.034 156.232C224.127 156.808 223.066 157.096 221.85 157.096C220.815 157.096 219.871 156.856 219.018 156.376C218.175 155.885 217.508 155.208 217.018 154.344C216.527 153.48 216.282 152.504 216.282 151.416ZM228.641 152.584C228.641 151.688 228.822 150.904 229.185 150.232C229.548 149.549 230.044 149.021 230.673 148.648C231.313 148.275 232.022 148.088 232.801 148.088C233.569 148.088 234.236 148.253 234.801 148.584C235.366 148.915 235.788 149.331 236.065 149.832V148.232H237.537V157H236.065V155.368C235.777 155.88 235.345 156.307 234.769 156.648C234.204 156.979 233.542 157.144 232.785 157.144C232.006 157.144 231.302 156.952 230.673 156.568C230.044 156.184 229.548 155.645 229.185 154.952C228.822 154.259 228.641 153.469 228.641 152.584ZM236.065 152.6C236.065 151.939 235.932 151.363 235.665 150.872C235.398 150.381 235.036 150.008 234.577 149.752C234.129 149.485 233.633 149.352 233.089 149.352C232.545 149.352 232.049 149.48 231.601 149.736C231.153 149.992 230.796 150.365 230.529 150.856C230.262 151.347 230.129 151.923 230.129 152.584C230.129 153.256 230.262 153.843 230.529 154.344C230.796 154.835 231.153 155.213 231.601 155.48C232.049 155.736 232.545 155.864 233.089 155.864C233.633 155.864 234.129 155.736 234.577 155.48C235.036 155.213 235.398 154.835 235.665 154.344C235.932 153.843 236.065 153.261 236.065 152.6ZM241.454 149.656C241.71 149.155 242.072 148.765 242.542 148.488C243.022 148.211 243.603 148.072 244.286 148.072V149.576H243.902C242.27 149.576 241.454 150.461 241.454 152.232V157H239.998V148.232H241.454V149.656ZM245.422 152.584C245.422 151.688 245.604 150.904 245.966 150.232C246.329 149.549 246.825 149.021 247.454 148.648C248.094 148.275 248.809 148.088 249.598 148.088C250.281 148.088 250.916 148.248 251.502 148.568C252.089 148.877 252.537 149.288 252.846 149.8V145.16H254.318V157H252.846V155.352C252.558 155.875 252.132 156.307 251.566 156.648C251.001 156.979 250.34 157.144 249.582 157.144C248.804 157.144 248.094 156.952 247.454 156.568C246.825 156.184 246.329 155.645 245.966 154.952C245.604 154.259 245.422 153.469 245.422 152.584ZM252.846 152.6C252.846 151.939 252.713 151.363 252.446 150.872C252.18 150.381 251.817 150.008 251.358 149.752C250.91 149.485 250.414 149.352 249.87 149.352C249.326 149.352 248.83 149.48 248.382 149.736C247.934 149.992 247.577 150.365 247.31 150.856C247.044 151.347 246.91 151.923 246.91 152.584C246.91 153.256 247.044 153.843 247.31 154.344C247.577 154.835 247.934 155.213 248.382 155.48C248.83 155.736 249.326 155.864 249.87 155.864C250.414 155.864 250.91 155.736 251.358 155.48C251.817 155.213 252.18 154.835 252.446 154.344C252.713 153.843 252.846 153.261 252.846 152.6ZM259.883 157.144C259.211 157.144 258.608 157.032 258.075 156.808C257.542 156.573 257.12 156.253 256.811 155.848C256.502 155.432 256.331 154.957 256.299 154.424H257.803C257.846 154.861 258.048 155.219 258.411 155.496C258.784 155.773 259.27 155.912 259.867 155.912C260.422 155.912 260.859 155.789 261.179 155.544C261.499 155.299 261.659 154.989 261.659 154.616C261.659 154.232 261.488 153.949 261.147 153.768C260.806 153.576 260.278 153.389 259.563 153.208C258.912 153.037 258.379 152.867 257.963 152.696C257.558 152.515 257.206 152.253 256.907 151.912C256.619 151.56 256.475 151.101 256.475 150.536C256.475 150.088 256.608 149.677 256.875 149.304C257.142 148.931 257.52 148.637 258.011 148.424C258.502 148.2 259.062 148.088 259.691 148.088C260.662 148.088 261.446 148.333 262.043 148.824C262.64 149.315 262.96 149.987 263.003 150.84H261.547C261.515 150.381 261.328 150.013 260.987 149.736C260.656 149.459 260.208 149.32 259.643 149.32C259.12 149.32 258.704 149.432 258.395 149.656C258.086 149.88 257.931 150.173 257.931 150.536C257.931 150.824 258.022 151.064 258.203 151.256C258.395 151.437 258.63 151.587 258.907 151.704C259.195 151.811 259.59 151.933 260.091 152.072C260.72 152.243 261.232 152.413 261.627 152.584C262.022 152.744 262.358 152.989 262.635 153.32C262.923 153.651 263.072 154.083 263.083 154.616C263.083 155.096 262.95 155.528 262.683 155.912C262.416 156.296 262.038 156.6 261.547 156.824C261.067 157.037 260.512 157.144 259.883 157.144Z" fill="black"/>
</svg>
