<svg width="289" height="194" viewBox="0 0 289 194" fill="none" xmlns="http://www.w3.org/2000/svg">
<mask id="mask0_1_507" style="mask-type:alpha" maskUnits="userSpaceOnUse" x="108" y="0" width="73" height="72">
<rect x="108.5" width="72" height="72" fill="#D9D9D9"/>
</mask>
<g mask="url(#mask0_1_507)">
<path d="M169.81 32.2932C168.272 29.7359 164.412 28.8567 158.953 29.7812C155.414 27.0747 151.007 25.447 146.217 25.447C134.622 25.447 125.188 34.8814 125.188 46.4767C125.188 47.6421 125.307 48.7766 125.49 49.8915C122.111 54.2844 121.089 58.1008 122.626 60.6581C123.791 62.5956 126.281 63.5252 129.625 63.5252C130.809 63.5252 132.105 63.4017 133.484 63.1721C137.023 65.8787 141.428 67.5053 146.217 67.5053C157.814 67.5053 167.247 58.072 167.247 46.4757C167.247 45.3113 167.128 44.1768 166.944 43.0628C170.191 38.8223 171.387 34.9195 169.81 32.2932ZM168.487 33.089C169.606 34.9524 168.774 37.8175 166.513 41.0543C165.477 37.1864 163.372 33.7613 160.524 31.1072C164.56 30.6326 167.425 31.3265 168.487 33.089ZM146.217 26.9913C150.777 26.9913 154.966 28.5777 158.29 31.2102C158.3 31.2174 158.309 31.2256 158.318 31.2318C161.854 34.0434 164.397 38.0471 165.319 42.6377C162.142 46.556 157.106 50.8469 151.039 54.4944C144.973 58.1399 138.827 60.5726 133.877 61.5414C129.519 57.9649 126.733 52.5415 126.733 46.4767C126.732 35.7328 135.474 26.9913 146.217 26.9913ZM123.949 59.8623C122.891 58.1018 123.619 55.2511 125.926 51.9125C126.964 55.7782 129.069 59.1993 131.917 61.8502C127.996 62.329 125.069 61.7246 123.949 59.8623ZM165.703 46.4767C165.703 57.2216 156.962 65.9621 146.217 65.9621C142.281 65.9621 138.618 64.7802 135.55 62.7634C140.392 61.6371 146.074 59.2806 151.834 55.8184C157.597 52.3551 162.346 48.4399 165.612 44.6905C165.666 45.2794 165.703 45.8734 165.703 46.4767Z" fill="black"/>
<path d="M123.347 28.5026C123.347 28.2205 123.194 27.9611 122.946 27.8252L119.492 25.936L117.603 22.481C117.331 21.9858 116.518 21.9858 116.248 22.481L114.357 25.936L110.902 27.8252C110.653 27.9611 110.5 28.2205 110.5 28.5026C110.5 28.7847 110.653 29.0441 110.902 29.18L114.357 31.0702L116.246 34.5252C116.382 34.7733 116.641 34.9267 116.923 34.9267C117.205 34.9267 117.465 34.7733 117.6 34.5252L119.49 31.0702L122.944 29.18C123.193 29.0441 123.347 28.7847 123.347 28.5026ZM118.552 29.8234C118.422 29.8945 118.316 30.0005 118.245 30.1302L116.924 32.5454L115.603 30.1302C115.532 30.0005 115.426 29.8945 115.296 29.8234L112.881 28.5026L115.296 27.1828C115.426 27.1117 115.532 27.0057 115.603 26.876L116.924 24.4607L118.245 26.876C118.316 27.0057 118.422 27.1117 118.552 27.1828L120.966 28.5026L118.552 29.8234Z" fill="black"/>
<path d="M119.563 14.9893L124.885 17.8997L127.796 23.2212C127.932 23.4693 128.191 23.6227 128.473 23.6227C128.755 23.6227 129.015 23.4693 129.151 23.2212L132.061 17.8997L137.384 14.9893C137.632 14.8534 137.785 14.5939 137.785 14.3119C137.785 14.0298 137.632 13.7703 137.384 13.6344L132.061 10.724L129.151 5.40151C129.015 5.1534 128.755 5 128.473 5C128.191 5 127.932 5.1534 127.796 5.40151L124.885 10.723L119.563 13.6334C119.315 13.7693 119.161 14.0287 119.161 14.3108C119.161 14.5929 119.315 14.8534 119.563 14.9893ZM125.824 11.9697C125.954 11.8987 126.06 11.7927 126.131 11.6629L128.472 7.38124L130.813 11.6629C130.884 11.7927 130.99 11.8987 131.12 11.9697L135.403 14.3108L131.12 16.6519C130.99 16.7229 130.884 16.829 130.813 16.9587L128.472 21.2404L126.131 16.9587C126.06 16.829 125.954 16.7229 125.824 16.6519L121.542 14.3108L125.824 11.9697Z" fill="black"/>
<path d="M143.852 16.9045L147.308 18.7946L149.196 22.2486C149.332 22.4957 149.591 22.6501 149.873 22.6501C150.155 22.6501 150.415 22.4967 150.551 22.2486L152.441 18.7946L155.897 16.9045C156.144 16.7686 156.298 16.5091 156.298 16.227C156.298 15.945 156.145 15.6855 155.896 15.5496L152.441 13.6605L150.551 10.2055C150.279 9.71029 149.467 9.71132 149.196 10.2055L147.308 13.6605L143.853 15.5496C143.605 15.6855 143.45 15.945 143.45 16.227C143.45 16.5091 143.605 16.7686 143.852 16.9045ZM148.248 14.9072C148.377 14.8362 148.484 14.7301 148.556 14.6004L149.874 12.1852L151.195 14.5994C151.266 14.7291 151.373 14.8352 151.503 14.9062L153.918 16.226L151.502 17.5469C151.373 17.6179 151.266 17.7239 151.195 17.8537L149.874 20.2689L148.556 17.8547C148.485 17.725 148.377 17.6189 148.249 17.5479L145.833 16.227L148.248 14.9072Z" fill="black"/>
</g>
<path d="M47.9793 117.2C48.4193 117.2 48.7793 117.167 49.0593 117.1C49.3526 117.033 49.5926 116.913 49.7793 116.74C49.9793 116.553 50.146 116.313 50.2793 116.02C50.4126 115.713 50.5393 115.32 50.6593 114.84L52.9793 106.02C53.0726 105.673 53.1393 105.373 53.1793 105.12C53.2326 104.867 53.2593 104.647 53.2593 104.46C53.2593 104.02 53.106 103.733 52.7993 103.6C52.4926 103.467 51.9793 103.4 51.2593 103.4L51.4793 102.6H62.3993V106.64H61.6393C61.466 106 61.2726 105.48 61.0593 105.08C60.846 104.667 60.5993 104.347 60.3193 104.12C60.0526 103.88 59.746 103.713 59.3993 103.62C59.066 103.527 58.6926 103.48 58.2793 103.48H55.6793L54.1193 109.42H55.4793C55.8393 109.42 56.146 109.387 56.3993 109.32C56.6526 109.253 56.8793 109.14 57.0793 108.98C57.2926 108.807 57.486 108.573 57.6593 108.28C57.846 107.987 58.046 107.607 58.2593 107.14H58.9993L57.5993 113.46H56.7993C56.8393 112.98 56.8593 112.567 56.8593 112.22C56.8593 111.553 56.7593 111.067 56.5593 110.76C56.3593 110.453 55.9926 110.3 55.4593 110.3H53.8593L52.7193 114.6C52.5993 115.04 52.5393 115.413 52.5393 115.72C52.5393 116.2 52.7193 116.56 53.0793 116.8C53.4393 117.027 54.0726 117.14 54.9793 117.14L54.7593 118H47.7593L47.9793 117.2ZM61.8829 110.18C62.0296 109.847 62.2496 109.507 62.5429 109.16C62.8496 108.8 63.1762 108.48 63.5229 108.2C63.8829 107.907 64.2429 107.667 64.6029 107.48C64.9629 107.293 65.2762 107.2 65.5429 107.2C65.8629 107.2 66.0962 107.32 66.2429 107.56C66.3896 107.8 66.4629 108.187 66.4629 108.72C66.4629 108.933 66.4496 109.14 66.4229 109.34C66.4096 109.54 66.3762 109.773 66.3229 110.04L66.3829 110.1C66.5429 109.713 66.7696 109.333 67.0629 108.96C67.3562 108.587 67.6696 108.26 68.0029 107.98C68.3496 107.687 68.6962 107.453 69.0429 107.28C69.4029 107.093 69.7362 107 70.0429 107C70.4296 107 70.7496 107.127 71.0029 107.38C71.2696 107.62 71.4029 107.92 71.4029 108.28C71.4029 108.627 71.2896 108.913 71.0629 109.14C70.8496 109.367 70.5696 109.48 70.2229 109.48C70.0096 109.48 69.8362 109.44 69.7029 109.36C69.5829 109.28 69.4762 109.2 69.3829 109.12C69.2896 109.027 69.2029 108.94 69.1229 108.86C69.0429 108.78 68.9429 108.74 68.8229 108.74C68.5696 108.74 68.2762 108.913 67.9429 109.26C67.6096 109.593 67.2629 110.053 66.9029 110.64C66.5429 111.227 66.1829 111.913 65.8229 112.7C65.4762 113.487 65.1562 114.333 64.8629 115.24L63.9629 118H62.1029L63.4029 113.86C63.6562 113.06 63.8629 112.4 64.0229 111.88C64.1962 111.347 64.3296 110.907 64.4229 110.56C64.5162 110.2 64.5762 109.92 64.6029 109.72C64.6429 109.52 64.6629 109.347 64.6629 109.2C64.6629 108.907 64.5629 108.76 64.3629 108.76C64.2296 108.76 64.0629 108.813 63.8629 108.92C63.6762 109.027 63.4896 109.16 63.3029 109.32C63.1162 109.48 62.9362 109.66 62.7629 109.86C62.6029 110.06 62.4829 110.253 62.4029 110.44L61.8829 110.18ZM77.8477 115.34C76.6877 117.247 75.2611 118.2 73.5677 118.2C72.6477 118.2 71.9411 117.92 71.4477 117.36C70.9544 116.787 70.7077 115.98 70.7077 114.94C70.7077 114.02 70.8944 113.1 71.2677 112.18C71.6544 111.26 72.1544 110.433 72.7677 109.7C73.3811 108.953 74.0677 108.353 74.8277 107.9C75.5877 107.433 76.3477 107.2 77.1077 107.2C77.7477 107.2 78.2677 107.367 78.6677 107.7C79.0811 108.02 79.2877 108.433 79.2877 108.94C79.2877 109.407 79.1144 109.887 78.7677 110.38C78.4211 110.873 77.9477 111.34 77.3477 111.78C76.7611 112.22 76.0677 112.62 75.2677 112.98C74.4811 113.34 73.6411 113.62 72.7477 113.82C72.7211 114.007 72.7011 114.193 72.6877 114.38C72.6744 114.553 72.6677 114.733 72.6677 114.92C72.6677 116.373 73.1811 117.1 74.2077 117.1C74.7011 117.1 75.2077 116.907 75.7277 116.52C76.2611 116.133 76.7544 115.6 77.2077 114.92L77.8477 115.34ZM76.7077 108.14C76.3611 108.14 76.0011 108.273 75.6277 108.54C75.2544 108.807 74.8944 109.167 74.5477 109.62C74.2144 110.06 73.9077 110.567 73.6277 111.14C73.3477 111.713 73.1211 112.307 72.9477 112.92C73.5877 112.747 74.1811 112.52 74.7277 112.24C75.2744 111.96 75.7411 111.647 76.1277 111.3C76.5277 110.94 76.8411 110.567 77.0677 110.18C77.2944 109.78 77.4077 109.38 77.4077 108.98C77.4077 108.42 77.1744 108.14 76.7077 108.14ZM86.9688 115.34C85.8088 117.247 84.3822 118.2 82.6888 118.2C81.7688 118.2 81.0622 117.92 80.5688 117.36C80.0755 116.787 79.8288 115.98 79.8288 114.94C79.8288 114.02 80.0155 113.1 80.3888 112.18C80.7755 111.26 81.2755 110.433 81.8888 109.7C82.5022 108.953 83.1888 108.353 83.9488 107.9C84.7088 107.433 85.4688 107.2 86.2288 107.2C86.8688 107.2 87.3888 107.367 87.7888 107.7C88.2022 108.02 88.4088 108.433 88.4088 108.94C88.4088 109.407 88.2355 109.887 87.8888 110.38C87.5422 110.873 87.0688 111.34 86.4688 111.78C85.8822 112.22 85.1888 112.62 84.3888 112.98C83.6022 113.34 82.7622 113.62 81.8688 113.82C81.8422 114.007 81.8222 114.193 81.8088 114.38C81.7955 114.553 81.7888 114.733 81.7888 114.92C81.7888 116.373 82.3022 117.1 83.3288 117.1C83.8222 117.1 84.3288 116.907 84.8488 116.52C85.3822 116.133 85.8755 115.6 86.3288 114.92L86.9688 115.34ZM85.8288 108.14C85.4822 108.14 85.1222 108.273 84.7488 108.54C84.3755 108.807 84.0155 109.167 83.6688 109.62C83.3355 110.06 83.0288 110.567 82.7488 111.14C82.4688 111.713 82.2422 112.307 82.0688 112.92C82.7088 112.747 83.3022 112.52 83.8488 112.24C84.3955 111.96 84.8622 111.647 85.2488 111.3C85.6488 110.94 85.9622 110.567 86.1888 110.18C86.4155 109.78 86.5288 109.38 86.5288 108.98C86.5288 108.42 86.2955 108.14 85.8288 108.14ZM101.938 102.4C102.751 102.4 103.404 102.607 103.898 103.02C104.404 103.433 104.658 103.98 104.658 104.66C104.658 104.98 104.598 105.253 104.478 105.48C104.358 105.693 104.198 105.82 103.998 105.86C103.771 105.353 103.458 104.96 103.058 104.68C102.658 104.387 102.204 104.24 101.698 104.24C101.084 104.24 100.578 104.447 100.178 104.86C99.7911 105.26 99.5977 105.78 99.5977 106.42C99.5977 107.1 99.8244 107.513 100.278 107.66C100.598 107.767 100.864 107.867 101.078 107.96C101.291 108.04 101.458 108.133 101.578 108.24C101.698 108.333 101.778 108.44 101.818 108.56C101.871 108.667 101.898 108.8 101.898 108.96C101.898 109.253 101.811 109.48 101.638 109.64C101.478 109.8 101.244 109.88 100.938 109.88C100.658 109.88 100.431 109.82 100.258 109.7C100.084 109.58 99.9244 109.453 99.7777 109.32C99.6311 109.173 99.4777 109.04 99.3177 108.92C99.1577 108.8 98.9577 108.74 98.7177 108.74C98.2511 108.74 97.8644 108.973 97.5577 109.44C97.2511 109.893 97.0977 110.467 97.0977 111.16C97.0977 111.853 97.2444 112.5 97.5377 113.1C97.8444 113.7 98.2577 114.227 98.7777 114.68C99.3111 115.12 99.9311 115.467 100.638 115.72C101.344 115.973 102.104 116.1 102.918 116.1C103.664 116.1 104.371 115.98 105.038 115.74C105.718 115.5 106.311 115.173 106.818 114.76C107.324 114.347 107.724 113.867 108.018 113.32C108.311 112.773 108.458 112.193 108.458 111.58C108.458 111.167 108.384 110.78 108.238 110.42C108.091 110.047 107.891 109.727 107.638 109.46C107.398 109.193 107.104 108.987 106.758 108.84C106.424 108.68 106.058 108.6 105.658 108.6C105.004 108.6 104.478 108.767 104.078 109.1C103.678 109.42 103.478 109.853 103.478 110.4C103.478 110.8 103.578 111.14 103.778 111.42C103.991 111.687 104.251 111.82 104.558 111.82C104.864 111.82 105.018 111.66 105.018 111.34C105.018 111.247 105.011 111.147 104.998 111.04C104.984 110.92 104.978 110.813 104.978 110.72C104.978 110.493 105.051 110.307 105.198 110.16C105.344 110 105.531 109.92 105.758 109.92C106.038 109.92 106.278 110.04 106.478 110.28C106.678 110.52 106.778 110.813 106.778 111.16C106.778 111.4 106.724 111.627 106.618 111.84C106.511 112.04 106.364 112.22 106.178 112.38C105.991 112.527 105.771 112.647 105.518 112.74C105.264 112.833 104.998 112.88 104.718 112.88C104.398 112.88 104.098 112.82 103.818 112.7C103.551 112.567 103.318 112.387 103.118 112.16C102.931 111.933 102.778 111.667 102.658 111.36C102.551 111.04 102.498 110.693 102.498 110.32C102.498 109.84 102.591 109.4 102.778 109C102.978 108.6 103.244 108.26 103.578 107.98C103.924 107.687 104.331 107.46 104.798 107.3C105.278 107.14 105.804 107.06 106.378 107.06H108.478C109.278 107.06 109.918 106.893 110.398 106.56C110.878 106.227 111.118 105.78 111.118 105.22C111.118 104.873 111.011 104.573 110.798 104.32C110.584 104.053 110.344 103.92 110.078 103.92C109.851 103.92 109.711 103.993 109.658 104.14C109.604 104.287 109.558 104.447 109.518 104.62C109.478 104.78 109.404 104.933 109.298 105.08C109.204 105.227 108.991 105.3 108.658 105.3C108.338 105.3 108.084 105.213 107.898 105.04C107.724 104.853 107.638 104.6 107.638 104.28C107.638 103.84 107.804 103.493 108.138 103.24C108.471 102.973 108.924 102.84 109.498 102.84C109.911 102.84 110.291 102.913 110.638 103.06C110.998 103.207 111.304 103.407 111.558 103.66C111.811 103.913 112.011 104.22 112.158 104.58C112.304 104.927 112.378 105.307 112.378 105.72C112.378 106.187 112.278 106.62 112.078 107.02C111.891 107.407 111.624 107.747 111.278 108.04C110.944 108.333 110.538 108.567 110.058 108.74C109.591 108.9 109.078 108.987 108.518 109L108.478 109.08C108.824 109.293 109.104 109.673 109.318 110.22C109.544 110.767 109.658 111.38 109.658 112.06C109.658 112.913 109.464 113.713 109.078 114.46C108.704 115.207 108.191 115.86 107.538 116.42C106.884 116.967 106.111 117.4 105.218 117.72C104.324 118.04 103.371 118.2 102.358 118.2C101.358 118.2 100.431 118.047 99.5777 117.74C98.7244 117.433 97.9844 117.013 97.3577 116.48C96.7311 115.947 96.2377 115.32 95.8777 114.6C95.5311 113.867 95.3577 113.073 95.3577 112.22C95.3577 111.047 95.6577 110.053 96.2577 109.24C96.8711 108.413 97.6977 107.867 98.7377 107.6C98.6311 107.373 98.5444 107.087 98.4777 106.74C98.4244 106.38 98.3977 106.04 98.3977 105.72C98.3977 105.227 98.4844 104.78 98.6577 104.38C98.8311 103.967 99.0711 103.613 99.3777 103.32C99.6977 103.027 100.071 102.8 100.498 102.64C100.938 102.48 101.418 102.4 101.938 102.4ZM117.354 117.2C117.794 117.2 118.154 117.167 118.434 117.1C118.728 117.033 118.968 116.913 119.154 116.74C119.354 116.553 119.521 116.313 119.654 116.02C119.788 115.713 119.914 115.32 120.034 114.84L122.354 106.02C122.448 105.673 122.514 105.373 122.554 105.12C122.608 104.867 122.634 104.647 122.634 104.46C122.634 104.02 122.481 103.733 122.174 103.6C121.868 103.467 121.354 103.4 120.634 103.4L120.854 102.6H131.774V106.64H131.014C130.841 106 130.648 105.48 130.434 105.08C130.221 104.667 129.974 104.347 129.694 104.12C129.428 103.88 129.121 103.713 128.774 103.62C128.441 103.527 128.068 103.48 127.654 103.48H125.054L123.494 109.42H124.854C125.214 109.42 125.521 109.387 125.774 109.32C126.028 109.253 126.254 109.14 126.454 108.98C126.668 108.807 126.861 108.573 127.034 108.28C127.221 107.987 127.421 107.607 127.634 107.14H128.374L126.974 113.46H126.174C126.214 112.98 126.234 112.567 126.234 112.22C126.234 111.553 126.134 111.067 125.934 110.76C125.734 110.453 125.368 110.3 124.834 110.3H123.234L122.094 114.6C121.974 115.04 121.914 115.413 121.914 115.72C121.914 116.2 122.094 116.56 122.454 116.8C122.814 117.027 123.448 117.14 124.354 117.14L124.134 118H117.134L117.354 117.2ZM136.872 108.24C136.366 108.24 135.839 108.473 135.292 108.94C134.759 109.407 134.272 109.993 133.832 110.7C133.392 111.393 133.032 112.147 132.752 112.96C132.472 113.76 132.332 114.507 132.332 115.2C132.332 115.68 132.432 116.067 132.632 116.36C132.832 116.64 133.106 116.78 133.452 116.78C133.759 116.78 134.079 116.66 134.412 116.42C134.746 116.167 135.066 115.84 135.372 115.44C135.692 115.027 135.992 114.56 136.272 114.04C136.552 113.52 136.799 112.987 137.012 112.44C137.226 111.88 137.392 111.333 137.512 110.8C137.632 110.267 137.692 109.787 137.692 109.36C137.692 109.013 137.619 108.74 137.472 108.54C137.326 108.34 137.126 108.24 136.872 108.24ZM138.932 107.4H140.592L139.452 110.46C139.266 110.967 139.079 111.507 138.892 112.08C138.719 112.653 138.559 113.207 138.412 113.74C138.279 114.273 138.172 114.76 138.092 115.2C138.012 115.64 137.972 115.967 137.972 116.18C137.972 116.567 138.099 116.76 138.352 116.76C138.539 116.76 138.806 116.567 139.152 116.18C139.512 115.793 139.912 115.293 140.352 114.68L140.872 115.1C140.312 116.087 139.706 116.853 139.052 117.4C138.412 117.933 137.792 118.2 137.192 118.2C136.886 118.2 136.646 118.087 136.472 117.86C136.312 117.62 136.232 117.233 136.232 116.7C136.232 116.58 136.232 116.44 136.232 116.28C136.246 116.12 136.266 115.907 136.292 115.64L136.212 115.62C136.012 115.993 135.772 116.34 135.492 116.66C135.226 116.967 134.932 117.24 134.612 117.48C134.292 117.707 133.959 117.88 133.612 118C133.266 118.133 132.926 118.2 132.592 118.2C131.912 118.2 131.379 117.947 130.992 117.44C130.619 116.92 130.432 116.207 130.432 115.3C130.432 114.38 130.626 113.44 131.012 112.48C131.399 111.52 131.899 110.653 132.512 109.88C133.126 109.093 133.806 108.453 134.552 107.96C135.299 107.453 136.032 107.2 136.752 107.2C137.192 107.2 137.552 107.307 137.832 107.52C138.112 107.72 138.339 108.053 138.512 108.52L138.932 107.4ZM143.179 110.26C143.179 109.82 143.259 109.413 143.419 109.04C143.592 108.667 143.825 108.347 144.119 108.08C144.412 107.8 144.759 107.587 145.159 107.44C145.572 107.28 146.019 107.2 146.499 107.2C147.139 107.2 147.672 107.36 148.099 107.68C148.525 108 148.739 108.413 148.739 108.92C148.739 109.2 148.659 109.42 148.499 109.58C148.352 109.74 148.145 109.82 147.879 109.82C147.572 109.82 147.352 109.733 147.219 109.56C147.085 109.373 146.972 109.173 146.879 108.96C146.785 108.733 146.685 108.527 146.579 108.34C146.472 108.153 146.292 108.06 146.039 108.06C145.745 108.06 145.499 108.187 145.299 108.44C145.099 108.693 144.999 109.007 144.999 109.38C144.999 109.82 145.125 110.233 145.379 110.62C145.645 110.993 145.939 111.387 146.259 111.8C146.579 112.213 146.865 112.667 147.119 113.16C147.385 113.653 147.519 114.233 147.519 114.9C147.519 115.353 147.419 115.78 147.219 116.18C147.032 116.58 146.772 116.933 146.439 117.24C146.119 117.533 145.745 117.767 145.319 117.94C144.892 118.113 144.452 118.2 143.999 118.2C143.199 118.2 142.559 118.027 142.079 117.68C141.612 117.333 141.379 116.88 141.379 116.32C141.379 115.933 141.465 115.633 141.639 115.42C141.825 115.193 142.072 115.08 142.379 115.08C142.952 115.08 143.279 115.473 143.359 116.26C143.399 116.687 143.465 116.973 143.559 117.12C143.665 117.253 143.872 117.32 144.179 117.32C144.659 117.32 145.039 117.18 145.319 116.9C145.599 116.607 145.739 116.207 145.739 115.7C145.739 115.167 145.605 114.693 145.339 114.28C145.072 113.867 144.779 113.467 144.459 113.08C144.139 112.68 143.845 112.26 143.579 111.82C143.312 111.38 143.179 110.86 143.179 110.26ZM153.956 109.06L152.296 114.56C152.069 115.28 151.949 115.827 151.936 116.2C151.936 116.32 151.963 116.427 152.016 116.52C152.083 116.613 152.189 116.66 152.336 116.66C152.576 116.66 152.829 116.573 153.096 116.4C153.363 116.213 153.616 116 153.856 115.76C154.109 115.507 154.329 115.253 154.516 115C154.716 114.733 154.863 114.527 154.956 114.38L155.536 114.72C155.309 115.173 155.023 115.613 154.676 116.04C154.329 116.453 153.963 116.82 153.576 117.14C153.189 117.46 152.796 117.72 152.396 117.92C152.009 118.107 151.656 118.2 151.336 118.2C150.869 118.2 150.529 118.1 150.316 117.9C150.116 117.7 150.016 117.367 150.016 116.9C150.016 116.633 150.063 116.273 150.156 115.82C150.249 115.367 150.409 114.747 150.636 113.96L152.116 109.06H150.396L150.656 108.14H152.396L153.436 104.7H155.276L154.236 108.14H156.416L156.136 109.06H153.956ZM165.056 102.6H170.476C171.396 102.6 172.289 102.713 173.156 102.94C174.023 103.153 174.809 103.553 175.516 104.14C176.276 104.767 176.829 105.513 177.176 106.38C177.523 107.233 177.696 108.127 177.696 109.06C177.696 109.66 177.623 110.267 177.476 110.88C177.343 111.48 177.149 112.067 176.896 112.64C176.656 113.2 176.363 113.733 176.016 114.24C175.683 114.733 175.316 115.18 174.916 115.58C173.983 116.5 172.949 117.133 171.816 117.48C170.683 117.827 169.469 118 168.176 118H161.176L161.396 117.2C161.823 117.2 162.176 117.173 162.456 117.12C162.749 117.067 162.989 116.96 163.176 116.8C163.376 116.627 163.543 116.387 163.676 116.08C163.823 115.773 163.963 115.36 164.096 114.84L166.396 106C166.423 105.907 166.456 105.787 166.496 105.64C166.549 105.493 166.603 105.333 166.656 105.16C166.709 104.987 166.749 104.82 166.776 104.66C166.816 104.5 166.836 104.36 166.836 104.24C166.836 104.04 166.776 103.887 166.656 103.78C166.549 103.673 166.409 103.593 166.236 103.54C166.076 103.473 165.896 103.433 165.696 103.42C165.509 103.407 165.336 103.4 165.176 103.4H164.796L165.056 102.6ZM166.496 113.38C166.389 113.78 166.303 114.113 166.236 114.38C166.169 114.633 166.116 114.847 166.076 115.02C166.049 115.18 166.029 115.307 166.016 115.4C166.003 115.493 165.996 115.573 165.996 115.64C165.996 116 166.069 116.28 166.216 116.48C166.376 116.667 166.563 116.813 166.776 116.92C166.989 117.013 167.209 117.073 167.436 117.1C167.663 117.113 167.849 117.12 167.996 117.12C168.863 117.12 169.649 117 170.356 116.76C171.063 116.52 171.689 116.193 172.236 115.78C172.783 115.353 173.249 114.867 173.636 114.32C174.036 113.773 174.363 113.193 174.616 112.58C174.883 111.967 175.076 111.347 175.196 110.72C175.316 110.08 175.376 109.46 175.376 108.86C175.376 107.18 174.923 105.887 174.016 104.98C173.123 104.06 171.889 103.6 170.316 103.6C169.929 103.6 169.616 103.66 169.376 103.78C169.149 103.887 168.976 104.167 168.856 104.62L166.496 113.38ZM185.797 115.34C184.637 117.247 183.21 118.2 181.517 118.2C180.597 118.2 179.89 117.92 179.397 117.36C178.904 116.787 178.657 115.98 178.657 114.94C178.657 114.02 178.844 113.1 179.217 112.18C179.604 111.26 180.104 110.433 180.717 109.7C181.33 108.953 182.017 108.353 182.777 107.9C183.537 107.433 184.297 107.2 185.057 107.2C185.697 107.2 186.217 107.367 186.617 107.7C187.03 108.02 187.237 108.433 187.237 108.94C187.237 109.407 187.064 109.887 186.717 110.38C186.37 110.873 185.897 111.34 185.297 111.78C184.71 112.22 184.017 112.62 183.217 112.98C182.43 113.34 181.59 113.62 180.697 113.82C180.67 114.007 180.65 114.193 180.637 114.38C180.624 114.553 180.617 114.733 180.617 114.92C180.617 116.373 181.13 117.1 182.157 117.1C182.65 117.1 183.157 116.907 183.677 116.52C184.21 116.133 184.704 115.6 185.157 114.92L185.797 115.34ZM184.657 108.14C184.31 108.14 183.95 108.273 183.577 108.54C183.204 108.807 182.844 109.167 182.497 109.62C182.164 110.06 181.857 110.567 181.577 111.14C181.297 111.713 181.07 112.307 180.897 112.92C181.537 112.747 182.13 112.52 182.677 112.24C183.224 111.96 183.69 111.647 184.077 111.3C184.477 110.94 184.79 110.567 185.017 110.18C185.244 109.78 185.357 109.38 185.357 108.98C185.357 108.42 185.124 108.14 184.657 108.14ZM191.158 104.18C191.225 103.94 191.291 103.7 191.358 103.46C191.425 103.207 191.458 103.02 191.458 102.9C191.458 102.433 190.951 102.2 189.938 102.2L190.098 101.6L193.758 101.42L190.178 114.56C190.071 114.92 189.991 115.24 189.938 115.52C189.885 115.787 189.858 116.013 189.858 116.2C189.858 116.32 189.891 116.427 189.958 116.52C190.025 116.613 190.131 116.66 190.278 116.66C190.491 116.66 190.718 116.573 190.958 116.4C191.198 116.213 191.425 116 191.638 115.76C191.865 115.507 192.065 115.253 192.238 115C192.411 114.733 192.538 114.527 192.618 114.38L193.218 114.72C193.018 115.173 192.758 115.613 192.438 116.04C192.118 116.453 191.778 116.82 191.418 117.14C191.058 117.46 190.691 117.72 190.318 117.92C189.958 118.107 189.625 118.2 189.318 118.2C188.851 118.2 188.505 118.1 188.278 117.9C188.065 117.7 187.958 117.367 187.958 116.9C187.958 116.633 187.998 116.273 188.078 115.82C188.158 115.367 188.298 114.747 188.498 113.96L191.158 104.18ZM196.388 111.4C196.574 110.88 196.708 110.46 196.788 110.14C196.868 109.82 196.908 109.567 196.908 109.38C196.908 109.193 196.874 109.073 196.808 109.02C196.754 108.953 196.694 108.92 196.628 108.92C196.481 108.92 196.321 108.993 196.148 109.14C195.974 109.273 195.801 109.433 195.628 109.62C195.454 109.807 195.301 109.993 195.168 110.18C195.034 110.367 194.941 110.513 194.888 110.62L194.308 110.26C194.468 109.967 194.688 109.64 194.968 109.28C195.261 108.92 195.588 108.587 195.948 108.28C196.308 107.973 196.681 107.72 197.068 107.52C197.454 107.307 197.821 107.2 198.168 107.2C198.501 107.2 198.748 107.3 198.908 107.5C199.081 107.687 199.168 108.033 199.168 108.54C199.168 108.927 199.048 109.447 198.808 110.1C198.581 110.753 198.281 111.593 197.908 112.62L197.168 114.64C197.141 114.707 197.101 114.813 197.048 114.96C197.008 115.093 196.961 115.24 196.908 115.4C196.868 115.547 196.828 115.693 196.788 115.84C196.761 115.987 196.748 116.107 196.748 116.2C196.748 116.32 196.781 116.427 196.848 116.52C196.914 116.613 197.021 116.66 197.168 116.66C197.368 116.66 197.574 116.58 197.788 116.42C198.001 116.247 198.208 116.047 198.408 115.82C198.608 115.593 198.788 115.367 198.948 115.14C199.108 114.9 199.228 114.713 199.308 114.58L199.908 114.92C199.748 115.24 199.528 115.593 199.248 115.98C198.981 116.367 198.674 116.727 198.328 117.06C197.981 117.38 197.601 117.653 197.188 117.88C196.774 118.093 196.348 118.2 195.908 118.2C195.521 118.2 195.228 118.1 195.028 117.9C194.841 117.7 194.748 117.367 194.748 116.9C194.748 116.513 194.808 116.1 194.928 115.66C195.061 115.207 195.248 114.64 195.488 113.96L196.388 111.4ZM199.328 103.92C198.994 103.92 198.701 103.807 198.448 103.58C198.208 103.353 198.088 103.06 198.088 102.7C198.088 102.34 198.208 102.033 198.448 101.78C198.688 101.527 198.981 101.4 199.328 101.4C199.701 101.4 200.008 101.527 200.248 101.78C200.488 102.033 200.608 102.333 200.608 102.68C200.608 103.027 200.481 103.32 200.228 103.56C199.974 103.8 199.674 103.92 199.328 103.92ZM209.706 110.86C209.706 110.593 209.68 110.353 209.626 110.14C209.586 109.913 209.533 109.7 209.466 109.5C209.413 109.3 209.36 109.107 209.306 108.92C209.266 108.733 209.246 108.54 209.246 108.34C209.246 107.58 209.593 107.2 210.286 107.2C210.7 107.2 210.993 107.347 211.166 107.64C211.353 107.933 211.446 108.42 211.446 109.1C211.446 109.807 211.36 110.527 211.186 111.26C211.013 111.98 210.773 112.68 210.466 113.36C210.16 114.027 209.8 114.653 209.386 115.24C208.973 115.827 208.533 116.34 208.066 116.78C207.6 117.22 207.113 117.567 206.606 117.82C206.113 118.073 205.62 118.2 205.126 118.2C204.766 118.2 204.426 118.133 204.106 118C203.8 117.853 203.533 117.653 203.306 117.4C203.08 117.147 202.9 116.847 202.766 116.5C202.646 116.153 202.586 115.78 202.586 115.38C202.586 114.62 202.793 113.727 203.206 112.7C203.62 111.673 204.206 110.613 204.966 109.52L204.926 109.46C204.566 109.46 204.266 109.407 204.026 109.3C203.786 109.193 203.58 109.073 203.406 108.94C203.246 108.807 203.1 108.687 202.966 108.58C202.846 108.473 202.72 108.42 202.586 108.42C202.36 108.42 202.246 108.533 202.246 108.76C202.246 108.88 202.28 108.987 202.346 109.08C202.426 109.173 202.506 109.267 202.586 109.36C202.68 109.453 202.76 109.56 202.826 109.68C202.906 109.787 202.946 109.92 202.946 110.08C202.946 110.32 202.853 110.52 202.666 110.68C202.48 110.827 202.24 110.9 201.946 110.9C201.6 110.9 201.333 110.793 201.146 110.58C200.96 110.367 200.866 110.067 200.866 109.68C200.866 109.347 200.933 109.033 201.066 108.74C201.2 108.433 201.38 108.167 201.606 107.94C201.833 107.713 202.093 107.533 202.386 107.4C202.693 107.267 203.013 107.2 203.346 107.2C203.613 107.2 203.84 107.247 204.026 107.34C204.213 107.42 204.386 107.52 204.546 107.64C204.706 107.747 204.86 107.847 205.006 107.94C205.166 108.02 205.353 108.06 205.566 108.06C205.82 108.06 206.046 107.96 206.246 107.76C206.526 107.507 206.713 107.353 206.806 107.3C206.913 107.233 207.046 107.2 207.206 107.2C207.473 107.2 207.606 107.313 207.606 107.54C207.606 107.593 207.6 107.64 207.586 107.68C207.573 107.72 207.54 107.78 207.486 107.86C207.446 107.94 207.366 108.047 207.246 108.18C207.14 108.313 206.986 108.5 206.786 108.74C206.48 109.113 206.2 109.533 205.946 110C205.693 110.467 205.473 110.953 205.286 111.46C205.1 111.967 204.953 112.48 204.846 113C204.74 113.507 204.686 113.987 204.686 114.44C204.686 115.16 204.806 115.74 205.046 116.18C205.3 116.607 205.62 116.82 206.006 116.82C206.38 116.82 206.78 116.62 207.206 116.22C207.633 115.82 208.033 115.327 208.406 114.74C208.78 114.14 209.086 113.493 209.326 112.8C209.58 112.107 209.706 111.46 209.706 110.86ZM219.469 115.34C218.309 117.247 216.882 118.2 215.189 118.2C214.269 118.2 213.562 117.92 213.069 117.36C212.575 116.787 212.329 115.98 212.329 114.94C212.329 114.02 212.515 113.1 212.889 112.18C213.275 111.26 213.775 110.433 214.389 109.7C215.002 108.953 215.689 108.353 216.449 107.9C217.209 107.433 217.969 107.2 218.729 107.2C219.369 107.2 219.889 107.367 220.289 107.7C220.702 108.02 220.909 108.433 220.909 108.94C220.909 109.407 220.735 109.887 220.389 110.38C220.042 110.873 219.569 111.34 218.969 111.78C218.382 112.22 217.689 112.62 216.889 112.98C216.102 113.34 215.262 113.62 214.369 113.82C214.342 114.007 214.322 114.193 214.309 114.38C214.295 114.553 214.289 114.733 214.289 114.92C214.289 116.373 214.802 117.1 215.829 117.1C216.322 117.1 216.829 116.907 217.349 116.52C217.882 116.133 218.375 115.6 218.829 114.92L219.469 115.34ZM218.329 108.14C217.982 108.14 217.622 108.273 217.249 108.54C216.875 108.807 216.515 109.167 216.169 109.62C215.835 110.06 215.529 110.567 215.249 111.14C214.969 111.713 214.742 112.307 214.569 112.92C215.209 112.747 215.802 112.52 216.349 112.24C216.895 111.96 217.362 111.647 217.749 111.3C218.149 110.94 218.462 110.567 218.689 110.18C218.915 109.78 219.029 109.38 219.029 108.98C219.029 108.42 218.795 108.14 218.329 108.14ZM221.59 110.18C221.737 109.847 221.957 109.507 222.25 109.16C222.557 108.8 222.883 108.48 223.23 108.2C223.59 107.907 223.95 107.667 224.31 107.48C224.67 107.293 224.983 107.2 225.25 107.2C225.57 107.2 225.803 107.32 225.95 107.56C226.097 107.8 226.17 108.187 226.17 108.72C226.17 108.933 226.157 109.14 226.13 109.34C226.117 109.54 226.083 109.773 226.03 110.04L226.09 110.1C226.25 109.713 226.477 109.333 226.77 108.96C227.063 108.587 227.377 108.26 227.71 107.98C228.057 107.687 228.403 107.453 228.75 107.28C229.11 107.093 229.443 107 229.75 107C230.137 107 230.457 107.127 230.71 107.38C230.977 107.62 231.11 107.92 231.11 108.28C231.11 108.627 230.997 108.913 230.77 109.14C230.557 109.367 230.277 109.48 229.93 109.48C229.717 109.48 229.543 109.44 229.41 109.36C229.29 109.28 229.183 109.2 229.09 109.12C228.997 109.027 228.91 108.94 228.83 108.86C228.75 108.78 228.65 108.74 228.53 108.74C228.277 108.74 227.983 108.913 227.65 109.26C227.317 109.593 226.97 110.053 226.61 110.64C226.25 111.227 225.89 111.913 225.53 112.7C225.183 113.487 224.863 114.333 224.57 115.24L223.67 118H221.81L223.11 113.86C223.363 113.06 223.57 112.4 223.73 111.88C223.903 111.347 224.037 110.907 224.13 110.56C224.223 110.2 224.283 109.92 224.31 109.72C224.35 109.52 224.37 109.347 224.37 109.2C224.37 108.907 224.27 108.76 224.07 108.76C223.937 108.76 223.77 108.813 223.57 108.92C223.383 109.027 223.197 109.16 223.01 109.32C222.823 109.48 222.643 109.66 222.47 109.86C222.31 110.06 222.19 110.253 222.11 110.44L221.59 110.18ZM233.648 112.16C233.434 111.067 233.214 110.313 232.988 109.9C232.774 109.473 232.548 109.26 232.308 109.26C232.054 109.26 231.821 109.453 231.608 109.84C231.408 110.213 231.201 110.813 230.988 111.64L230.248 111.44C230.381 110.827 230.554 110.26 230.768 109.74C230.994 109.22 231.234 108.773 231.488 108.4C231.754 108.013 232.034 107.72 232.328 107.52C232.621 107.307 232.914 107.2 233.208 107.2C233.461 107.2 233.674 107.293 233.848 107.48C234.034 107.667 234.221 108.013 234.408 108.52C234.568 108.947 234.741 109.513 234.928 110.22C235.128 110.913 235.321 111.713 235.508 112.62L236.188 115.84H236.268C236.521 115.52 236.774 115.16 237.028 114.76C237.294 114.347 237.534 113.92 237.748 113.48C237.961 113.027 238.134 112.573 238.268 112.12C238.401 111.653 238.468 111.22 238.468 110.82C238.468 110.687 238.461 110.52 238.448 110.32C238.434 110.107 238.414 109.893 238.388 109.68C238.374 109.467 238.361 109.267 238.348 109.08C238.334 108.88 238.328 108.72 238.328 108.6C238.328 108.12 238.448 107.767 238.688 107.54C238.928 107.313 239.181 107.2 239.448 107.2C239.794 107.2 240.048 107.347 240.208 107.64C240.368 107.933 240.448 108.273 240.448 108.66C240.448 109.207 240.301 109.907 240.008 110.76C239.714 111.613 239.328 112.533 238.848 113.52C238.368 114.493 237.814 115.493 237.188 116.52C236.561 117.533 235.914 118.467 235.248 119.32C234.234 120.64 233.294 121.613 232.428 122.24C231.574 122.88 230.774 123.2 230.028 123.2C229.468 123.2 229.028 123.047 228.708 122.74C228.374 122.433 228.208 122.06 228.208 121.62C228.208 121.287 228.301 121.013 228.488 120.8C228.674 120.6 228.921 120.5 229.228 120.5C229.494 120.5 229.694 120.573 229.828 120.72C229.948 120.88 230.048 121.053 230.128 121.24C230.208 121.44 230.294 121.613 230.388 121.76C230.468 121.92 230.601 122 230.788 122C231.041 122 231.361 121.86 231.748 121.58C232.134 121.3 232.521 120.947 232.908 120.52C233.294 120.107 233.654 119.653 233.988 119.16C234.334 118.667 234.581 118.207 234.728 117.78L233.648 112.16Z" fill="black"/>
<path d="M28.1386 145.848L24.9066 157H23.2746L20.6826 148.024L17.9946 157L16.3786 157.016L13.2586 145.848H14.8106L17.2426 155.304L19.9306 145.848H21.5626L24.1226 155.272L26.5706 145.848H28.1386ZM37.732 152.28C37.732 152.557 37.716 152.851 37.684 153.16H30.676C30.7293 154.024 31.0227 154.701 31.556 155.192C32.1 155.672 32.756 155.912 33.524 155.912C34.1533 155.912 34.676 155.768 35.092 155.48C35.5187 155.181 35.8173 154.787 35.988 154.296H37.556C37.3213 155.139 36.852 155.827 36.148 156.36C35.444 156.883 34.5693 157.144 33.524 157.144C32.692 157.144 31.9453 156.957 31.284 156.584C30.6333 156.211 30.1213 155.683 29.748 155C29.3747 154.307 29.188 153.507 29.188 152.6C29.188 151.693 29.3693 150.899 29.732 150.216C30.0947 149.533 30.6013 149.011 31.252 148.648C31.9133 148.275 32.6707 148.088 33.524 148.088C34.356 148.088 35.092 148.269 35.732 148.632C36.372 148.995 36.8627 149.496 37.204 150.136C37.556 150.765 37.732 151.48 37.732 152.28ZM36.228 151.976C36.228 151.421 36.1053 150.947 35.86 150.552C35.6147 150.147 35.2787 149.843 34.852 149.64C34.436 149.427 33.972 149.32 33.46 149.32C32.724 149.32 32.0947 149.555 31.572 150.024C31.06 150.493 30.7667 151.144 30.692 151.976H36.228ZM47.7435 157.144C46.9222 157.144 46.1755 156.957 45.5035 156.584C44.8422 156.211 44.3195 155.683 43.9355 155C43.5622 154.307 43.3755 153.507 43.3755 152.6C43.3755 151.704 43.5675 150.915 43.9515 150.232C44.3462 149.539 44.8795 149.011 45.5515 148.648C46.2235 148.275 46.9755 148.088 47.8075 148.088C48.6395 148.088 49.3915 148.275 50.0635 148.648C50.7355 149.011 51.2635 149.533 51.6475 150.216C52.0422 150.899 52.2395 151.693 52.2395 152.6C52.2395 153.507 52.0368 154.307 51.6315 155C51.2368 155.683 50.6982 156.211 50.0155 156.584C49.3328 156.957 48.5755 157.144 47.7435 157.144ZM47.7435 155.864C48.2662 155.864 48.7568 155.741 49.2155 155.496C49.6742 155.251 50.0422 154.883 50.3195 154.392C50.6075 153.901 50.7515 153.304 50.7515 152.6C50.7515 151.896 50.6128 151.299 50.3355 150.808C50.0582 150.317 49.6955 149.955 49.2475 149.72C48.7995 149.475 48.3142 149.352 47.7915 149.352C47.2582 149.352 46.7675 149.475 46.3195 149.72C45.8822 149.955 45.5302 150.317 45.2635 150.808C44.9968 151.299 44.8635 151.896 44.8635 152.6C44.8635 153.315 44.9915 153.917 45.2475 154.408C45.5142 154.899 45.8662 155.267 46.3035 155.512C46.7408 155.747 47.2208 155.864 47.7435 155.864ZM57.7219 149.432H55.8819V157H54.4259V149.432H53.2899V148.232H54.4259V147.608C54.4259 146.627 54.6765 145.912 55.1779 145.464C55.6899 145.005 56.5059 144.776 57.6259 144.776V145.992C56.9859 145.992 56.5325 146.12 56.2659 146.376C56.0099 146.621 55.8819 147.032 55.8819 147.608V148.232H57.7219V149.432ZM62.9875 149.432H61.1475V157H59.6915V149.432H58.5555V148.232H59.6915V147.608C59.6915 146.627 59.9422 145.912 60.4435 145.464C60.9555 145.005 61.7715 144.776 62.8915 144.776V145.992C62.2515 145.992 61.7982 146.12 61.5315 146.376C61.2755 146.621 61.1475 147.032 61.1475 147.608V148.232H62.9875V149.432ZM72.6851 152.28C72.6851 152.557 72.6691 152.851 72.6371 153.16H65.6291C65.6825 154.024 65.9758 154.701 66.5091 155.192C67.0531 155.672 67.7091 155.912 68.4771 155.912C69.1065 155.912 69.6291 155.768 70.0451 155.48C70.4718 155.181 70.7705 154.787 70.9411 154.296H72.5091C72.2745 155.139 71.8051 155.827 71.1011 156.36C70.3971 156.883 69.5225 157.144 68.4771 157.144C67.6451 157.144 66.8985 156.957 66.2371 156.584C65.5865 156.211 65.0745 155.683 64.7011 155C64.3278 154.307 64.1411 153.507 64.1411 152.6C64.1411 151.693 64.3225 150.899 64.6851 150.216C65.0478 149.533 65.5545 149.011 66.2051 148.648C66.8665 148.275 67.6238 148.088 68.4771 148.088C69.3091 148.088 70.0451 148.269 70.6851 148.632C71.3251 148.995 71.8158 149.496 72.1571 150.136C72.5091 150.765 72.6851 151.48 72.6851 152.28ZM71.1811 151.976C71.1811 151.421 71.0585 150.947 70.8131 150.552C70.5678 150.147 70.2318 149.843 69.8051 149.64C69.3891 149.427 68.9251 149.32 68.4131 149.32C67.6771 149.32 67.0478 149.555 66.5251 150.024C66.0131 150.493 65.7198 151.144 65.6451 151.976H71.1811ZM76.063 149.656C76.319 149.155 76.6817 148.765 77.151 148.488C77.631 148.211 78.2123 148.072 78.895 148.072V149.576H78.511C76.879 149.576 76.063 150.461 76.063 152.232V157H74.607V148.232H76.063V149.656ZM88.4094 149.432H86.5694V157H85.1134V149.432H83.9774V148.232H85.1134V147.608C85.1134 146.627 85.364 145.912 85.8654 145.464C86.3774 145.005 87.1934 144.776 88.3134 144.776V145.992C87.6734 145.992 87.22 146.12 86.9534 146.376C86.6974 146.621 86.5694 147.032 86.5694 147.608V148.232H88.4094V149.432ZM91.563 149.656C91.819 149.155 92.1817 148.765 92.651 148.488C93.131 148.211 93.7123 148.072 94.395 148.072V149.576H94.011C92.379 149.576 91.563 150.461 91.563 152.232V157H90.107V148.232H91.563V149.656ZM104.076 152.28C104.076 152.557 104.06 152.851 104.028 153.16H97.0198C97.0731 154.024 97.3664 154.701 97.8998 155.192C98.4438 155.672 99.0998 155.912 99.8678 155.912C100.497 155.912 101.02 155.768 101.436 155.48C101.862 155.181 102.161 154.787 102.332 154.296H103.9C103.665 155.139 103.196 155.827 102.492 156.36C101.788 156.883 100.913 157.144 99.8678 157.144C99.0358 157.144 98.2891 156.957 97.6278 156.584C96.9771 156.211 96.4651 155.683 96.0918 155C95.7184 154.307 95.5318 153.507 95.5318 152.6C95.5318 151.693 95.7131 150.899 96.0758 150.216C96.4384 149.533 96.9451 149.011 97.5958 148.648C98.2571 148.275 99.0144 148.088 99.8678 148.088C100.7 148.088 101.436 148.269 102.076 148.632C102.716 148.995 103.206 149.496 103.548 150.136C103.9 150.765 104.076 151.48 104.076 152.28ZM102.572 151.976C102.572 151.421 102.449 150.947 102.204 150.552C101.958 150.147 101.622 149.843 101.196 149.64C100.78 149.427 100.316 149.32 99.8038 149.32C99.0678 149.32 98.4384 149.555 97.9158 150.024C97.4038 150.493 97.1104 151.144 97.0358 151.976H102.572ZM113.998 152.28C113.998 152.557 113.982 152.851 113.95 153.16H106.942C106.995 154.024 107.288 154.701 107.822 155.192C108.366 155.672 109.022 155.912 109.79 155.912C110.419 155.912 110.942 155.768 111.358 155.48C111.784 155.181 112.083 154.787 112.254 154.296H113.822C113.587 155.139 113.118 155.827 112.414 156.36C111.71 156.883 110.835 157.144 109.79 157.144C108.958 157.144 108.211 156.957 107.55 156.584C106.899 156.211 106.387 155.683 106.014 155C105.64 154.307 105.454 153.507 105.454 152.6C105.454 151.693 105.635 150.899 105.998 150.216C106.36 149.533 106.867 149.011 107.518 148.648C108.179 148.275 108.936 148.088 109.79 148.088C110.622 148.088 111.358 148.269 111.998 148.632C112.638 148.995 113.128 149.496 113.47 150.136C113.822 150.765 113.998 151.48 113.998 152.28ZM112.494 151.976C112.494 151.421 112.371 150.947 112.126 150.552C111.88 150.147 111.544 149.843 111.118 149.64C110.702 149.427 110.238 149.32 109.726 149.32C108.99 149.32 108.36 149.555 107.838 150.024C107.326 150.493 107.032 151.144 106.958 151.976H112.494ZM128.745 157L127.289 155.528C126.745 156.093 126.164 156.515 125.545 156.792C124.926 157.059 124.228 157.192 123.449 157.192C122.681 157.192 121.998 157.053 121.401 156.776C120.814 156.499 120.356 156.104 120.025 155.592C119.705 155.08 119.545 154.483 119.545 153.8C119.545 153.021 119.764 152.339 120.201 151.752C120.649 151.155 121.305 150.685 122.169 150.344C121.828 149.939 121.582 149.565 121.433 149.224C121.284 148.883 121.209 148.509 121.209 148.104C121.209 147.635 121.326 147.213 121.561 146.84C121.806 146.456 122.153 146.157 122.601 145.944C123.049 145.731 123.566 145.624 124.153 145.624C124.729 145.624 125.23 145.736 125.657 145.96C126.084 146.184 126.404 146.499 126.617 146.904C126.83 147.299 126.926 147.741 126.905 148.232H125.449C125.46 147.795 125.337 147.453 125.081 147.208C124.825 146.952 124.494 146.824 124.089 146.824C123.662 146.824 123.316 146.947 123.049 147.192C122.793 147.427 122.665 147.731 122.665 148.104C122.665 148.424 122.75 148.733 122.921 149.032C123.102 149.331 123.401 149.699 123.817 150.136L127.145 153.48L127.433 153.032L128.521 151.208H130.089L128.777 153.48C128.596 153.8 128.382 154.136 128.137 154.488L130.649 157H128.745ZM123.449 155.944C124.025 155.944 124.542 155.832 125.001 155.608C125.47 155.384 125.913 155.037 126.329 154.568L123.049 151.272C121.684 151.795 121.001 152.621 121.001 153.752C121.001 154.381 121.225 154.904 121.673 155.32C122.132 155.736 122.724 155.944 123.449 155.944ZM139.847 149.432H138.007V157H136.551V149.432H135.415V148.232H136.551V147.608C136.551 146.627 136.802 145.912 137.303 145.464C137.815 145.005 138.631 144.776 139.751 144.776V145.992C139.111 145.992 138.658 146.12 138.391 146.376C138.135 146.621 138.007 147.032 138.007 147.608V148.232H139.847V149.432ZM141.001 152.584C141.001 151.688 141.182 150.904 141.545 150.232C141.907 149.549 142.403 149.021 143.033 148.648C143.673 148.275 144.382 148.088 145.161 148.088C145.929 148.088 146.595 148.253 147.161 148.584C147.726 148.915 148.147 149.331 148.425 149.832V148.232H149.897V157H148.425V155.368C148.137 155.88 147.705 156.307 147.129 156.648C146.563 156.979 145.902 157.144 145.145 157.144C144.366 157.144 143.662 156.952 143.033 156.568C142.403 156.184 141.907 155.645 141.545 154.952C141.182 154.259 141.001 153.469 141.001 152.584ZM148.425 152.6C148.425 151.939 148.291 151.363 148.025 150.872C147.758 150.381 147.395 150.008 146.937 149.752C146.489 149.485 145.993 149.352 145.449 149.352C144.905 149.352 144.409 149.48 143.961 149.736C143.513 149.992 143.155 150.365 142.889 150.856C142.622 151.347 142.489 151.923 142.489 152.584C142.489 153.256 142.622 153.843 142.889 154.344C143.155 154.835 143.513 155.213 143.961 155.48C144.409 155.736 144.905 155.864 145.449 155.864C145.993 155.864 146.489 155.736 146.937 155.48C147.395 155.213 147.758 154.835 148.025 154.344C148.291 153.843 148.425 153.261 148.425 152.6ZM155.461 157.144C154.789 157.144 154.186 157.032 153.653 156.808C153.12 156.573 152.698 156.253 152.389 155.848C152.08 155.432 151.909 154.957 151.877 154.424H153.381C153.424 154.861 153.626 155.219 153.989 155.496C154.362 155.773 154.848 155.912 155.445 155.912C156 155.912 156.437 155.789 156.757 155.544C157.077 155.299 157.237 154.989 157.237 154.616C157.237 154.232 157.066 153.949 156.725 153.768C156.384 153.576 155.856 153.389 155.141 153.208C154.49 153.037 153.957 152.867 153.541 152.696C153.136 152.515 152.784 152.253 152.485 151.912C152.197 151.56 152.053 151.101 152.053 150.536C152.053 150.088 152.186 149.677 152.453 149.304C152.72 148.931 153.098 148.637 153.589 148.424C154.08 148.2 154.64 148.088 155.269 148.088C156.24 148.088 157.024 148.333 157.621 148.824C158.218 149.315 158.538 149.987 158.581 150.84H157.125C157.093 150.381 156.906 150.013 156.565 149.736C156.234 149.459 155.786 149.32 155.221 149.32C154.698 149.32 154.282 149.432 153.973 149.656C153.664 149.88 153.509 150.173 153.509 150.536C153.509 150.824 153.6 151.064 153.781 151.256C153.973 151.437 154.208 151.587 154.485 151.704C154.773 151.811 155.168 151.933 155.669 152.072C156.298 152.243 156.81 152.413 157.205 152.584C157.6 152.744 157.936 152.989 158.213 153.32C158.501 153.651 158.65 154.083 158.661 154.616C158.661 155.096 158.528 155.528 158.261 155.912C157.994 156.296 157.616 156.6 157.125 156.824C156.645 157.037 156.09 157.144 155.461 157.144ZM162.492 149.432V154.6C162.492 155.027 162.583 155.331 162.764 155.512C162.946 155.683 163.26 155.768 163.708 155.768H164.78V157H163.468C162.658 157 162.05 156.813 161.644 156.44C161.239 156.067 161.036 155.453 161.036 154.6V149.432H159.9V148.232H161.036V146.024H162.492V148.232H164.78V149.432H162.492ZM173.914 157.144C173.242 157.144 172.639 157.032 172.106 156.808C171.573 156.573 171.151 156.253 170.842 155.848C170.533 155.432 170.362 154.957 170.33 154.424H171.834C171.877 154.861 172.079 155.219 172.442 155.496C172.815 155.773 173.301 155.912 173.898 155.912C174.453 155.912 174.89 155.789 175.21 155.544C175.53 155.299 175.69 154.989 175.69 154.616C175.69 154.232 175.519 153.949 175.178 153.768C174.837 153.576 174.309 153.389 173.594 153.208C172.943 153.037 172.41 152.867 171.994 152.696C171.589 152.515 171.237 152.253 170.938 151.912C170.65 151.56 170.506 151.101 170.506 150.536C170.506 150.088 170.639 149.677 170.906 149.304C171.173 148.931 171.551 148.637 172.042 148.424C172.533 148.2 173.093 148.088 173.722 148.088C174.693 148.088 175.477 148.333 176.074 148.824C176.671 149.315 176.991 149.987 177.034 150.84H175.578C175.546 150.381 175.359 150.013 175.018 149.736C174.687 149.459 174.239 149.32 173.674 149.32C173.151 149.32 172.735 149.432 172.426 149.656C172.117 149.88 171.962 150.173 171.962 150.536C171.962 150.824 172.053 151.064 172.234 151.256C172.426 151.437 172.661 151.587 172.938 151.704C173.226 151.811 173.621 151.933 174.122 152.072C174.751 152.243 175.263 152.413 175.658 152.584C176.053 152.744 176.389 152.989 176.666 153.32C176.954 153.651 177.103 154.083 177.114 154.616C177.114 155.096 176.981 155.528 176.714 155.912C176.447 156.296 176.069 156.6 175.578 156.824C175.098 157.037 174.543 157.144 173.914 157.144ZM183.522 148.072C184.183 148.072 184.78 148.216 185.314 148.504C185.847 148.781 186.263 149.203 186.562 149.768C186.871 150.333 187.026 151.021 187.026 151.832V157H185.586V152.04C185.586 151.165 185.367 150.499 184.93 150.04C184.492 149.571 183.895 149.336 183.138 149.336C182.37 149.336 181.756 149.576 181.298 150.056C180.85 150.536 180.626 151.235 180.626 152.152V157H179.17V145.16H180.626V149.48C180.914 149.032 181.308 148.685 181.81 148.44C182.322 148.195 182.892 148.072 183.522 148.072ZM190.156 146.808C189.879 146.808 189.644 146.712 189.452 146.52C189.26 146.328 189.164 146.093 189.164 145.816C189.164 145.539 189.26 145.304 189.452 145.112C189.644 144.92 189.879 144.824 190.156 144.824C190.423 144.824 190.647 144.92 190.828 145.112C191.02 145.304 191.116 145.539 191.116 145.816C191.116 146.093 191.02 146.328 190.828 146.52C190.647 146.712 190.423 146.808 190.156 146.808ZM190.86 148.232V157H189.404V148.232H190.86ZM194.797 149.848C195.085 149.347 195.512 148.931 196.077 148.6C196.653 148.259 197.32 148.088 198.077 148.088C198.856 148.088 199.56 148.275 200.189 148.648C200.829 149.021 201.331 149.549 201.693 150.232C202.056 150.904 202.237 151.688 202.237 152.584C202.237 153.469 202.056 154.259 201.693 154.952C201.331 155.645 200.829 156.184 200.189 156.568C199.56 156.952 198.856 157.144 198.077 157.144C197.331 157.144 196.669 156.979 196.093 156.648C195.528 156.307 195.096 155.885 194.797 155.384V161.16H193.341V148.232H194.797V149.848ZM200.749 152.584C200.749 151.923 200.616 151.347 200.349 150.856C200.083 150.365 199.72 149.992 199.261 149.736C198.813 149.48 198.317 149.352 197.773 149.352C197.24 149.352 196.744 149.485 196.285 149.752C195.837 150.008 195.475 150.387 195.197 150.888C194.931 151.379 194.797 151.949 194.797 152.6C194.797 153.261 194.931 153.843 195.197 154.344C195.475 154.835 195.837 155.213 196.285 155.48C196.744 155.736 197.24 155.864 197.773 155.864C198.317 155.864 198.813 155.736 199.261 155.48C199.72 155.213 200.083 154.835 200.349 154.344C200.616 153.843 200.749 153.256 200.749 152.584ZM205.61 149.848C205.898 149.347 206.325 148.931 206.89 148.6C207.466 148.259 208.133 148.088 208.89 148.088C209.669 148.088 210.373 148.275 211.002 148.648C211.642 149.021 212.143 149.549 212.506 150.232C212.869 150.904 213.05 151.688 213.05 152.584C213.05 153.469 212.869 154.259 212.506 154.952C212.143 155.645 211.642 156.184 211.002 156.568C210.373 156.952 209.669 157.144 208.89 157.144C208.143 157.144 207.482 156.979 206.906 156.648C206.341 156.307 205.909 155.885 205.61 155.384V161.16H204.154V148.232H205.61V149.848ZM211.562 152.584C211.562 151.923 211.429 151.347 211.162 150.856C210.895 150.365 210.533 149.992 210.074 149.736C209.626 149.48 209.13 149.352 208.586 149.352C208.053 149.352 207.557 149.485 207.098 149.752C206.65 150.008 206.287 150.387 206.01 150.888C205.743 151.379 205.61 151.949 205.61 152.6C205.61 153.261 205.743 153.843 206.01 154.344C206.287 154.835 206.65 155.213 207.098 155.48C207.557 155.736 208.053 155.864 208.586 155.864C209.13 155.864 209.626 155.736 210.074 155.48C210.533 155.213 210.895 154.835 211.162 154.344C211.429 153.843 211.562 153.256 211.562 152.584ZM215.718 146.808C215.441 146.808 215.206 146.712 215.014 146.52C214.822 146.328 214.726 146.093 214.726 145.816C214.726 145.539 214.822 145.304 215.014 145.112C215.206 144.92 215.441 144.824 215.718 144.824C215.985 144.824 216.209 144.92 216.39 145.112C216.582 145.304 216.678 145.539 216.678 145.816C216.678 146.093 216.582 146.328 216.39 146.52C216.209 146.712 215.985 146.808 215.718 146.808ZM216.422 148.232V157H214.966V148.232H216.422ZM223.176 148.072C224.243 148.072 225.107 148.397 225.768 149.048C226.429 149.688 226.76 150.616 226.76 151.832V157H225.32V152.04C225.32 151.165 225.101 150.499 224.664 150.04C224.227 149.571 223.629 149.336 222.872 149.336C222.104 149.336 221.491 149.576 221.032 150.056C220.584 150.536 220.36 151.235 220.36 152.152V157H218.904V148.232H220.36V149.48C220.648 149.032 221.037 148.685 221.528 148.44C222.029 148.195 222.579 148.072 223.176 148.072ZM232.754 148.088C233.512 148.088 234.173 148.253 234.738 148.584C235.314 148.915 235.741 149.331 236.018 149.832V148.232H237.49V157.192C237.49 157.992 237.32 158.701 236.978 159.32C236.637 159.949 236.146 160.44 235.506 160.792C234.877 161.144 234.141 161.32 233.298 161.32C232.146 161.32 231.186 161.048 230.418 160.504C229.65 159.96 229.197 159.219 229.058 158.28H230.498C230.658 158.813 230.989 159.24 231.49 159.56C231.992 159.891 232.594 160.056 233.298 160.056C234.098 160.056 234.749 159.805 235.25 159.304C235.762 158.803 236.018 158.099 236.018 157.192V155.352C235.73 155.864 235.304 156.291 234.738 156.632C234.173 156.973 233.512 157.144 232.754 157.144C231.976 157.144 231.266 156.952 230.626 156.568C229.997 156.184 229.501 155.645 229.138 154.952C228.776 154.259 228.594 153.469 228.594 152.584C228.594 151.688 228.776 150.904 229.138 150.232C229.501 149.549 229.997 149.021 230.626 148.648C231.266 148.275 231.976 148.088 232.754 148.088ZM236.018 152.6C236.018 151.939 235.885 151.363 235.618 150.872C235.352 150.381 234.989 150.008 234.53 149.752C234.082 149.485 233.586 149.352 233.042 149.352C232.498 149.352 232.002 149.48 231.554 149.736C231.106 149.992 230.749 150.365 230.482 150.856C230.216 151.347 230.082 151.923 230.082 152.584C230.082 153.256 230.216 153.843 230.482 154.344C230.749 154.835 231.106 155.213 231.554 155.48C232.002 155.736 232.498 155.864 233.042 155.864C233.586 155.864 234.082 155.736 234.53 155.48C234.989 155.213 235.352 154.835 235.618 154.344C235.885 153.843 236.018 153.261 236.018 152.6ZM255.896 148.232L253.16 157H251.656L249.544 150.04L247.432 157H245.928L243.176 148.232H244.664L246.68 155.592L248.856 148.232H250.344L252.472 155.608L254.456 148.232H255.896ZM258.093 146.808C257.816 146.808 257.581 146.712 257.389 146.52C257.197 146.328 257.101 146.093 257.101 145.816C257.101 145.539 257.197 145.304 257.389 145.112C257.581 144.92 257.816 144.824 258.093 144.824C258.36 144.824 258.584 144.92 258.765 145.112C258.957 145.304 259.053 145.539 259.053 145.816C259.053 146.093 258.957 146.328 258.765 146.52C258.584 146.712 258.36 146.808 258.093 146.808ZM258.797 148.232V157H257.341V148.232H258.797ZM263.055 149.432V154.6C263.055 155.027 263.146 155.331 263.327 155.512C263.508 155.683 263.823 155.768 264.271 155.768H265.343V157H264.031C263.22 157 262.612 156.813 262.207 156.44C261.802 156.067 261.599 155.453 261.599 154.6V149.432H260.463V148.232H261.599V146.024H263.055V148.232H265.343V149.432H263.055ZM271.459 148.072C272.12 148.072 272.718 148.216 273.251 148.504C273.784 148.781 274.2 149.203 274.499 149.768C274.808 150.333 274.963 151.021 274.963 151.832V157H273.523V152.04C273.523 151.165 273.304 150.499 272.867 150.04C272.43 149.571 271.832 149.336 271.075 149.336C270.307 149.336 269.694 149.576 269.235 150.056C268.787 150.536 268.563 151.235 268.563 152.152V157H267.107V145.16H268.563V149.48C268.851 149.032 269.246 148.685 269.747 148.44C270.259 148.195 270.83 148.072 271.459 148.072ZM86.8246 174.088C87.5819 174.088 88.2432 174.253 88.8086 174.584C89.3846 174.915 89.8112 175.331 90.0886 175.832V174.232H91.5606V183.192C91.5606 183.992 91.3899 184.701 91.0486 185.32C90.7072 185.949 90.2166 186.44 89.5766 186.792C88.9472 187.144 88.2112 187.32 87.3686 187.32C86.2166 187.32 85.2566 187.048 84.4886 186.504C83.7206 185.96 83.2672 185.219 83.1286 184.28H84.5686C84.7286 184.813 85.0592 185.24 85.5606 185.56C86.0619 185.891 86.6646 186.056 87.3686 186.056C88.1686 186.056 88.8192 185.805 89.3206 185.304C89.8326 184.803 90.0886 184.099 90.0886 183.192V181.352C89.8006 181.864 89.3739 182.291 88.8086 182.632C88.2432 182.973 87.5819 183.144 86.8246 183.144C86.0459 183.144 85.3366 182.952 84.6966 182.568C84.0672 182.184 83.5712 181.645 83.2086 180.952C82.8459 180.259 82.6646 179.469 82.6646 178.584C82.6646 177.688 82.8459 176.904 83.2086 176.232C83.5712 175.549 84.0672 175.021 84.6966 174.648C85.3366 174.275 86.0459 174.088 86.8246 174.088ZM90.0886 178.6C90.0886 177.939 89.9552 177.363 89.6886 176.872C89.4219 176.381 89.0592 176.008 88.6006 175.752C88.1526 175.485 87.6566 175.352 87.1126 175.352C86.5686 175.352 86.0726 175.48 85.6246 175.736C85.1766 175.992 84.8192 176.365 84.5526 176.856C84.2859 177.347 84.1526 177.923 84.1526 178.584C84.1526 179.256 84.2859 179.843 84.5526 180.344C84.8192 180.835 85.1766 181.213 85.6246 181.48C86.0726 181.736 86.5686 181.864 87.1126 181.864C87.6566 181.864 88.1526 181.736 88.6006 181.48C89.0592 181.213 89.4219 180.835 89.6886 180.344C89.9552 179.843 90.0886 179.261 90.0886 178.6ZM95.4771 175.656C95.7331 175.155 96.0957 174.765 96.5651 174.488C97.0451 174.211 97.6264 174.072 98.3091 174.072V175.576H97.9251C96.2931 175.576 95.4771 176.461 95.4771 178.232V183H94.0211V174.232H95.4771V175.656ZM103.814 183.144C102.992 183.144 102.246 182.957 101.574 182.584C100.912 182.211 100.39 181.683 100.006 181C99.6325 180.307 99.4458 179.507 99.4458 178.6C99.4458 177.704 99.6378 176.915 100.022 176.232C100.416 175.539 100.95 175.011 101.622 174.648C102.294 174.275 103.046 174.088 103.878 174.088C104.71 174.088 105.462 174.275 106.134 174.648C106.806 175.011 107.334 175.533 107.718 176.216C108.112 176.899 108.31 177.693 108.31 178.6C108.31 179.507 108.107 180.307 107.702 181C107.307 181.683 106.768 182.211 106.086 182.584C105.403 182.957 104.646 183.144 103.814 183.144ZM103.814 181.864C104.336 181.864 104.827 181.741 105.286 181.496C105.744 181.251 106.112 180.883 106.39 180.392C106.678 179.901 106.822 179.304 106.822 178.6C106.822 177.896 106.683 177.299 106.406 176.808C106.128 176.317 105.766 175.955 105.318 175.72C104.87 175.475 104.384 175.352 103.862 175.352C103.328 175.352 102.838 175.475 102.39 175.72C101.952 175.955 101.6 176.317 101.334 176.808C101.067 177.299 100.934 177.896 100.934 178.6C100.934 179.315 101.062 179.917 101.318 180.408C101.584 180.899 101.936 181.267 102.374 181.512C102.811 181.747 103.291 181.864 103.814 181.864ZM118 174.232V183H116.544V181.704C116.267 182.152 115.878 182.504 115.376 182.76C114.886 183.005 114.342 183.128 113.744 183.128C113.062 183.128 112.448 182.989 111.904 182.712C111.36 182.424 110.928 181.997 110.608 181.432C110.299 180.867 110.144 180.179 110.144 179.368V174.232H111.584V179.176C111.584 180.04 111.803 180.707 112.24 181.176C112.678 181.635 113.275 181.864 114.032 181.864C114.811 181.864 115.424 181.624 115.872 181.144C116.32 180.664 116.544 179.965 116.544 179.048V174.232H118ZM124.731 174.072C125.797 174.072 126.661 174.397 127.323 175.048C127.984 175.688 128.315 176.616 128.315 177.832V183H126.875V178.04C126.875 177.165 126.656 176.499 126.219 176.04C125.781 175.571 125.184 175.336 124.427 175.336C123.659 175.336 123.045 175.576 122.587 176.056C122.139 176.536 121.915 177.235 121.915 178.152V183H120.459V174.232H121.915V175.48C122.203 175.032 122.592 174.685 123.083 174.44C123.584 174.195 124.133 174.072 124.731 174.072ZM130.149 178.584C130.149 177.688 130.33 176.904 130.693 176.232C131.056 175.549 131.552 175.021 132.181 174.648C132.821 174.275 133.536 174.088 134.325 174.088C135.008 174.088 135.642 174.248 136.229 174.568C136.816 174.877 137.264 175.288 137.573 175.8V171.16H139.045V183H137.573V181.352C137.285 181.875 136.858 182.307 136.293 182.648C135.728 182.979 135.066 183.144 134.309 183.144C133.53 183.144 132.821 182.952 132.181 182.568C131.552 182.184 131.056 181.645 130.693 180.952C130.33 180.259 130.149 179.469 130.149 178.584ZM137.573 178.6C137.573 177.939 137.44 177.363 137.173 176.872C136.906 176.381 136.544 176.008 136.085 175.752C135.637 175.485 135.141 175.352 134.597 175.352C134.053 175.352 133.557 175.48 133.109 175.736C132.661 175.992 132.304 176.365 132.037 176.856C131.77 177.347 131.637 177.923 131.637 178.584C131.637 179.256 131.77 179.843 132.037 180.344C132.304 180.835 132.661 181.213 133.109 181.48C133.557 181.736 134.053 181.864 134.597 181.864C135.141 181.864 135.637 181.736 136.085 181.48C136.544 181.213 136.906 180.835 137.173 180.344C137.44 179.843 137.573 179.261 137.573 178.6ZM145.227 178.584C145.227 177.688 145.408 176.904 145.771 176.232C146.134 175.549 146.63 175.021 147.259 174.648C147.899 174.275 148.614 174.088 149.403 174.088C150.086 174.088 150.72 174.248 151.307 174.568C151.894 174.877 152.342 175.288 152.651 175.8V171.16H154.123V183H152.651V181.352C152.363 181.875 151.936 182.307 151.371 182.648C150.806 182.979 150.144 183.144 149.387 183.144C148.608 183.144 147.899 182.952 147.259 182.568C146.63 182.184 146.134 181.645 145.771 180.952C145.408 180.259 145.227 179.469 145.227 178.584ZM152.651 178.6C152.651 177.939 152.518 177.363 152.251 176.872C151.984 176.381 151.622 176.008 151.163 175.752C150.715 175.485 150.219 175.352 149.675 175.352C149.131 175.352 148.635 175.48 148.187 175.736C147.739 175.992 147.382 176.365 147.115 176.856C146.848 177.347 146.715 177.923 146.715 178.584C146.715 179.256 146.848 179.843 147.115 180.344C147.382 180.835 147.739 181.213 148.187 181.48C148.635 181.736 149.131 181.864 149.675 181.864C150.219 181.864 150.715 181.736 151.163 181.48C151.622 181.213 151.984 180.835 152.251 180.344C152.518 179.843 152.651 179.261 152.651 178.6ZM164.584 178.28C164.584 178.557 164.568 178.851 164.536 179.16H157.528C157.581 180.024 157.874 180.701 158.408 181.192C158.952 181.672 159.608 181.912 160.376 181.912C161.005 181.912 161.528 181.768 161.944 181.48C162.37 181.181 162.669 180.787 162.84 180.296H164.408C164.173 181.139 163.704 181.827 163 182.36C162.296 182.883 161.421 183.144 160.376 183.144C159.544 183.144 158.797 182.957 158.136 182.584C157.485 182.211 156.973 181.683 156.6 181C156.226 180.307 156.04 179.507 156.04 178.6C156.04 177.693 156.221 176.899 156.584 176.216C156.946 175.533 157.453 175.011 158.104 174.648C158.765 174.275 159.522 174.088 160.376 174.088C161.208 174.088 161.944 174.269 162.584 174.632C163.224 174.995 163.714 175.496 164.056 176.136C164.408 176.765 164.584 177.48 164.584 178.28ZM163.08 177.976C163.08 177.421 162.957 176.947 162.712 176.552C162.466 176.147 162.13 175.843 161.704 175.64C161.288 175.427 160.824 175.32 160.312 175.32C159.576 175.32 158.946 175.555 158.424 176.024C157.912 176.493 157.618 177.144 157.544 177.976H163.08ZM167.961 171.16V183H166.505V171.16H167.961ZM171.195 172.808C170.918 172.808 170.683 172.712 170.491 172.52C170.299 172.328 170.203 172.093 170.203 171.816C170.203 171.539 170.299 171.304 170.491 171.112C170.683 170.92 170.918 170.824 171.195 170.824C171.462 170.824 171.686 170.92 171.867 171.112C172.059 171.304 172.155 171.539 172.155 171.816C172.155 172.093 172.059 172.328 171.867 172.52C171.686 172.712 171.462 172.808 171.195 172.808ZM171.899 174.232V183H170.443V174.232H171.899ZM177.644 181.656L180.364 174.232H181.916L178.476 183H176.78L173.34 174.232H174.908L177.644 181.656ZM191.349 178.28C191.349 178.557 191.333 178.851 191.301 179.16H184.293C184.347 180.024 184.64 180.701 185.173 181.192C185.717 181.672 186.373 181.912 187.141 181.912C187.771 181.912 188.293 181.768 188.709 181.48C189.136 181.181 189.435 180.787 189.605 180.296H191.173C190.939 181.139 190.469 181.827 189.765 182.36C189.061 182.883 188.187 183.144 187.141 183.144C186.309 183.144 185.563 182.957 184.901 182.584C184.251 182.211 183.739 181.683 183.365 181C182.992 180.307 182.805 179.507 182.805 178.6C182.805 177.693 182.987 176.899 183.349 176.216C183.712 175.533 184.219 175.011 184.869 174.648C185.531 174.275 186.288 174.088 187.141 174.088C187.973 174.088 188.709 174.269 189.349 174.632C189.989 174.995 190.48 175.496 190.821 176.136C191.173 176.765 191.349 177.48 191.349 178.28ZM189.845 177.976C189.845 177.421 189.723 176.947 189.477 176.552C189.232 176.147 188.896 175.843 188.469 175.64C188.053 175.427 187.589 175.32 187.077 175.32C186.341 175.32 185.712 175.555 185.189 176.024C184.677 176.493 184.384 177.144 184.309 177.976H189.845ZM194.727 175.656C194.983 175.155 195.346 174.765 195.815 174.488C196.295 174.211 196.876 174.072 197.559 174.072V175.576H197.175C195.543 175.576 194.727 176.461 194.727 178.232V183H193.271V174.232H194.727V175.656ZM206.792 174.232L201.512 187.128H200.008L201.736 182.904L198.2 174.232H199.816L202.568 181.336L205.288 174.232H206.792Z" fill="black"/>
</svg>
