<svg width="20" height="21" viewBox="0 0 20 21" fill="none" xmlns="http://www.w3.org/2000/svg">
<path d="M17.4 5.80547L10.525 2.04141C10.3643 1.95263 10.1836 1.90607 10 1.90607C9.81637 1.90607 9.63574 1.95263 9.475 2.04141L2.6 5.80547C2.42797 5.89959 2.28441 6.03824 2.18435 6.20688C2.0843 6.37553 2.03141 6.56797 2.03125 6.76406V14.2359C2.03141 14.432 2.0843 14.6245 2.18435 14.7931C2.28441 14.9618 2.42797 15.1004 2.6 15.1945L9.475 18.9586C9.63579 19.0472 9.8164 19.0937 10 19.0937C10.1836 19.0937 10.3642 19.0472 10.525 18.9586L17.4 15.1945C17.572 15.1004 17.7156 14.9618 17.8156 14.7931C17.9157 14.6245 17.9686 14.432 17.9688 14.2359V6.76406C17.9686 6.56797 17.9157 6.37553 17.8156 6.20688C17.7156 6.03824 17.572 5.89959 17.4 5.80547ZM9.92188 2.86328C9.94487 2.8507 9.97066 2.84411 9.99687 2.84411C10.0231 2.84411 10.0489 2.8507 10.0719 2.86328L16.6023 6.4375L13.9508 7.88828L7.34766 4.27422L9.92188 2.86328ZM9.53125 17.9219L3.04688 14.3727C3.02291 14.3588 3.00306 14.3389 2.98933 14.3149C2.9756 14.2908 2.9685 14.2636 2.96875 14.2359V7.27031L9.53125 10.8641V17.9219ZM3.39766 6.4375L6.37187 4.80859L12.9742 8.42266L10 10.05L3.39766 6.4375ZM17.0312 14.2359C17.0315 14.2636 17.0244 14.2908 17.0107 14.3149C16.9969 14.3389 16.9771 14.3588 16.9531 14.3727L10.4688 17.9219V10.8625L13.2812 9.32266V12.375C13.2812 12.4993 13.3306 12.6185 13.4185 12.7065C13.5065 12.7944 13.6257 12.8438 13.75 12.8438C13.8743 12.8438 13.9935 12.7944 14.0815 12.7065C14.1694 12.6185 14.2188 12.4993 14.2188 12.375V8.81016L17.0312 7.27031V14.2359Z" fill="black"/>
</svg>
