<svg width="88" height="17" viewBox="0 0 88 17" fill="none" xmlns="http://www.w3.org/2000/svg">
<path d="M8 0.5L9.93734 5.83348L15.6085 6.02786L11.1347 9.51852L12.7023 14.9721L8 11.796L3.29772 14.9721L4.86532 9.51852L0.391548 6.02786L6.06266 5.83348L8 0.5Z" fill="black"/>
<path d="M26 0.5L27.9373 5.83348L33.6085 6.02786L29.1347 9.51852L30.7023 14.9721L26 11.796L21.2977 14.9721L22.8653 9.51852L18.3915 6.02786L24.0627 5.83348L26 0.5Z" fill="black"/>
<path d="M44 0.5L45.9373 5.83348L51.6085 6.02786L47.1347 9.51852L48.7023 14.9721L44 11.796L39.2977 14.9721L40.8653 9.51852L36.3915 6.02786L42.0627 5.83348L44 0.5Z" fill="black"/>
<path d="M62 0.5L63.9373 5.83348L69.6085 6.02786L65.1347 9.51852L66.7023 14.9721L62 11.796L57.2977 14.9721L58.8653 9.51852L54.3915 6.02786L60.0627 5.83348L62 0.5Z" fill="black"/>
<path d="M80 0.5L81.9373 5.83348L87.6085 6.02786L83.1347 9.51852L84.7023 14.9721L80 11.796L75.2977 14.9721L76.8653 9.51852L72.3915 6.02786L78.0627 5.83348L80 0.5Z" fill="black"/>
</svg>
