<svg width="20" height="21" viewBox="0 0 20 21" fill="none" xmlns="http://www.w3.org/2000/svg">
<path d="M19.1852 9.70156L18.0914 6.96719C18.0108 6.76378 17.8708 6.58939 17.6897 6.46675C17.5085 6.34411 17.2946 6.27892 17.0758 6.27969H14.2188V5.5C14.2188 5.37568 14.1694 5.25645 14.0815 5.16854C13.9935 5.08064 13.8743 5.03125 13.75 5.03125H1.875C1.58492 5.03125 1.30672 5.14648 1.1016 5.3516C0.896484 5.55672 0.78125 5.83492 0.78125 6.125V14.875C0.78125 15.1651 0.896484 15.4433 1.1016 15.6484C1.30672 15.8535 1.58492 15.9688 1.875 15.9688H3.32812C3.43571 16.4986 3.72315 16.9749 4.14175 17.3171C4.56035 17.6592 5.08436 17.8461 5.625 17.8461C6.16564 17.8461 6.68965 17.6592 7.10825 17.3171C7.52685 16.9749 7.81429 16.4986 7.92188 15.9688H12.0781C12.1857 16.4986 12.4732 16.9749 12.8918 17.3171C13.3104 17.6592 13.8344 17.8461 14.375 17.8461C14.9156 17.8461 15.4396 17.6592 15.8582 17.3171C16.2768 16.9749 16.5643 16.4986 16.6719 15.9688H18.125C18.4151 15.9688 18.6933 15.8535 18.8984 15.6484C19.1035 15.4433 19.2188 15.1651 19.2188 14.875V9.875C19.2186 9.81558 19.2072 9.75672 19.1852 9.70156ZM14.2188 7.21875H17.0766C17.1079 7.21872 17.1384 7.22809 17.1643 7.24564C17.1903 7.26319 17.2103 7.28812 17.2219 7.31719L18.0578 9.40625H14.2188V7.21875ZM1.71875 6.125C1.71875 6.08356 1.73521 6.04382 1.76451 6.01451C1.79382 5.98521 1.83356 5.96875 1.875 5.96875H13.2812V11.2812H1.71875V6.125ZM5.625 16.9062C5.34687 16.9062 5.07499 16.8238 4.84373 16.6693C4.61247 16.5147 4.43223 16.2951 4.32579 16.0381C4.21936 15.7812 4.19151 15.4984 4.24577 15.2257C4.30003 14.9529 4.43396 14.7023 4.63063 14.5056C4.8273 14.309 5.07787 14.175 5.35065 14.1208C5.62344 14.0665 5.90619 14.0944 6.16315 14.2008C6.42011 14.3072 6.63973 14.4875 6.79425 14.7187C6.94877 14.95 7.03125 15.2219 7.03125 15.5C7.03125 15.873 6.88309 16.2306 6.61937 16.4944C6.35565 16.7581 5.99796 16.9062 5.625 16.9062ZM12.0781 15.0312H7.92188C7.81429 14.5014 7.52685 14.0251 7.10825 13.6829C6.68965 13.3408 6.16564 13.1539 5.625 13.1539C5.08436 13.1539 4.56035 13.3408 4.14175 13.6829C3.72315 14.0251 3.43571 14.5014 3.32812 15.0312H1.875C1.83356 15.0312 1.79382 15.0148 1.76451 14.9855C1.73521 14.9562 1.71875 14.9164 1.71875 14.875V12.2188H13.2812V13.4281C12.975 13.5902 12.7083 13.8179 12.5003 14.0951C12.2923 14.3722 12.1482 14.6919 12.0781 15.0312ZM14.375 16.9062C14.0969 16.9062 13.825 16.8238 13.5937 16.6693C13.3625 16.5147 13.1822 16.2951 13.0758 16.0381C12.9694 15.7812 12.9415 15.4984 12.9958 15.2257C13.05 14.9529 13.184 14.7023 13.3806 14.5056C13.5773 14.309 13.8279 14.175 14.1007 14.1208C14.3734 14.0665 14.6562 14.0944 14.9131 14.2008C15.1701 14.3072 15.3897 14.4875 15.5443 14.7187C15.6988 14.95 15.7812 15.2219 15.7812 15.5C15.7812 15.873 15.6331 16.2306 15.3694 16.4944C15.1056 16.7581 14.748 16.9062 14.375 16.9062ZM18.2812 14.875C18.2812 14.9164 18.2648 14.9562 18.2355 14.9855C18.2062 15.0148 18.1664 15.0312 18.125 15.0312H16.6719C16.5631 14.5022 16.2753 14.0268 15.8569 13.6853C15.4385 13.3437 14.9151 13.1569 14.375 13.1562C14.3227 13.1562 14.2703 13.1563 14.2188 13.1617V10.3438H18.2812V14.875Z" fill="black"/>
</svg>
